Literata-M0.ufo
<glyph name="exclam" format="2">
	<unicode hex="0021"/>
	<advance width="321"/>
	<outline>
		<contour>
			<point x="132" y="193" type="line"/>
			<point x="188" y="193" type="line"/>
			<point x="188" y="264" type="line" smooth="yes"/>
			<point x="188" y="436"/>
			<point x="229" y="576"/>
			<point x="229" y="650" type="curve" smooth="yes"/>
			<point x="229" y="691"/>
			<point x="206" y="714"/>
			<point x="165" y="714" type="curve" smooth="yes"/>
			<point x="122" y="714"/>
			<point x="95" y="689"/>
			<point x="95" y="649" type="curve" smooth="yes"/>
			<point x="95" y="567"/>
			<point x="132" y="422"/>
			<point x="132" y="265" type="curve" smooth="yes"/>
		</contour>
		<contour>
			<point x="161" y="-14" type="curve" smooth="yes"/>
			<point x="202" y="-14"/>
			<point x="231" y="16"/>
			<point x="231" y="56" type="curve" smooth="yes"/>
			<point x="231" y="97"/>
			<point x="202" y="126"/>
			<point x="161" y="126" type="curve" smooth="yes"/>
			<point x="120" y="126"/>
			<point x="90" y="97"/>
			<point x="90" y="55" type="curve" smooth="yes"/>
			<point x="90" y="15"/>
			<point x="120" y="-14"/>
		</contour>
	</outline>
</glyph>
<glyph name="quotedbl" format="2">
	<unicode hex="0022"/>
	<advance width="386"/>
	<outline>
		<contour>
			<point x="98" y="549" type="line"/>
			<point x="132" y="549" type="line"/>
			<point x="162" y="719" type="line" smooth="yes"/>
			<point x="164" y="730"/>
			<point x="165" y="738"/>
			<point x="165" y="745" type="curve" smooth="yes"/>
			<point x="165" y="768"/>
			<point x="142" y="782"/>
			<point x="123" y="782" type="curve" smooth="yes"/>
			<point x="90" y="782"/>
			<point x="70" y="755"/>
			<point x="70" y="726" type="curve" smooth="yes"/>
			<point x="70" y="720"/>
			<point x="71" y="713"/>
			<point x="72" y="707" type="curve" smooth="yes"/>
		</contour>
		<contour>
			<point x="249" y="549" type="line"/>
			<point x="283" y="549" type="line"/>
			<point x="313" y="719" type="line" smooth="yes"/>
			<point x="315" y="730"/>
			<point x="316" y="738"/>
			<point x="316" y="745" type="curve" smooth="yes"/>
			<point x="316" y="768"/>
			<point x="293" y="782"/>
			<point x="274" y="782" type="curve" smooth="yes"/>
			<point x="241" y="782"/>
			<point x="221" y="755"/>
			<point x="221" y="726" type="curve" smooth="yes"/>
			<point x="221" y="720"/>
			<point x="222" y="713"/>
			<point x="223" y="707" type="curve" smooth="yes"/>
		</contour>
	</outline>
</glyph>
<glyph name="numbersign" format="2">
	<unicode hex="0023"/>
	<advance width="674"/>
	<outline>
		<contour>
			<point x="147" y="0" type="line"/>
			<point x="201" y="0" type="line"/>
			<point x="223" y="140" type="line"/>
			<point x="408" y="140" type="line"/>
			<point x="386" y="0" type="line"/>
			<point x="440" y="0" type="line"/>
			<point x="462" y="140" type="line"/>
			<point x="591" y="140" type="line"/>
			<point x="600" y="191" type="line"/>
			<point x="470" y="191" type="line"/>
			<point x="497" y="367" type="line"/>
			<point x="620" y="367" type="line"/>
			<point x="629" y="419" type="line"/>
			<point x="504" y="419" type="line"/>
			<point x="524" y="550" type="line"/>
			<point x="469" y="550" type="line"/>
			<point x="450" y="419" type="line"/>
			<point x="266" y="419" type="line"/>
			<point x="286" y="550" type="line"/>
			<point x="232" y="550" type="line"/>
			<point x="212" y="419" type="line"/>
			<point x="89" y="419" type="line"/>
			<point x="79" y="367" type="line"/>
			<point x="204" y="367" type="line"/>
			<point x="177" y="191" type="line"/>
			<point x="56" y="191" type="line"/>
			<point x="45" y="140" type="line"/>
			<point x="168" y="140" type="line"/>
		</contour>
		<contour>
			<point x="231" y="191" type="line"/>
			<point x="257" y="367" type="line"/>
			<point x="443" y="367" type="line"/>
			<point x="416" y="191" type="line"/>
		</contour>
	</outline>
</glyph>
<glyph name="percent" format="2">
	<unicode hex="0025"/>
	<advance width="851"/>
	<outline>
		<contour>
			<point x="204" y="-14" type="line"/>
			<point x="279" y="-14" type="line"/>
			<point x="641" y="597" type="line"/>
			<point x="567" y="597" type="line"/>
		</contour>
		<contour>
			<point x="202" y="274" type="curve" smooth="yes"/>
			<point x="289" y="274"/>
			<point x="360" y="333"/>
			<point x="360" y="445" type="curve" smooth="yes"/>
			<point x="360" y="548"/>
			<point x="289" y="597"/>
			<point x="207" y="597" type="curve" smooth="yes"/>
			<point x="126" y="597"/>
			<point x="47" y="553"/>
			<point x="47" y="429" type="curve" smooth="yes"/>
			<point x="47" y="339"/>
			<point x="105" y="274"/>
		</contour>
		<contour>
			<point x="207" y="331" type="curve" smooth="yes"/>
			<point x="156" y="331"/>
			<point x="125" y="375"/>
			<point x="125" y="440" type="curve" smooth="yes"/>
			<point x="125" y="510"/>
			<point x="157" y="542"/>
			<point x="200" y="542" type="curve" smooth="yes"/>
			<point x="250" y="542"/>
			<point x="280" y="503"/>
			<point x="280" y="435" type="curve" smooth="yes"/>
			<point x="280" y="364"/>
			<point x="253" y="331"/>
		</contour>
		<contour>
			<point x="646" y="-14" type="curve" smooth="yes"/>
			<point x="733" y="-14"/>
			<point x="804" y="45"/>
			<point x="804" y="157" type="curve" smooth="yes"/>
			<point x="804" y="260"/>
			<point x="733" y="309"/>
			<point x="651" y="309" type="curve" smooth="yes"/>
			<point x="570" y="309"/>
			<point x="491" y="265"/>
			<point x="491" y="141" type="curve" smooth="yes"/>
			<point x="491" y="51"/>
			<point x="549" y="-14"/>
		</contour>
		<contour>
			<point x="651" y="43" type="curve" smooth="yes"/>
			<point x="600" y="43"/>
			<point x="569" y="87"/>
			<point x="569" y="152" type="curve" smooth="yes"/>
			<point x="569" y="222"/>
			<point x="601" y="254"/>
			<point x="644" y="254" type="curve" smooth="yes"/>
			<point x="694" y="254"/>
			<point x="724" y="215"/>
			<point x="724" y="147" type="curve" smooth="yes"/>
			<point x="724" y="76"/>
			<point x="697" y="43"/>
		</contour>
	</outline>
</glyph>
<glyph name="parenright" format="2">
	<unicode hex="0029"/>
	<advance width="332"/>
	<outline>
		<contour>
			<point x="62" y="-204" type="line"/>
			<point x="155" y="-108"/>
			<point x="258" y="84"/>
			<point x="258" y="307" type="curve" smooth="yes"/>
			<point x="258" y="527"/>
			<point x="164" y="715"/>
			<point x="67" y="817" type="curve"/>
			<point x="30" y="796" type="line"/>
			<point x="109" y="646"/>
			<point x="164" y="481"/>
			<point x="164" y="296" type="curve" smooth="yes"/>
			<point x="164" y="127"/>
			<point x="106" y="-52"/>
			<point x="26" y="-184" type="curve"/>
		</contour>
	</outline>
</glyph>
<glyph name="plus" format="2">
	<unicode hex="002B"/>
	<advance width="582"/>
	<outline>
		<contour>
			<point x="254" y="81" type="line"/>
			<point x="321" y="81" type="line"/>
			<point x="321" y="276" type="line"/>
			<point x="505" y="276" type="line"/>
			<point x="505" y="339" type="line"/>
			<point x="321" y="339" type="line"/>
			<point x="321" y="521" type="line"/>
			<point x="254" y="521" type="line"/>
			<point x="254" y="339" type="line"/>
			<point x="77" y="339" type="line"/>
			<point x="77" y="276" type="line"/>
			<point x="254" y="276" type="line"/>
		</contour>
	</outline>
</glyph>
<glyph name="comma" format="2">
	<unicode hex="002C"/>
	<advance width="328"/>
	<outline>
		<contour>
			<point x="115" y="-168" type="line"/>
			<point x="203" y="-117"/>
			<point x="245" y="-28"/>
			<point x="245" y="31" type="curve" smooth="yes"/>
			<point x="245" y="83"/>
			<point x="219" y="129"/>
			<point x="160" y="129" type="curve" smooth="yes"/>
			<point x="116" y="129"/>
			<point x="87" y="97"/>
			<point x="87" y="55" type="curve" smooth="yes"/>
			<point x="87" y="21"/>
			<point x="106" y="0"/>
			<point x="149" y="0" type="curve" smooth="yes"/>
			<point x="173" y="0" type="line"/>
			<point x="169" y="-44"/>
			<point x="146" y="-85"/>
			<point x="86" y="-131" type="curve"/>
		</contour>
	</outline>
</glyph>
<glyph name="period" format="2">
	<unicode hex="002E"/>
	<advance width="333"/>
	<outline>
		<contour>
			<point x="166" y="-17" type="curve" smooth="yes"/>
			<point x="211" y="-17"/>
			<point x="243" y="15"/>
			<point x="243" y="59" type="curve" smooth="yes"/>
			<point x="243" y="103"/>
			<point x="211" y="134"/>
			<point x="166" y="134" type="curve" smooth="yes"/>
			<point x="122" y="134"/>
			<point x="90" y="102"/>
			<point x="90" y="58" type="curve" smooth="yes"/>
			<point x="90" y="14"/>
			<point x="122" y="-17"/>
		</contour>
	</outline>
</glyph>
<glyph name="two" format="2">
	<unicode hex="0032"/>
	<advance width="507"/>
	<outline>
		<contour>
			<point x="38" y="0" type="line"/>
			<point x="453" y="0" type="line"/>
			<point x="472" y="197" type="line"/>
			<point x="419" y="197" type="line"/>
			<point x="381" y="98"/>
			<point x="374" y="89"/>
			<point x="288" y="89" type="curve" smooth="yes"/>
			<point x="138" y="89" type="line"/>
			<point x="387" y="314"/>
			<point x="455" y="416"/>
			<point x="455" y="519" type="curve" smooth="yes"/>
			<point x="455" y="641"/>
			<point x="365" y="714"/>
			<point x="242" y="714" type="curve" smooth="yes"/>
			<point x="113" y="714"/>
			<point x="25" y="640"/>
			<point x="25" y="568" type="curve" smooth="yes"/>
			<point x="25" y="533"/>
			<point x="45" y="498"/>
			<point x="92" y="498" type="curve" smooth="yes"/>
			<point x="125" y="498"/>
			<point x="149" y="526"/>
			<point x="149" y="549" type="curve" smooth="yes"/>
			<point x="149" y="558"/>
			<point x="140" y="578"/>
			<point x="122" y="605" type="curve"/>
			<point x="136" y="629"/>
			<point x="175" y="648"/>
			<point x="228" y="648" type="curve" smooth="yes"/>
			<point x="305" y="648"/>
			<point x="350" y="597"/>
			<point x="350" y="518" type="curve" smooth="yes"/>
			<point x="350" y="416"/>
			<point x="292" y="338"/>
			<point x="30" y="67" type="curve"/>
		</contour>
	</outline>
</glyph>
<glyph name="five" format="2">
	<unicode hex="0035"/>
	<advance width="508"/>
	<outline>
		<contour>
			<point x="236" y="-14" type="curve" smooth="yes"/>
			<point x="379" y="-14"/>
			<point x="475" y="74"/>
			<point x="475" y="238" type="curve" smooth="yes"/>
			<point x="475" y="357"/>
			<point x="397" y="444"/>
			<point x="269" y="444" type="curve" smooth="yes"/>
			<point x="221" y="444"/>
			<point x="176" y="430"/>
			<point x="135" y="406" type="curve"/>
			<point x="157" y="602" type="line"/>
			<point x="427" y="602" type="line"/>
			<point x="450" y="672" type="line"/>
			<point x="451" y="700" type="line"/>
			<point x="102" y="700" type="line"/>
			<point x="68" y="366" type="line"/>
			<point x="101" y="331" type="line"/>
			<point x="144" y="355"/>
			<point x="182" y="371"/>
			<point x="235" y="371" type="curve" smooth="yes"/>
			<point x="323" y="371"/>
			<point x="370" y="310"/>
			<point x="370" y="230" type="curve" smooth="yes"/>
			<point x="370" y="127"/>
			<point x="319" y="65"/>
			<point x="232" y="65" type="curve" smooth="yes"/>
			<point x="164" y="65"/>
			<point x="110" y="91"/>
			<point x="61" y="154" type="curve"/>
			<point x="15" y="118" type="line"/>
			<point x="63" y="23"/>
			<point x="144" y="-14"/>
		</contour>
	</outline>
</glyph>
<glyph name="seven" format="2">
	<unicode hex="0037"/>
	<advance width="507"/>
	<outline>
		<contour>
			<point x="173" y="-11" type="line"/>
			<point x="275" y="0" type="line"/>
			<point x="275" y="265"/>
			<point x="343" y="439"/>
			<point x="492" y="636" type="curve"/>
			<point x="484" y="700" type="line"/>
			<point x="33" y="700" type="line"/>
			<point x="15" y="511" type="line"/>
			<point x="67" y="511" type="line"/>
			<point x="97" y="598"/>
			<point x="111" y="611"/>
			<point x="197" y="611" type="curve" smooth="yes"/>
			<point x="404" y="611" type="line"/>
			<point x="180" y="346"/>
			<point x="160" y="102"/>
			<point x="160" y="-1" type="curve"/>
		</contour>
	</outline>
</glyph>
<glyph name="less" format="2">
	<unicode hex="003C"/>
	<advance width="582"/>
	<outline>
		<contour>
			<point x="448" y="37" type="line"/>
			<point x="478" y="91" type="line"/>
			<point x="148" y="285" type="line"/>
			<point x="478" y="480" type="line"/>
			<point x="448" y="532" type="line"/>
			<point x="70" y="305" type="line"/>
			<point x="70" y="263" type="line"/>
		</contour>
	</outline>
</glyph>
<glyph name="equal" format="2">
	<unicode hex="003D"/>
	<advance width="582"/>
	<outline>
		<contour>
			<point x="77" y="362" type="line"/>
			<point x="505" y="362" type="line"/>
			<point x="505" y="425" type="line"/>
			<point x="77" y="425" type="line"/>
		</contour>
		<contour>
			<point x="77" y="182" type="line"/>
			<point x="505" y="182" type="line"/>
			<point x="505" y="245" type="line"/>
			<point x="77" y="245" type="line"/>
		</contour>
	</outline>
</glyph>
<glyph name="C" format="2">
	<unicode hex="0043"/>
	<advance width="699"/>
	<outline>
		<contour>
			<point x="385" y="-14" type="curve" smooth="yes"/>
			<point x="492" y="-14"/>
			<point x="591" y="42"/>
			<point x="645" y="133" type="curve"/>
			<point x="598" y="167" type="line"/>
			<point x="544" y="89"/>
			<point x="482" y="55"/>
			<point x="395" y="55" type="curve" smooth="yes"/>
			<point x="253" y="55"/>
			<point x="157" y="175"/>
			<point x="157" y="352" type="curve" smooth="yes"/>
			<point x="157" y="547"/>
			<point x="231" y="651"/>
			<point x="370" y="651" type="curve" smooth="yes"/>
			<point x="476" y="651"/>
			<point x="537" y="598"/>
			<point x="578" y="471" type="curve"/>
			<point x="632" y="483" type="line"/>
			<point x="593" y="716" type="line"/>
			<point x="544" y="716" type="line"/>
			<point x="534" y="653" type="line"/>
			<point x="494" y="693"/>
			<point x="437" y="714"/>
			<point x="368" y="714" type="curve" smooth="yes"/>
			<point x="178" y="714"/>
			<point x="50" y="568"/>
			<point x="50" y="351" type="curve" smooth="yes"/>
			<point x="50" y="131"/>
			<point x="183" y="-14"/>
		</contour>
	</outline>
	<anchor name="bottom" x="366" y="-30"/>
	<anchor name="top" x="367" y="730"/>
</glyph>
<glyph name="G" format="2">
	<unicode hex="0047"/>
	<advance width="751"/>
	<outline>
		<contour>
			<point x="371" y="-14" type="curve" smooth="yes"/>
			<point x="446" y="-14"/>
			<point x="513" y="6"/>
			<point x="566" y="44" type="curve"/>
			<point x="592" y="-3" type="line"/>
			<point x="635" y="-3" type="line"/>
			<point x="635" y="226" type="line" smooth="yes"/>
			<point x="635" y="261"/>
			<point x="640" y="273"/>
			<point x="665" y="277" type="curve" smooth="yes"/>
			<point x="718" y="286" type="line"/>
			<point x="718" y="334" type="line"/>
			<point x="447" y="334" type="line"/>
			<point x="447" y="286" type="line"/>
			<point x="507" y="277" type="line" smooth="yes"/>
			<point x="534" y="273"/>
			<point x="540" y="264"/>
			<point x="540" y="230" type="curve" smooth="yes"/>
			<point x="540" y="120" type="line"/>
			<point x="508" y="77"/>
			<point x="448" y="52"/>
			<point x="378" y="52" type="curve" smooth="yes"/>
			<point x="245" y="52"/>
			<point x="157" y="171"/>
			<point x="157" y="349" type="curve" smooth="yes"/>
			<point x="157" y="545"/>
			<point x="233" y="651"/>
			<point x="374" y="651" type="curve" smooth="yes"/>
			<point x="481" y="651"/>
			<point x="547" y="595"/>
			<point x="587" y="471" type="curve"/>
			<point x="642" y="483" type="line"/>
			<point x="596" y="716" type="line"/>
			<point x="547" y="716" type="line"/>
			<point x="537" y="653" type="line"/>
			<point x="498" y="692"/>
			<point x="437" y="714"/>
			<point x="368" y="714" type="curve" smooth="yes"/>
			<point x="176" y="714"/>
			<point x="50" y="566"/>
			<point x="50" y="340" type="curve" smooth="yes"/>
			<point x="50" y="128"/>
			<point x="179" y="-14"/>
		</contour>
	</outline>
	<anchor name="bottom" x="366" y="-30"/>
	<anchor name="top" x="367" y="730"/>
</glyph>
<glyph name="H" format="2">
	<unicode hex="0048"/>
	<advance width="839"/>
	<outline>
		<contour>
			<point x="62" y="0" type="line"/>
			<point x="338" y="0" type="line"/>
			<point x="338" y="48" type="line"/>
			<point x="282" y="57" type="line" smooth="yes"/>
			<point x="256" y="61"/>
			<point x="250" y="70"/>
			<point x="250" y="104" type="curve" smooth="yes"/>
			<point x="250" y="328" type="line"/>
			<point x="590" y="328" type="line"/>
			<point x="590" y="108" type="line" smooth="yes"/>
			<point x="590" y="71"/>
			<point x="584" y="61"/>
			<point x="559" y="57" type="curve" smooth="yes"/>
			<point x="502" y="48" type="line"/>
			<point x="502" y="0" type="line"/>
			<point x="777" y="0" type="line"/>
			<point x="777" y="48" type="line"/>
			<point x="722" y="57" type="line" smooth="yes"/>
			<point x="695" y="61"/>
			<point x="689" y="71"/>
			<point x="689" y="104" type="curve" smooth="yes"/>
			<point x="689" y="592" type="line" smooth="yes"/>
			<point x="689" y="629"/>
			<point x="695" y="639"/>
			<point x="720" y="643" type="curve" smooth="yes"/>
			<point x="777" y="652" type="line"/>
			<point x="777" y="700" type="line"/>
			<point x="502" y="700" type="line"/>
			<point x="502" y="652" type="line"/>
			<point x="557" y="643" type="line" smooth="yes"/>
			<point x="584" y="639"/>
			<point x="590" y="629"/>
			<point x="590" y="596" type="curve" smooth="yes"/>
			<point x="590" y="391" type="line"/>
			<point x="250" y="391" type="line"/>
			<point x="250" y="592" type="line" smooth="yes"/>
			<point x="250" y="629"/>
			<point x="256" y="639"/>
			<point x="280" y="643" type="curve" smooth="yes"/>
			<point x="338" y="652" type="line"/>
			<point x="338" y="700" type="line"/>
			<point x="62" y="700" type="line"/>
			<point x="62" y="652" type="line"/>
			<point x="118" y="643" type="line" smooth="yes"/>
			<point x="145" y="639"/>
			<point x="151" y="629"/>
			<point x="151" y="596" type="curve" smooth="yes"/>
			<point x="151" y="108" type="line" smooth="yes"/>
			<point x="151" y="71"/>
			<point x="145" y="61"/>
			<point x="120" y="57" type="curve" smooth="yes"/>
			<point x="62" y="48" type="line"/>
		</contour>
	</outline>
	<anchor name="bottom" x="419" y="-30"/>
	<anchor name="top" x="420" y="730"/>
</glyph>
<glyph name="I" format="2">
	<unicode hex="0049"/>
	<advance width="409"/>
	<outline>
		<contour>
			<point x="62" y="0" type="line"/>
			<point x="347" y="0" type="line"/>
			<point x="347" y="48" type="line"/>
			<point x="286" y="57" type="line" smooth="yes"/>
			<point x="260" y="61"/>
			<point x="254" y="70"/>
			<point x="254" y="104" type="curve" smooth="yes"/>
			<point x="254" y="592" type="line" smooth="yes"/>
			<point x="254" y="628"/>
			<point x="260" y="640"/>
			<point x="284" y="643" type="curve" smooth="yes"/>
			<point x="347" y="652" type="line"/>
			<point x="347" y="700" type="line"/>
			<point x="62" y="700" type="line"/>
			<point x="62" y="652" type="line"/>
			<point x="122" y="643" type="line" smooth="yes"/>
			<point x="149" y="639"/>
			<point x="155" y="630"/>
			<point x="155" y="596" type="curve" smooth="yes"/>
			<point x="155" y="108" type="line" smooth="yes"/>
			<point x="155" y="71"/>
			<point x="149" y="61"/>
			<point x="124" y="57" type="curve" smooth="yes"/>
			<point x="62" y="48" type="line"/>
		</contour>
	</outline>
	<anchor name="bottom" x="204" y="-30"/>
	<anchor name="top" x="204" y="730"/>
</glyph>
<glyph name="J" format="2">
	<unicode hex="004A"/>
	<advance width="557"/>
	<outline>
		<contour>
			<point x="219" y="-14" type="curve" smooth="yes"/>
			<point x="352" y="-14"/>
			<point x="429" y="73"/>
			<point x="429" y="224" type="curve" smooth="yes"/>
			<point x="429" y="592" type="line" smooth="yes"/>
			<point x="429" y="633"/>
			<point x="438" y="640"/>
			<point x="459" y="643" type="curve" smooth="yes"/>
			<point x="522" y="652" type="line"/>
			<point x="522" y="700" type="line"/>
			<point x="227" y="700" type="line"/>
			<point x="227" y="651" type="line"/>
			<point x="297" y="641" type="line" smooth="yes"/>
			<point x="324" y="637"/>
			<point x="330" y="629"/>
			<point x="330" y="594" type="curve" smooth="yes"/>
			<point x="330" y="201" type="line" smooth="yes"/>
			<point x="330" y="98"/>
			<point x="297" y="50"/>
			<point x="225" y="50" type="curve" smooth="yes"/>
			<point x="196" y="50"/>
			<point x="163" y="60"/>
			<point x="148" y="74" type="curve"/>
			<point x="172" y="114"/>
			<point x="178" y="128"/>
			<point x="178" y="145" type="curve" smooth="yes"/>
			<point x="178" y="173"/>
			<point x="155" y="190"/>
			<point x="115" y="190" type="curve" smooth="yes"/>
			<point x="72" y="190"/>
			<point x="40" y="155"/>
			<point x="40" y="108" type="curve" smooth="yes"/>
			<point x="40" y="37"/>
			<point x="114" y="-14"/>
		</contour>
	</outline>
	<anchor name="top" x="381" y="730"/>
</glyph>
<glyph name="L" format="2">
	<unicode hex="004C"/>
	<advance width="637"/>
	<outline>
		<contour>
			<point x="62" y="0" type="line"/>
			<point x="552" y="0" type="line"/>
			<point x="577" y="214" type="line"/>
			<point x="522" y="214" type="line"/>
			<point x="482" y="83"/>
			<point x="454" y="55"/>
			<point x="363" y="55" type="curve" smooth="yes"/>
			<point x="250" y="55" type="line"/>
			<point x="250" y="596" type="line" smooth="yes"/>
			<point x="250" y="630"/>
			<point x="256" y="638"/>
			<point x="282" y="642" type="curve" smooth="yes"/>
			<point x="348" y="652" type="line"/>
			<point x="348" y="700" type="line"/>
			<point x="62" y="700" type="line"/>
			<point x="62" y="652" type="line"/>
			<point x="118" y="643" type="line" smooth="yes"/>
			<point x="145" y="639"/>
			<point x="151" y="629"/>
			<point x="151" y="596" type="curve" smooth="yes"/>
			<point x="151" y="108" type="line" smooth="yes"/>
			<point x="151" y="71"/>
			<point x="145" y="61"/>
			<point x="120" y="57" type="curve" smooth="yes"/>
			<point x="62" y="48" type="line"/>
		</contour>
	</outline>
	<anchor name="bottom" x="331" y="-30"/>
	<anchor name="top" x="201" y="730"/>
</glyph>
<glyph name="P" format="2">
	<unicode hex="0050"/>
	<advance width="602"/>
	<outline>
		<contour>
			<point x="62" y="0" type="line"/>
			<point x="357" y="0" type="line"/>
			<point x="357" y="48" type="line"/>
			<point x="287" y="56" type="line" smooth="yes"/>
			<point x="258" y="59"/>
			<point x="250" y="71"/>
			<point x="250" y="106" type="curve" smooth="yes"/>
			<point x="250" y="282" type="line"/>
			<point x="260" y="279"/>
			<point x="293" y="277"/>
			<point x="329" y="277" type="curve" smooth="yes"/>
			<point x="477" y="277"/>
			<point x="577" y="368"/>
			<point x="577" y="502" type="curve" smooth="yes"/>
			<point x="577" y="634"/>
			<point x="488" y="700"/>
			<point x="308" y="700" type="curve" smooth="yes"/>
			<point x="62" y="700" type="line"/>
			<point x="62" y="652" type="line"/>
			<point x="118" y="643" type="line" smooth="yes"/>
			<point x="145" y="639"/>
			<point x="151" y="629"/>
			<point x="151" y="596" type="curve" smooth="yes"/>
			<point x="151" y="108" type="line" smooth="yes"/>
			<point x="151" y="71"/>
			<point x="145" y="61"/>
			<point x="120" y="57" type="curve" smooth="yes"/>
			<point x="62" y="48" type="line"/>
		</contour>
		<contour>
			<point x="308" y="331" type="curve" smooth="yes"/>
			<point x="284" y="331"/>
			<point x="260" y="333"/>
			<point x="250" y="336" type="curve"/>
			<point x="250" y="646" type="line"/>
			<point x="301" y="646" type="line" smooth="yes"/>
			<point x="418" y="646"/>
			<point x="470" y="601"/>
			<point x="470" y="499" type="curve" smooth="yes"/>
			<point x="470" y="388"/>
			<point x="415" y="331"/>
		</contour>
	</outline>
</glyph>
<glyph name="Q" format="2">
	<unicode hex="0051"/>
	<advance width="760"/>
	<outline>
		<contour>
			<point x="689" y="-191" type="curve" smooth="yes"/>
			<point x="759" y="-191"/>
			<point x="811" y="-159"/>
			<point x="878" y="-75" type="curve"/>
			<point x="858" y="-45" type="line"/>
			<point x="808" y="-80"/>
			<point x="769" y="-94"/>
			<point x="717" y="-94" type="curve" smooth="yes"/>
			<point x="668" y="-94"/>
			<point x="623" y="-58"/>
			<point x="556" y="36" type="curve"/>
			<point x="655" y="100"/>
			<point x="710" y="219"/>
			<point x="710" y="368" type="curve" smooth="yes"/>
			<point x="710" y="576"/>
			<point x="581" y="714"/>
			<point x="387" y="714" type="curve" smooth="yes"/>
			<point x="181" y="714"/>
			<point x="50" y="567"/>
			<point x="50" y="336" type="curve" smooth="yes"/>
			<point x="50" y="126"/>
			<point x="181" y="-14"/>
			<point x="378" y="-14" type="curve" smooth="yes"/>
			<point x="410" y="-14"/>
			<point x="441" y="-10"/>
			<point x="470" y="-2" type="curve"/>
			<point x="540" y="-137"/>
			<point x="603" y="-191"/>
		</contour>
		<contour>
			<point x="390" y="53" type="curve" smooth="yes"/>
			<point x="310" y="53"/>
			<point x="246" y="88"/>
			<point x="207" y="149" type="curve"/>
			<point x="234" y="181"/>
			<point x="260" y="197"/>
			<point x="297" y="197" type="curve" smooth="yes"/>
			<point x="347" y="197"/>
			<point x="389" y="155"/>
			<point x="439" y="57" type="curve"/>
			<point x="429" y="54"/>
			<point x="414" y="53"/>
		</contour>
		<contour>
			<point x="517" y="94" type="curve"/>
			<point x="437" y="205"/>
			<point x="376" y="253"/>
			<point x="310" y="253" type="curve" smooth="yes"/>
			<point x="258" y="253"/>
			<point x="225" y="234"/>
			<point x="185" y="192" type="curve"/>
			<point x="165" y="238"/>
			<point x="156" y="294"/>
			<point x="156" y="357" type="curve" smooth="yes"/>
			<point x="156" y="544"/>
			<point x="235" y="650"/>
			<point x="374" y="650" type="curve" smooth="yes"/>
			<point x="517" y="650"/>
			<point x="601" y="538"/>
			<point x="601" y="349" type="curve" smooth="yes"/>
			<point x="601" y="229"/>
			<point x="572" y="141"/>
		</contour>
	</outline>
</glyph>
<glyph name="S" format="2">
	<unicode hex="0053"/>
	<advance width="598"/>
	<outline>
		<contour>
			<point x="316" y="-14" type="curve" smooth="yes"/>
			<point x="446" y="-14"/>
			<point x="540" y="75"/>
			<point x="540" y="200" type="curve" smooth="yes"/>
			<point x="540" y="303"/>
			<point x="486" y="357"/>
			<point x="333" y="409" type="curve" smooth="yes"/>
			<point x="217" y="448"/>
			<point x="178" y="483"/>
			<point x="178" y="549" type="curve" smooth="yes"/>
			<point x="178" y="615"/>
			<point x="226" y="659"/>
			<point x="298" y="659" type="curve" smooth="yes"/>
			<point x="383" y="659"/>
			<point x="438" y="609"/>
			<point x="469" y="504" type="curve"/>
			<point x="525" y="512" type="line"/>
			<point x="503" y="714" type="line"/>
			<point x="456" y="714" type="line"/>
			<point x="443" y="662" type="line"/>
			<point x="406" y="694"/>
			<point x="349" y="714"/>
			<point x="295" y="714" type="curve" smooth="yes"/>
			<point x="167" y="714"/>
			<point x="81" y="636"/>
			<point x="81" y="521" type="curve" smooth="yes"/>
			<point x="81" y="416"/>
			<point x="135" y="362"/>
			<point x="286" y="314" type="curve" smooth="yes"/>
			<point x="402" y="277"/>
			<point x="443" y="238"/>
			<point x="443" y="165" type="curve" smooth="yes"/>
			<point x="443" y="92"/>
			<point x="396" y="50"/>
			<point x="313" y="50" type="curve" smooth="yes"/>
			<point x="221" y="50"/>
			<point x="153" y="106"/>
			<point x="113" y="215" type="curve"/>
			<point x="56" y="210" type="line"/>
			<point x="76" y="-6" type="line"/>
			<point x="120" y="-6" type="line"/>
			<point x="136" y="53" type="line"/>
			<point x="178" y="12"/>
			<point x="248" y="-14"/>
		</contour>
	</outline>
	<anchor name="bottom" x="302" y="-30"/>
	<anchor name="top" x="298" y="730"/>
</glyph>
<glyph name="V" format="2">
	<unicode hex="0056"/>
	<advance width="739"/>
	<outline>
		<contour>
			<point x="314" y="0" type="line"/>
			<point x="420" y="0" type="line"/>
			<point x="624" y="590" type="line" smooth="yes"/>
			<point x="639" y="633"/>
			<point x="645" y="640"/>
			<point x="668" y="644" type="curve" smooth="yes"/>
			<point x="717" y="652" type="line"/>
			<point x="717" y="700" type="line"/>
			<point x="480" y="700" type="line"/>
			<point x="480" y="653" type="line"/>
			<point x="529" y="642" type="line" smooth="yes"/>
			<point x="557" y="636"/>
			<point x="563" y="623"/>
			<point x="551" y="589" type="curve" smooth="yes"/>
			<point x="383" y="86" type="line"/>
			<point x="379" y="86" type="line"/>
			<point x="211" y="595" type="line" smooth="yes"/>
			<point x="197" y="637"/>
			<point x="210" y="642"/>
			<point x="231" y="645" type="curve" smooth="yes"/>
			<point x="286" y="652" type="line"/>
			<point x="286" y="700" type="line"/>
			<point x="22" y="700" type="line"/>
			<point x="22" y="649" type="line"/>
			<point x="62" y="641" type="line" smooth="yes"/>
			<point x="88" y="636"/>
			<point x="93" y="629"/>
			<point x="107" y="591" type="curve" smooth="yes"/>
		</contour>
	</outline>
	<anchor name="top" x="376" y="730"/>
</glyph>
<glyph name="Y" format="2">
	<unicode hex="0059"/>
	<advance width="716"/>
	<outline>
		<contour>
			<point x="213" y="0" type="line"/>
			<point x="498" y="0" type="line"/>
			<point x="498" y="48" type="line"/>
			<point x="437" y="57" type="line" smooth="yes"/>
			<point x="411" y="61"/>
			<point x="405" y="70"/>
			<point x="405" y="104" type="curve" smooth="yes"/>
			<point x="405" y="292" type="line"/>
			<point x="588" y="589" type="line" smooth="yes"/>
			<point x="614" y="631"/>
			<point x="624" y="640"/>
			<point x="645" y="644" type="curve" smooth="yes"/>
			<point x="694" y="652" type="line"/>
			<point x="694" y="700" type="line"/>
			<point x="453" y="700" type="line"/>
			<point x="453" y="653" type="line"/>
			<point x="499" y="642" type="line" smooth="yes"/>
			<point x="530" y="635"/>
			<point x="534" y="618"/>
			<point x="517" y="590" type="curve" smooth="yes"/>
			<point x="378" y="358" type="line"/>
			<point x="373" y="358" type="line"/>
			<point x="226" y="595" type="line" smooth="yes"/>
			<point x="208" y="624"/>
			<point x="216" y="641"/>
			<point x="246" y="645" type="curve" smooth="yes"/>
			<point x="301" y="652" type="line"/>
			<point x="301" y="700" type="line"/>
			<point x="22" y="700" type="line"/>
			<point x="22" y="649" type="line"/>
			<point x="59" y="642" type="line" smooth="yes"/>
			<point x="90" y="636"/>
			<point x="101" y="619"/>
			<point x="119" y="591" type="curve" smooth="yes"/>
			<point x="306" y="293" type="line"/>
			<point x="306" y="108" type="line" smooth="yes"/>
			<point x="306" y="71"/>
			<point x="300" y="61"/>
			<point x="275" y="57" type="curve" smooth="yes"/>
			<point x="213" y="48" type="line"/>
		</contour>
	</outline>
	<anchor name="bottom" x="355" y="-30"/>
	<anchor name="top" x="375" y="730"/>
</glyph>
<glyph name="bracketleft" format="2">
	<unicode hex="005B"/>
	<advance width="333"/>
	<outline>
		<contour>
			<point x="105" y="-212" type="line"/>
			<point x="289" y="-212" type="line"/>
			<point x="293" y="-163" type="line"/>
			<point x="216" y="-157" type="line" smooth="yes"/>
			<point x="192" y="-155"/>
			<point x="188" y="-148"/>
			<point x="188" y="-111" type="curve" smooth="yes"/>
			<point x="188" y="711" type="line" smooth="yes"/>
			<point x="188" y="748"/>
			<point x="192" y="755"/>
			<point x="216" y="757" type="curve" smooth="yes"/>
			<point x="293" y="763" type="line"/>
			<point x="289" y="812" type="line"/>
			<point x="105" y="812" type="line"/>
		</contour>
	</outline>
</glyph>
<glyph name="a" format="2">
	<unicode hex="0061"/>
	<advance width="539"/>
	<outline>
		<contour>
			<point x="192" y="-14" type="curve" smooth="yes"/>
			<point x="259" y="-14"/>
			<point x="309" y="15"/>
			<point x="347" y="75" type="curve"/>
			<point x="353" y="16"/>
			<point x="385" y="-14"/>
			<point x="442" y="-14" type="curve" smooth="yes"/>
			<point x="471" y="-14"/>
			<point x="510" y="3"/>
			<point x="534" y="26" type="curve"/>
			<point x="524" y="64" type="line"/>
			<point x="505" y="58"/>
			<point x="491" y="56"/>
			<point x="477" y="56" type="curve" smooth="yes"/>
			<point x="447" y="56"/>
			<point x="432" y="70"/>
			<point x="432" y="100" type="curve" smooth="yes"/>
			<point x="432" y="341" type="line" smooth="yes"/>
			<point x="432" y="463"/>
			<point x="371" y="521"/>
			<point x="245" y="521" type="curve" smooth="yes"/>
			<point x="143" y="521"/>
			<point x="54" y="461"/>
			<point x="54" y="391" type="curve" smooth="yes"/>
			<point x="54" y="358"/>
			<point x="75" y="339"/>
			<point x="111" y="339" type="curve" smooth="yes"/>
			<point x="141" y="339"/>
			<point x="165" y="359"/>
			<point x="165" y="384" type="curve" smooth="yes"/>
			<point x="165" y="393"/>
			<point x="157" y="410"/>
			<point x="139" y="440" type="curve"/>
			<point x="155" y="457"/>
			<point x="195" y="470"/>
			<point x="231" y="470" type="curve" smooth="yes"/>
			<point x="306" y="470"/>
			<point x="339" y="434"/>
			<point x="339" y="352" type="curve" smooth="yes"/>
			<point x="339" y="284" type="line"/>
			<point x="126" y="273"/>
			<point x="52" y="231"/>
			<point x="52" y="121" type="curve" smooth="yes"/>
			<point x="52" y="40"/>
			<point x="108" y="-14"/>
		</contour>
		<contour>
			<point x="230" y="55" type="curve" smooth="yes"/>
			<point x="180" y="55"/>
			<point x="149" y="84"/>
			<point x="149" y="132" type="curve" smooth="yes"/>
			<point x="149" y="200"/>
			<point x="210" y="232"/>
			<point x="339" y="232" type="curve"/>
			<point x="339" y="161" type="line" smooth="yes"/>
			<point x="339" y="101"/>
			<point x="292" y="55"/>
		</contour>
	</outline>
	<anchor name="bottom" x="253" y="-30"/>
	<anchor name="top" x="248" y="550"/>
</glyph>
<glyph name="e" format="2">
	<unicode hex="0065"/>
	<advance width="519"/>
	<outline>
		<contour>
			<point x="285" y="-14" type="curve" smooth="yes"/>
			<point x="360" y="-14"/>
			<point x="436" y="24"/>
			<point x="481" y="85" type="curve"/>
			<point x="446" y="120" type="line"/>
			<point x="409" y="82"/>
			<point x="359" y="60"/>
			<point x="308" y="60" type="curve" smooth="yes"/>
			<point x="211" y="60"/>
			<point x="151" y="129"/>
			<point x="147" y="246" type="curve"/>
			<point x="460" y="246" type="line"/>
			<point x="469" y="282"/>
			<point x="474" y="316"/>
			<point x="474" y="344" type="curve" smooth="yes"/>
			<point x="474" y="450"/>
			<point x="400" y="521"/>
			<point x="290" y="521" type="curve" smooth="yes"/>
			<point x="143" y="521"/>
			<point x="46" y="412"/>
			<point x="46" y="247" type="curve" smooth="yes"/>
			<point x="46" y="88"/>
			<point x="139" y="-14"/>
		</contour>
		<contour>
			<point x="147" y="302" type="line"/>
			<point x="157" y="410"/>
			<point x="203" y="468"/>
			<point x="279" y="468" type="curve" smooth="yes"/>
			<point x="345" y="468"/>
			<point x="380" y="426"/>
			<point x="380" y="348" type="curve" smooth="yes"/>
			<point x="380" y="330"/>
			<point x="379" y="315"/>
			<point x="377" y="302" type="curve"/>
		</contour>
	</outline>
	<anchor name="bottom" x="279" y="-30"/>
	<anchor name="top" x="278" y="550"/>
</glyph>
<glyph name="f" format="2">
	<unicode hex="0066"/>
	<advance width="387"/>
	<outline>
		<contour>
			<point x="41" y="0" type="line"/>
			<point x="341" y="0" type="line"/>
			<point x="341" y="48" type="line"/>
			<point x="254" y="59" type="line" smooth="yes"/>
			<point x="229" y="62"/>
			<point x="222" y="73"/>
			<point x="222" y="104" type="curve" smooth="yes"/>
			<point x="222" y="444" type="line"/>
			<point x="368" y="444" type="line"/>
			<point x="368" y="507" type="line"/>
			<point x="222" y="507" type="line"/>
			<point x="222" y="599" type="line" smooth="yes"/>
			<point x="222" y="690"/>
			<point x="248" y="730"/>
			<point x="309" y="730" type="curve" smooth="yes"/>
			<point x="327" y="730"/>
			<point x="350" y="725"/>
			<point x="363" y="718" type="curve"/>
			<point x="343" y="686"/>
			<point x="338" y="674"/>
			<point x="338" y="659" type="curve" smooth="yes"/>
			<point x="338" y="635"/>
			<point x="359" y="620"/>
			<point x="393" y="620" type="curve" smooth="yes"/>
			<point x="428" y="620"/>
			<point x="453" y="648"/>
			<point x="453" y="686" type="curve" smooth="yes"/>
			<point x="453" y="743"/>
			<point x="397" y="782"/>
			<point x="313" y="782" type="curve" smooth="yes"/>
			<point x="197" y="782"/>
			<point x="129" y="695"/>
			<point x="129" y="545" type="curve" smooth="yes"/>
			<point x="129" y="504" type="line"/>
			<point x="49" y="494" type="line"/>
			<point x="49" y="444" type="line"/>
			<point x="129" y="444" type="line"/>
			<point x="129" y="108" type="line" smooth="yes"/>
			<point x="129" y="71"/>
			<point x="123" y="61"/>
			<point x="98" y="57" type="curve" smooth="yes"/>
			<point x="41" y="48" type="line"/>
		</contour>
	</outline>
</glyph>
<glyph name="g" format="2">
	<unicode hex="0067"/>
	<advance width="558"/>
	<outline>
		<contour>
			<point x="254" y="-230" type="curve" smooth="yes"/>
			<point x="422" y="-230"/>
			<point x="519" y="-162"/>
			<point x="519" y="-46" type="curve" smooth="yes"/>
			<point x="519" y="43"/>
			<point x="464" y="83"/>
			<point x="342" y="83" type="curve" smooth="yes"/>
			<point x="214" y="83" type="line" smooth="yes"/>
			<point x="164" y="83"/>
			<point x="144" y="95"/>
			<point x="144" y="124" type="curve" smooth="yes"/>
			<point x="144" y="142"/>
			<point x="152" y="157"/>
			<point x="176" y="184" type="curve"/>
			<point x="192" y="178"/>
			<point x="227" y="174"/>
			<point x="257" y="174" type="curve" smooth="yes"/>
			<point x="380" y="174"/>
			<point x="459" y="242"/>
			<point x="459" y="348" type="curve" smooth="yes"/>
			<point x="459" y="391"/>
			<point x="446" y="428"/>
			<point x="421" y="458" type="curve"/>
			<point x="430" y="484"/>
			<point x="438" y="502"/>
			<point x="450" y="521" type="curve"/>
			<point x="460" y="500" type="line" smooth="yes"/>
			<point x="469" y="482"/>
			<point x="482" y="473"/>
			<point x="500" y="473" type="curve" smooth="yes"/>
			<point x="530" y="473"/>
			<point x="557" y="500"/>
			<point x="557" y="529" type="curve" smooth="yes"/>
			<point x="557" y="560"/>
			<point x="529" y="582"/>
			<point x="490" y="582" type="curve" smooth="yes"/>
			<point x="445" y="582"/>
			<point x="407" y="548"/>
			<point x="386" y="488" type="curve"/>
			<point x="351" y="509"/>
			<point x="304" y="521"/>
			<point x="256" y="521" type="curve" smooth="yes"/>
			<point x="131" y="521"/>
			<point x="49" y="451"/>
			<point x="49" y="343" type="curve" smooth="yes"/>
			<point x="49" y="277"/>
			<point x="74" y="231"/>
			<point x="123" y="206" type="curve"/>
			<point x="123" y="203" type="line"/>
			<point x="72" y="150"/>
			<point x="58" y="125"/>
			<point x="58" y="89" type="curve" smooth="yes"/>
			<point x="58" y="55"/>
			<point x="83" y="22"/>
			<point x="116" y="12" type="curve"/>
			<point x="116" y="8" type="line"/>
			<point x="53" y="-21"/>
			<point x="25" y="-56"/>
			<point x="25" y="-106" type="curve" smooth="yes"/>
			<point x="25" y="-188"/>
			<point x="101" y="-230"/>
		</contour>
		<contour>
			<point x="262" y="-167" type="curve" smooth="yes"/>
			<point x="158" y="-167"/>
			<point x="117" y="-145"/>
			<point x="117" y="-91" type="curve" smooth="yes"/>
			<point x="117" y="-58"/>
			<point x="132" y="-31"/>
			<point x="163" y="-8" type="curve"/>
			<point x="331" y="-8" type="line" smooth="yes"/>
			<point x="393" y="-8"/>
			<point x="424" y="-29"/>
			<point x="424" y="-70" type="curve" smooth="yes"/>
			<point x="424" y="-130"/>
			<point x="364" y="-167"/>
		</contour>
		<contour>
			<point x="255" y="227" type="curve" smooth="yes"/>
			<point x="187" y="227"/>
			<point x="144" y="274"/>
			<point x="144" y="348" type="curve" smooth="yes"/>
			<point x="144" y="428"/>
			<point x="180" y="470"/>
			<point x="249" y="470" type="curve" smooth="yes"/>
			<point x="322" y="470"/>
			<point x="364" y="424"/>
			<point x="364" y="345" type="curve" smooth="yes"/>
			<point x="364" y="270"/>
			<point x="325" y="227"/>
		</contour>
	</outline>
	<anchor name="top" x="259" y="550"/>
</glyph>
<glyph name="j" format="2">
	<unicode hex="006A"/>
	<advance width="309"/>
	<outline>
		<contour>
			<point x="62" y="-229" type="line"/>
			<point x="176" y="-167"/>
			<point x="214" y="-87"/>
			<point x="214" y="95" type="curve" smooth="yes"/>
			<point x="214" y="505" type="line"/>
			<point x="202" y="510" type="line"/>
			<point x="45" y="502" type="line"/>
			<point x="37" y="452" type="line"/>
			<point x="85" y="445" type="line" smooth="yes"/>
			<point x="115" y="441"/>
			<point x="121" y="430"/>
			<point x="121" y="382" type="curve" smooth="yes"/>
			<point x="121" y="28" type="line" smooth="yes"/>
			<point x="121" y="-77"/>
			<point x="96" y="-139"/>
			<point x="34" y="-188" type="curve"/>
		</contour>
		<contour>
			<point x="153" y="620" type="curve" smooth="yes"/>
			<point x="193" y="620"/>
			<point x="221" y="648"/>
			<point x="221" y="687" type="curve" smooth="yes"/>
			<point x="221" y="726"/>
			<point x="193" y="753"/>
			<point x="153" y="753" type="curve" smooth="yes"/>
			<point x="114" y="753"/>
			<point x="86" y="725"/>
			<point x="86" y="686" type="curve" smooth="yes"/>
			<point x="86" y="647"/>
			<point x="114" y="620"/>
		</contour>
	</outline>
</glyph>
<glyph name="l" format="2">
	<unicode hex="006C"/>
	<advance width="335"/>
	<outline>
		<contour>
			<point x="42" y="0" type="line"/>
			<point x="311" y="0" type="line"/>
			<point x="311" y="48" type="line"/>
			<point x="255" y="58" type="line" smooth="yes"/>
			<point x="225" y="63"/>
			<point x="223" y="79"/>
			<point x="223" y="105" type="curve" smooth="yes"/>
			<point x="223" y="755" type="line"/>
			<point x="212" y="766" type="line"/>
			<point x="49" y="761" type="line"/>
			<point x="43" y="710" type="line"/>
			<point x="87" y="703" type="line" smooth="yes"/>
			<point x="124" y="697"/>
			<point x="130" y="689"/>
			<point x="130" y="643" type="curve" smooth="yes"/>
			<point x="130" y="109" type="line" smooth="yes"/>
			<point x="130" y="72"/>
			<point x="126" y="62"/>
			<point x="99" y="58" type="curve" smooth="yes"/>
			<point x="42" y="49" type="line"/>
		</contour>
	</outline>
	<anchor name="bottom" x="176" y="-30"/>
	<anchor name="top" x="146" y="780"/>
</glyph>
<glyph name="m" format="2">
	<unicode hex="006D"/>
	<advance width="970"/>
	<outline>
		<contour>
			<point x="55" y="0" type="line"/>
			<point x="292" y="0" type="line"/>
			<point x="292" y="46" type="line"/>
			<point x="247" y="57" type="line" smooth="yes"/>
			<point x="227" y="62"/>
			<point x="222" y="69"/>
			<point x="222" y="100" type="curve" smooth="yes"/>
			<point x="222" y="310" type="line" smooth="yes"/>
			<point x="222" y="393"/>
			<point x="275" y="449"/>
			<point x="354" y="449" type="curve" smooth="yes"/>
			<point x="424" y="449"/>
			<point x="448" y="416"/>
			<point x="448" y="321" type="curve" smooth="yes"/>
			<point x="448" y="96" type="line" smooth="yes"/>
			<point x="448" y="66"/>
			<point x="443" y="60"/>
			<point x="418" y="54" type="curve" smooth="yes"/>
			<point x="382" y="46" type="line"/>
			<point x="382" y="0" type="line"/>
			<point x="612" y="0" type="line"/>
			<point x="612" y="46" type="line"/>
			<point x="566" y="57" type="line" smooth="yes"/>
			<point x="546" y="62"/>
			<point x="542" y="69"/>
			<point x="542" y="100" type="curve" smooth="yes"/>
			<point x="542" y="310" type="line" smooth="yes"/>
			<point x="542" y="393"/>
			<point x="595" y="449"/>
			<point x="674" y="449" type="curve" smooth="yes"/>
			<point x="743" y="449"/>
			<point x="768" y="415"/>
			<point x="768" y="321" type="curve" smooth="yes"/>
			<point x="768" y="96" type="line" smooth="yes"/>
			<point x="768" y="66"/>
			<point x="763" y="60"/>
			<point x="738" y="54" type="curve" smooth="yes"/>
			<point x="702" y="46" type="line"/>
			<point x="702" y="0" type="line"/>
			<point x="939" y="0" type="line"/>
			<point x="939" y="47" type="line"/>
			<point x="892" y="55" type="line" smooth="yes"/>
			<point x="866" y="59"/>
			<point x="861" y="67"/>
			<point x="861" y="96" type="curve" smooth="yes"/>
			<point x="861" y="350" type="line" smooth="yes"/>
			<point x="861" y="460"/>
			<point x="805" y="521"/>
			<point x="703" y="521" type="curve" smooth="yes"/>
			<point x="634" y="521"/>
			<point x="565" y="478"/>
			<point x="533" y="416" type="curve"/>
			<point x="513" y="485"/>
			<point x="462" y="521"/>
			<point x="383" y="521" type="curve" smooth="yes"/>
			<point x="317" y="521"/>
			<point x="250" y="480"/>
			<point x="214" y="418" type="curve"/>
			<point x="211" y="418" type="line"/>
			<point x="204" y="507" type="line"/>
			<point x="192" y="514" type="line"/>
			<point x="53" y="503" type="line"/>
			<point x="46" y="455" type="line"/>
			<point x="95" y="448" type="line" smooth="yes"/>
			<point x="124" y="444"/>
			<point x="129" y="434"/>
			<point x="129" y="386" type="curve" smooth="yes"/>
			<point x="129" y="104" type="line" smooth="yes"/>
			<point x="129" y="69"/>
			<point x="124" y="60"/>
			<point x="103" y="56" type="curve" smooth="yes"/>
			<point x="55" y="47" type="line"/>
		</contour>
	</outline>
	<anchor name="bottom" x="494" y="-30"/>
</glyph>
<glyph name="p" format="2">
	<unicode hex="0070"/>
	<advance width="617"/>
	<outline>
		<contour>
			<point x="34" y="-216" type="line"/>
			<point x="297" y="-216" type="line"/>
			<point x="297" y="-169" type="line"/>
			<point x="236" y="-159" type="line" smooth="yes"/>
			<point x="212" y="-155"/>
			<point x="204" y="-142"/>
			<point x="204" y="-110" type="curve" smooth="yes"/>
			<point x="204" y="19" type="line"/>
			<point x="235" y="-1"/>
			<point x="287" y="-14"/>
			<point x="337" y="-14" type="curve" smooth="yes"/>
			<point x="485" y="-14"/>
			<point x="571" y="90"/>
			<point x="571" y="271" type="curve" smooth="yes"/>
			<point x="571" y="427"/>
			<point x="498" y="521"/>
			<point x="377" y="521" type="curve" smooth="yes"/>
			<point x="300" y="521"/>
			<point x="243" y="489"/>
			<point x="196" y="418" type="curve"/>
			<point x="193" y="418" type="line"/>
			<point x="187" y="508" type="line"/>
			<point x="173" y="514" type="line"/>
			<point x="36" y="504" type="line"/>
			<point x="28" y="455" type="line"/>
			<point x="74" y="449" type="line" smooth="yes"/>
			<point x="105" y="445"/>
			<point x="111" y="434"/>
			<point x="111" y="384" type="curve" smooth="yes"/>
			<point x="111" y="-113" type="line" smooth="yes"/>
			<point x="111" y="-145"/>
			<point x="102" y="-157"/>
			<point x="82" y="-160" type="curve" smooth="yes"/>
			<point x="34" y="-168" type="line"/>
		</contour>
		<contour>
			<point x="330" y="52" type="curve" smooth="yes"/>
			<point x="283" y="52"/>
			<point x="231" y="70"/>
			<point x="204" y="95" type="curve"/>
			<point x="204" y="303" type="line" smooth="yes"/>
			<point x="204" y="394"/>
			<point x="257" y="450"/>
			<point x="345" y="450" type="curve" smooth="yes"/>
			<point x="428" y="450"/>
			<point x="470" y="385"/>
			<point x="470" y="257" type="curve" smooth="yes"/>
			<point x="470" y="128"/>
			<point x="418" y="52"/>
		</contour>
	</outline>
</glyph>
<glyph name="u" format="2">
	<unicode hex="0075"/>
	<advance width="634"/>
	<outline>
		<contour>
			<point x="265" y="-14" type="curve" smooth="yes"/>
			<point x="330" y="-14"/>
			<point x="380" y="13"/>
			<point x="432" y="75" type="curve"/>
			<point x="435" y="75" type="line"/>
			<point x="449" y="-6" type="line"/>
			<point x="604" y="0" type="line"/>
			<point x="604" y="47" type="line"/>
			<point x="554" y="56" type="line" smooth="yes"/>
			<point x="528" y="61"/>
			<point x="522" y="69"/>
			<point x="522" y="101" type="curve" smooth="yes"/>
			<point x="522" y="507" type="line"/>
			<point x="510" y="514" type="line"/>
			<point x="358" y="503" type="line"/>
			<point x="350" y="455" type="line"/>
			<point x="395" y="448" type="line" smooth="yes"/>
			<point x="425" y="443"/>
			<point x="429" y="433"/>
			<point x="429" y="386" type="curve" smooth="yes"/>
			<point x="429" y="197" type="line" smooth="yes"/>
			<point x="429" y="112"/>
			<point x="377" y="58"/>
			<point x="294" y="58" type="curve" smooth="yes"/>
			<point x="221" y="58"/>
			<point x="198" y="89"/>
			<point x="198" y="186" type="curve" smooth="yes"/>
			<point x="198" y="507" type="line"/>
			<point x="186" y="514" type="line"/>
			<point x="35" y="503" type="line"/>
			<point x="27" y="455" type="line"/>
			<point x="71" y="448" type="line" smooth="yes"/>
			<point x="100" y="443"/>
			<point x="105" y="434"/>
			<point x="105" y="386" type="curve" smooth="yes"/>
			<point x="105" y="157" type="line" smooth="yes"/>
			<point x="105" y="45"/>
			<point x="160" y="-14"/>
		</contour>
	</outline>
	<anchor name="bottom" x="315" y="-30"/>
	<anchor name="top" x="298" y="550"/>
</glyph>
<glyph name="v" format="2">
	<unicode hex="0076"/>
	<advance width="592"/>
	<outline>
		<contour>
			<point x="246" y="0" type="line"/>
			<point x="342" y="0" type="line"/>
			<point x="497" y="398" type="line" smooth="yes"/>
			<point x="513" y="440"/>
			<point x="520" y="446"/>
			<point x="543" y="452" type="curve" smooth="yes"/>
			<point x="580" y="460" type="line"/>
			<point x="580" y="507" type="line"/>
			<point x="372" y="507" type="line"/>
			<point x="362" y="461" type="line"/>
			<point x="406" y="451" type="line" smooth="yes"/>
			<point x="437" y="444"/>
			<point x="441" y="429"/>
			<point x="429" y="397" type="curve" smooth="yes"/>
			<point x="314" y="83" type="line"/>
			<point x="309" y="83" type="line"/>
			<point x="193" y="404" type="line" smooth="yes"/>
			<point x="181" y="438"/>
			<point x="185" y="450"/>
			<point x="212" y="454" type="curve" smooth="yes"/>
			<point x="260" y="461" type="line"/>
			<point x="260" y="507" type="line"/>
			<point x="22" y="507" type="line"/>
			<point x="12" y="458" type="line"/>
			<point x="47" y="450" type="line" smooth="yes"/>
			<point x="75" y="444"/>
			<point x="78" y="433"/>
			<point x="91" y="399" type="curve" smooth="yes"/>
		</contour>
	</outline>
	<anchor name="top" x="313" y="550"/>
</glyph>
<glyph name="w" format="2">
	<unicode hex="0077"/>
	<advance width="860"/>
	<outline>
		<contour>
			<point x="209" y="0" type="line"/>
			<point x="319" y="0" type="line"/>
			<point x="430" y="412" type="line"/>
			<point x="435" y="412" type="line"/>
			<point x="544" y="0" type="line"/>
			<point x="649" y="0" type="line"/>
			<point x="770" y="398" type="line" smooth="yes"/>
			<point x="782" y="438"/>
			<point x="790" y="446"/>
			<point x="816" y="452" type="curve" smooth="yes"/>
			<point x="853" y="460" type="line"/>
			<point x="853" y="507" type="line"/>
			<point x="647" y="507" type="line"/>
			<point x="638" y="461" type="line"/>
			<point x="681" y="451" type="line" smooth="yes"/>
			<point x="709" y="444"/>
			<point x="714" y="433"/>
			<point x="704" y="397" type="curve" smooth="yes"/>
			<point x="617" y="85" type="line"/>
			<point x="612" y="85" type="line"/>
			<point x="500" y="507" type="line"/>
			<point x="393" y="507" type="line"/>
			<point x="277" y="83" type="line"/>
			<point x="272" y="83" type="line"/>
			<point x="185" y="404" type="line" smooth="yes"/>
			<point x="175" y="442"/>
			<point x="178" y="450"/>
			<point x="204" y="454" type="curve" smooth="yes"/>
			<point x="252" y="461" type="line"/>
			<point x="252" y="507" type="line"/>
			<point x="17" y="507" type="line"/>
			<point x="7" y="458" type="line"/>
			<point x="42" y="450" type="line" smooth="yes"/>
			<point x="70" y="444"/>
			<point x="75" y="433"/>
			<point x="86" y="399" type="curve" smooth="yes"/>
		</contour>
	</outline>
	<anchor name="top" x="446" y="550"/>
</glyph>
<glyph name="x" format="2">
	<unicode hex="0078"/>
	<advance width="567"/>
	<outline>
		<contour>
			<point x="9" y="0" type="line"/>
			<point x="232" y="0" type="line"/>
			<point x="232" y="46" type="line"/>
			<point x="188" y="56" type="line" smooth="yes"/>
			<point x="159" y="63"/>
			<point x="163" y="74"/>
			<point x="180" y="96" type="curve" smooth="yes"/>
			<point x="264" y="205" type="line"/>
			<point x="352" y="97" type="line" smooth="yes"/>
			<point x="373" y="71"/>
			<point x="370" y="56"/>
			<point x="344" y="53" type="curve" smooth="yes"/>
			<point x="299" y="47" type="line"/>
			<point x="299" y="0" type="line"/>
			<point x="564" y="0" type="line"/>
			<point x="564" y="49" type="line"/>
			<point x="526" y="55" type="line" smooth="yes"/>
			<point x="500" y="59"/>
			<point x="482" y="72"/>
			<point x="457" y="104" type="curve" smooth="yes"/>
			<point x="328" y="264" type="line"/>
			<point x="441" y="406" type="line" smooth="yes"/>
			<point x="467" y="439"/>
			<point x="479" y="446"/>
			<point x="503" y="452" type="curve" smooth="yes"/>
			<point x="541" y="460" type="line"/>
			<point x="541" y="507" type="line"/>
			<point x="336" y="507" type="line"/>
			<point x="326" y="461" type="line"/>
			<point x="364" y="451" type="line" smooth="yes"/>
			<point x="394" y="443"/>
			<point x="393" y="435"/>
			<point x="372" y="407" type="curve" smooth="yes"/>
			<point x="295" y="306" type="line"/>
			<point x="211" y="411" type="line" smooth="yes"/>
			<point x="188" y="440"/>
			<point x="195" y="450"/>
			<point x="217" y="454" type="curve" smooth="yes"/>
			<point x="257" y="461" type="line"/>
			<point x="257" y="507" type="line"/>
			<point x="17" y="507" type="line"/>
			<point x="7" y="458" type="line"/>
			<point x="42" y="450" type="line" smooth="yes"/>
			<point x="69" y="444"/>
			<point x="76" y="437"/>
			<point x="104" y="403" type="curve" smooth="yes"/>
			<point x="230" y="247" type="line"/>
			<point x="109" y="97" type="line"/>
			<point x="78" y="66"/>
			<point x="69" y="60"/>
			<point x="47" y="55" type="curve" smooth="yes"/>
			<point x="9" y="47" type="line"/>
		</contour>
	</outline>
</glyph>
<glyph name="bar" format="2">
	<unicode hex="007C"/>
	<advance width="424"/>
	<outline>
		<contour>
			<point x="181" y="-110" type="line"/>
			<point x="243" y="-110" type="line"/>
			<point x="243" y="802" type="line"/>
			<point x="181" y="802" type="line"/>
		</contour>
	</outline>
</glyph>
<glyph name="braceright" format="2">
	<unicode hex="007D"/>
	<advance width="372"/>
	<outline>
		<contour>
			<point x="109" y="-227" type="curve" smooth="yes"/>
			<point x="192" y="-227"/>
			<point x="242" y="-180"/>
			<point x="242" y="-106" type="curve" smooth="yes"/>
			<point x="242" y="-45"/>
			<point x="223" y="110"/>
			<point x="223" y="182" type="curve" smooth="yes"/>
			<point x="223" y="268"/>
			<point x="264" y="277"/>
			<point x="317" y="278" type="curve"/>
			<point x="317" y="335" type="line"/>
			<point x="264" y="336"/>
			<point x="223" y="343"/>
			<point x="223" y="431" type="curve" smooth="yes"/>
			<point x="223" y="506"/>
			<point x="242" y="638"/>
			<point x="242" y="703" type="curve" smooth="yes"/>
			<point x="242" y="776"/>
			<point x="196" y="822"/>
			<point x="117" y="822" type="curve" smooth="yes"/>
			<point x="93" y="822"/>
			<point x="64" y="818"/>
			<point x="45" y="813" type="curve"/>
			<point x="55" y="764" type="line"/>
			<point x="70" y="766"/>
			<point x="87" y="768"/>
			<point x="104" y="768" type="curve" smooth="yes"/>
			<point x="129" y="768"/>
			<point x="150" y="759"/>
			<point x="150" y="702" type="curve" smooth="yes"/>
			<point x="150" y="657"/>
			<point x="133" y="507"/>
			<point x="133" y="440" type="curve" smooth="yes"/>
			<point x="133" y="343"/>
			<point x="191" y="323"/>
			<point x="243" y="308" type="curve"/>
			<point x="190" y="291"/>
			<point x="133" y="268"/>
			<point x="133" y="174" type="curve" smooth="yes"/>
			<point x="133" y="109"/>
			<point x="150" y="-63"/>
			<point x="150" y="-103" type="curve" smooth="yes"/>
			<point x="150" y="-160"/>
			<point x="126" y="-173"/>
			<point x="95" y="-173" type="curve" smooth="yes"/>
			<point x="80" y="-173"/>
			<point x="61" y="-171"/>
			<point x="47" y="-169" type="curve"/>
			<point x="37" y="-218" type="line"/>
			<point x="59" y="-224"/>
			<point x="84" y="-227"/>
		</contour>
	</outline>
</glyph>
<glyph name="asciitilde" format="2">
	<unicode hex="007E"/>
	<advance width="582"/>
	<outline>
		<contour>
			<point x="117" y="239" type="line"/>
			<point x="138" y="277"/>
			<point x="145" y="283"/>
			<point x="165" y="283" type="curve" smooth="yes"/>
			<point x="195" y="283"/>
			<point x="239" y="274"/>
			<point x="283" y="264" type="curve" smooth="yes"/>
			<point x="334" y="253"/>
			<point x="385" y="241"/>
			<point x="421" y="241" type="curve" smooth="yes"/>
			<point x="461" y="241"/>
			<point x="484" y="253"/>
			<point x="518" y="333" type="curve"/>
			<point x="466" y="352" type="line"/>
			<point x="448" y="319"/>
			<point x="439" y="308"/>
			<point x="421" y="308" type="curve" smooth="yes"/>
			<point x="391" y="308"/>
			<point x="344" y="318"/>
			<point x="297" y="328" type="curve" smooth="yes"/>
			<point x="247" y="339"/>
			<point x="195" y="350"/>
			<point x="162" y="350" type="curve" smooth="yes"/>
			<point x="117" y="350"/>
			<point x="97" y="331"/>
			<point x="65" y="258" type="curve"/>
		</contour>
	</outline>
</glyph>
<glyph name="cent" format="2">
	<unicode hex="00A2"/>
	<advance width="491"/>
	<outline>
		<contour>
			<point x="155" y="-26" type="line"/>
			<point x="205" y="-26" type="line"/>
			<point x="341" y="641" type="line"/>
			<point x="291" y="641" type="line"/>
		</contour>
		<contour>
			<point x="282" y="36" type="curve" smooth="yes"/>
			<point x="356" y="36"/>
			<point x="427" y="72"/>
			<point x="470" y="130" type="curve"/>
			<point x="436" y="165" type="line"/>
			<point x="402" y="131"/>
			<point x="357" y="113"/>
			<point x="307" y="113" type="curve" smooth="yes"/>
			<point x="208" y="113"/>
			<point x="147" y="191"/>
			<point x="147" y="318" type="curve" smooth="yes"/>
			<point x="147" y="434"/>
			<point x="203" y="515"/>
			<point x="282" y="515" type="curve" smooth="yes"/>
			<point x="323" y="515"/>
			<point x="346" y="509"/>
			<point x="372" y="491" type="curve"/>
			<point x="351" y="456"/>
			<point x="344" y="439"/>
			<point x="344" y="423" type="curve" smooth="yes"/>
			<point x="344" y="393"/>
			<point x="366" y="375"/>
			<point x="403" y="375" type="curve" smooth="yes"/>
			<point x="443" y="375"/>
			<point x="469" y="400"/>
			<point x="469" y="440" type="curve" smooth="yes"/>
			<point x="469" y="515"/>
			<point x="392" y="571"/>
			<point x="290" y="571" type="curve" smooth="yes"/>
			<point x="143" y="571"/>
			<point x="46" y="462"/>
			<point x="46" y="297" type="curve" smooth="yes"/>
			<point x="46" y="137"/>
			<point x="137" y="36"/>
		</contour>
	</outline>
	<anchor name="bottom" x="274" y="20"/>
	<anchor name="top" x="283" y="600"/>
</glyph>
<glyph name="sterling" format="2">
	<unicode hex="00A3"/>
	<advance width="550"/>
	<outline>
		<contour>
			<point x="52" y="0" type="line"/>
			<point x="491" y="0" type="line"/>
			<point x="515" y="178" type="line"/>
			<point x="461" y="178" type="line"/>
			<point x="424" y="89"/>
			<point x="406" y="77"/>
			<point x="312" y="77" type="curve" smooth="yes"/>
			<point x="185" y="77" type="line"/>
			<point x="183" y="81" type="line"/>
			<point x="235" y="119"/>
			<point x="265" y="177"/>
			<point x="265" y="240" type="curve" smooth="yes"/>
			<point x="265" y="266"/>
			<point x="259" y="289"/>
			<point x="251" y="312" type="curve"/>
			<point x="428" y="312" type="line"/>
			<point x="428" y="368" type="line"/>
			<point x="226" y="368" type="line"/>
			<point x="203" y="415"/>
			<point x="179" y="464"/>
			<point x="179" y="532" type="curve" smooth="yes"/>
			<point x="179" y="616"/>
			<point x="222" y="659"/>
			<point x="298" y="659" type="curve" smooth="yes"/>
			<point x="329" y="659"/>
			<point x="364" y="649"/>
			<point x="387" y="634" type="curve"/>
			<point x="366" y="599"/>
			<point x="359" y="582"/>
			<point x="359" y="566" type="curve" smooth="yes"/>
			<point x="359" y="536"/>
			<point x="381" y="518"/>
			<point x="418" y="518" type="curve" smooth="yes"/>
			<point x="458" y="518"/>
			<point x="484" y="543"/>
			<point x="484" y="583" type="curve" smooth="yes"/>
			<point x="484" y="661"/>
			<point x="411" y="715"/>
			<point x="305" y="715" type="curve" smooth="yes"/>
			<point x="168" y="715"/>
			<point x="80" y="635"/>
			<point x="80" y="509" type="curve" smooth="yes"/>
			<point x="80" y="453"/>
			<point x="95" y="408"/>
			<point x="113" y="368" type="curve"/>
			<point x="39" y="368" type="line"/>
			<point x="32" y="312" type="line"/>
			<point x="141" y="312" type="line"/>
			<point x="157" y="278"/>
			<point x="171" y="246"/>
			<point x="171" y="211" type="curve" smooth="yes"/>
			<point x="171" y="124"/>
			<point x="140" y="83"/>
			<point x="44" y="46" type="curve"/>
		</contour>
	</outline>
</glyph>
<glyph name="brokenbar" format="2">
	<unicode hex="00A6"/>
	<advance width="424"/>
	<outline>
		<contour>
			<point x="181" y="-110" type="line"/>
			<point x="242" y="-110" type="line"/>
			<point x="242" y="289" type="line"/>
			<point x="181" y="289" type="line"/>
		</contour>
		<contour>
			<point x="181" y="432" type="line"/>
			<point x="242" y="432" type="line"/>
			<point x="242" y="803" type="line"/>
			<point x="181" y="803" type="line"/>
		</contour>
	</outline>
</glyph>
<glyph name="copyright" format="2">
	<unicode hex="00A9"/>
	<advance width="795"/>
	<outline>
		<contour>
			<point x="397" y="-12" type="curve" smooth="yes"/>
			<point x="601" y="-12"/>
			<point x="735" y="123"/>
			<point x="735" y="325" type="curve" smooth="yes"/>
			<point x="735" y="521"/>
			<point x="602" y="647"/>
			<point x="399" y="647" type="curve" smooth="yes"/>
			<point x="215" y="647"/>
			<point x="60" y="522"/>
			<point x="60" y="311" type="curve" smooth="yes"/>
			<point x="60" y="128"/>
			<point x="171" y="-12"/>
		</contour>
		<contour>
			<point x="399" y="40" type="curve" smooth="yes"/>
			<point x="226" y="40"/>
			<point x="122" y="147"/>
			<point x="122" y="312" type="curve" smooth="yes"/>
			<point x="122" y="487"/>
			<point x="240" y="595"/>
			<point x="399" y="595" type="curve" smooth="yes"/>
			<point x="560" y="595"/>
			<point x="675" y="495"/>
			<point x="675" y="319" type="curve" smooth="yes"/>
			<point x="675" y="152"/>
			<point x="570" y="40"/>
		</contour>
		<contour>
			<point x="409" y="106" type="curve" smooth="yes"/>
			<point x="480" y="106"/>
			<point x="522" y="144"/>
			<point x="556" y="189" type="curve"/>
			<point x="528" y="216" type="line"/>
			<point x="494" y="177"/>
			<point x="465" y="156"/>
			<point x="415" y="156" type="curve" smooth="yes"/>
			<point x="342" y="156"/>
			<point x="296" y="229"/>
			<point x="296" y="314" type="curve" smooth="yes"/>
			<point x="296" y="414"/>
			<point x="340" y="472"/>
			<point x="401" y="472" type="curve" smooth="yes"/>
			<point x="455" y="472"/>
			<point x="487" y="448"/>
			<point x="509" y="381" type="curve"/>
			<point x="549" y="388" type="line"/>
			<point x="527" y="520" type="line"/>
			<point x="496" y="520" type="line"/>
			<point x="491" y="488" type="line"/>
			<point x="477" y="500"/>
			<point x="442" y="519"/>
			<point x="400" y="519" type="curve" smooth="yes"/>
			<point x="296" y="519"/>
			<point x="215" y="442"/>
			<point x="215" y="313" type="curve" smooth="yes"/>
			<point x="215" y="205"/>
			<point x="279" y="106"/>
		</contour>
	</outline>
</glyph>
<glyph name="ordfeminine" format="2">
	<unicode hex="00AA"/>
	<advance width="420"/>
	<outline>
		<contour>
			<point x="149" y="362" type="curve" smooth="yes"/>
			<point x="201" y="362"/>
			<point x="237" y="377"/>
			<point x="265" y="417" type="curve"/>
			<point x="269" y="382"/>
			<point x="291" y="362"/>
			<point x="334" y="362" type="curve" smooth="yes"/>
			<point x="369" y="362"/>
			<point x="394" y="372"/>
			<point x="415" y="391" type="curve"/>
			<point x="406" y="423" type="line"/>
			<point x="391" y="418"/>
			<point x="379" y="416"/>
			<point x="369" y="416" type="curve" smooth="yes"/>
			<point x="346" y="417"/>
			<point x="335" y="430"/>
			<point x="335" y="450" type="curve" smooth="yes"/>
			<point x="335" y="611" type="line" smooth="yes"/>
			<point x="335" y="714"/>
			<point x="270" y="742"/>
			<point x="189" y="742" type="curve" smooth="yes"/>
			<point x="107" y="742"/>
			<point x="42" y="699"/>
			<point x="42" y="650" type="curve" smooth="yes"/>
			<point x="42" y="628"/>
			<point x="54" y="608"/>
			<point x="87" y="608" type="curve" smooth="yes"/>
			<point x="118" y="608"/>
			<point x="132" y="626"/>
			<point x="132" y="644" type="curve" smooth="yes"/>
			<point x="132" y="651"/>
			<point x="126" y="663"/>
			<point x="113" y="682" type="curve"/>
			<point x="126" y="692"/>
			<point x="150" y="698"/>
			<point x="178" y="698" type="curve" smooth="yes"/>
			<point x="228" y="698"/>
			<point x="256" y="677"/>
			<point x="256" y="617" type="curve" smooth="yes"/>
			<point x="256" y="577" type="line"/>
			<point x="223" y="575"/>
			<point x="191" y="573"/>
			<point x="159" y="568" type="curve" smooth="yes"/>
			<point x="84" y="557"/>
			<point x="38" y="523"/>
			<point x="38" y="461" type="curve" smooth="yes"/>
			<point x="38" y="390"/>
			<point x="93" y="362"/>
		</contour>
		<contour>
			<point x="177" y="416" type="curve" smooth="yes"/>
			<point x="149" y="416"/>
			<point x="121" y="432"/>
			<point x="121" y="467" type="curve" smooth="yes"/>
			<point x="121" y="522"/>
			<point x="178" y="534"/>
			<point x="256" y="534" type="curve"/>
			<point x="256" y="489" type="line" smooth="yes"/>
			<point x="256" y="435"/>
			<point x="208" y="416"/>
		</contour>
	</outline>
</glyph>
<glyph name="registered" format="2">
	<unicode hex="00AE"/>
	<advance width="487"/>
	<outline>
		<contour>
			<point x="243" y="404" type="curve" smooth="yes"/>
			<point x="351" y="404"/>
			<point x="427" y="478"/>
			<point x="427" y="586" type="curve" smooth="yes"/>
			<point x="427" y="692"/>
			<point x="356" y="762"/>
			<point x="244" y="762" type="curve" smooth="yes"/>
			<point x="142" y="762"/>
			<point x="60" y="692"/>
			<point x="60" y="579" type="curve" smooth="yes"/>
			<point x="60" y="479"/>
			<point x="122" y="404"/>
		</contour>
		<contour>
			<point x="327" y="465" type="curve" smooth="yes"/>
			<point x="300" y="465"/>
			<point x="290" y="479"/>
			<point x="280" y="503" type="curve" smooth="yes"/>
			<point x="268" y="535" type="line" smooth="yes"/>
			<point x="257" y="564"/>
			<point x="246" y="576"/>
			<point x="228" y="576" type="curve" smooth="yes"/>
			<point x="214" y="576" type="line"/>
			<point x="214" y="505" type="line" smooth="yes"/>
			<point x="214" y="493"/>
			<point x="216" y="488"/>
			<point x="227" y="487" type="curve" smooth="yes"/>
			<point x="244" y="485" type="line"/>
			<point x="244" y="469" type="line"/>
			<point x="147" y="469" type="line"/>
			<point x="147" y="485" type="line"/>
			<point x="163" y="487" type="line" smooth="yes"/>
			<point x="174" y="488"/>
			<point x="176" y="495"/>
			<point x="176" y="505" type="curve" smooth="yes"/>
			<point x="176" y="668" type="line" smooth="yes"/>
			<point x="176" y="678"/>
			<point x="174" y="684"/>
			<point x="163" y="685" type="curve" smooth="yes"/>
			<point x="147" y="687" type="line"/>
			<point x="151" y="703" type="line"/>
			<point x="233" y="703" type="line" smooth="yes"/>
			<point x="283" y="703"/>
			<point x="327" y="688"/>
			<point x="327" y="643" type="curve" smooth="yes"/>
			<point x="327" y="602"/>
			<point x="291" y="585"/>
			<point x="265" y="581" type="curve"/>
			<point x="265" y="580" type="line"/>
			<point x="297" y="573"/>
			<point x="305" y="554"/>
			<point x="314" y="530" type="curve" smooth="yes"/>
			<point x="323" y="505" type="line" smooth="yes"/>
			<point x="329" y="492"/>
			<point x="336" y="487"/>
			<point x="346" y="487" type="curve" smooth="yes"/>
			<point x="349" y="487"/>
			<point x="352" y="487"/>
			<point x="355" y="487" type="curve"/>
			<point x="355" y="471" type="line"/>
			<point x="348" y="467"/>
			<point x="339" y="465"/>
		</contour>
		<contour>
			<point x="214" y="595" type="line"/>
			<point x="232" y="595" type="line" smooth="yes"/>
			<point x="271" y="595"/>
			<point x="287" y="612"/>
			<point x="287" y="641" type="curve" smooth="yes"/>
			<point x="287" y="676"/>
			<point x="263" y="683"/>
			<point x="231" y="683" type="curve" smooth="yes"/>
			<point x="214" y="683" type="line"/>
		</contour>
	</outline>
</glyph>
<glyph name="macron" format="2">
	<unicode hex="00AF"/>
	<advance width="500"/>
	<outline>
		<contour>
			<point x="110" y="635" type="line"/>
			<point x="390" y="635" type="line"/>
			<point x="390" y="708" type="line"/>
			<point x="110" y="708" type="line"/>
		</contour>
	</outline>
	<anchor name="_top" x="250" y="550"/>
</glyph>
<glyph name="twosuperior" format="2">
	<unicode hex="00B2"/>
	<advance width="397"/>
	<outline>
		<contour>
			<point x="40" y="374" type="line"/>
			<point x="349" y="374" type="line"/>
			<point x="362" y="512" type="line"/>
			<point x="317" y="512" type="line"/>
			<point x="290" y="448"/>
			<point x="285" y="442"/>
			<point x="223" y="442" type="curve" smooth="yes"/>
			<point x="126" y="442" type="line"/>
			<point x="305" y="588"/>
			<point x="351" y="646"/>
			<point x="351" y="711" type="curve" smooth="yes"/>
			<point x="351" y="794"/>
			<point x="283" y="839"/>
			<point x="185" y="839" type="curve" smooth="yes"/>
			<point x="96" y="839"/>
			<point x="25" y="799"/>
			<point x="25" y="741" type="curve" smooth="yes"/>
			<point x="25" y="713"/>
			<point x="41" y="689"/>
			<point x="79" y="689" type="curve" smooth="yes"/>
			<point x="109" y="689"/>
			<point x="124" y="709"/>
			<point x="124" y="727" type="curve" smooth="yes"/>
			<point x="124" y="734"/>
			<point x="117" y="746"/>
			<point x="104" y="766" type="curve"/>
			<point x="114" y="782"/>
			<point x="138" y="791"/>
			<point x="177" y="791" type="curve" smooth="yes"/>
			<point x="232" y="791"/>
			<point x="264" y="755"/>
			<point x="264" y="708" type="curve" smooth="yes"/>
			<point x="264" y="642"/>
			<point x="223" y="596"/>
			<point x="34" y="420" type="curve"/>
		</contour>
	</outline>
</glyph>
<glyph name="threesuperior" format="2">
	<unicode hex="00B3"/>
	<advance width="423"/>
	<outline>
		<contour>
			<point x="198" y="362" type="curve" smooth="yes"/>
			<point x="285" y="362"/>
			<point x="368" y="415"/>
			<point x="368" y="498" type="curve" smooth="yes"/>
			<point x="368" y="569"/>
			<point x="318" y="601"/>
			<point x="253" y="612" type="curve"/>
			<point x="253" y="614" type="line"/>
			<point x="308" y="629"/>
			<point x="350" y="671"/>
			<point x="350" y="723" type="curve" smooth="yes"/>
			<point x="350" y="794"/>
			<point x="283" y="839"/>
			<point x="195" y="839" type="curve" smooth="yes"/>
			<point x="102" y="839"/>
			<point x="39" y="791"/>
			<point x="39" y="740" type="curve" smooth="yes"/>
			<point x="39" y="712"/>
			<point x="56" y="690"/>
			<point x="92" y="690" type="curve" smooth="yes"/>
			<point x="121" y="690"/>
			<point x="136" y="708"/>
			<point x="136" y="728" type="curve" smooth="yes"/>
			<point x="136" y="735"/>
			<point x="130" y="746"/>
			<point x="117" y="764" type="curve"/>
			<point x="127" y="780"/>
			<point x="154" y="792"/>
			<point x="187" y="792" type="curve" smooth="yes"/>
			<point x="238" y="792"/>
			<point x="268" y="758"/>
			<point x="268" y="721" type="curve" smooth="yes"/>
			<point x="268" y="675"/>
			<point x="234" y="633"/>
			<point x="158" y="626" type="curve"/>
			<point x="154" y="585" type="line"/>
			<point x="238" y="588"/>
			<point x="278" y="560"/>
			<point x="278" y="500" type="curve" smooth="yes"/>
			<point x="278" y="455"/>
			<point x="246" y="421"/>
			<point x="183" y="421" type="curve" smooth="yes"/>
			<point x="124" y="421"/>
			<point x="85" y="452"/>
			<point x="62" y="479" type="curve"/>
			<point x="25" y="448" type="line"/>
			<point x="42" y="418"/>
			<point x="85" y="362"/>
		</contour>
	</outline>
</glyph>
<glyph name="Oslash" format="2">
	<unicode hex="00D8"/>
	<advance width="760"/>
	<outline>
		<contour>
			<point x="36" y="-14" type="line"/>
			<point x="116" y="-14" type="line"/>
			<point x="172" y="53" type="line"/>
			<point x="226" y="10"/>
			<point x="296" y="-14"/>
			<point x="378" y="-14" type="curve" smooth="yes"/>
			<point x="576" y="-14"/>
			<point x="710" y="140"/>
			<point x="710" y="368" type="curve" smooth="yes"/>
			<point x="710" y="465"/>
			<point x="682" y="547"/>
			<point x="632" y="606" type="curve"/>
			<point x="722" y="714" type="line"/>
			<point x="642" y="714" type="line"/>
			<point x="588" y="649" type="line"/>
			<point x="535" y="691"/>
			<point x="466" y="714"/>
			<point x="387" y="714" type="curve" smooth="yes"/>
			<point x="181" y="714"/>
			<point x="50" y="567"/>
			<point x="50" y="336" type="curve" smooth="yes"/>
			<point x="50" y="239"/>
			<point x="78" y="157"/>
			<point x="128" y="96" type="curve"/>
		</contour>
		<contour>
			<point x="390" y="53" type="curve" smooth="yes"/>
			<point x="324" y="53"/>
			<point x="269" y="78"/>
			<point x="229" y="122" type="curve"/>
			<point x="567" y="528" type="line"/>
			<point x="589" y="480"/>
			<point x="601" y="420"/>
			<point x="601" y="349" type="curve" smooth="yes"/>
			<point x="601" y="156"/>
			<point x="528" y="53"/>
		</contour>
		<contour>
			<point x="194" y="175" type="line"/>
			<point x="169" y="224"/>
			<point x="156" y="285"/>
			<point x="156" y="357" type="curve" smooth="yes"/>
			<point x="156" y="544"/>
			<point x="235" y="650"/>
			<point x="374" y="650" type="curve" smooth="yes"/>
			<point x="440" y="650"/>
			<point x="494" y="626"/>
			<point x="532" y="582" type="curve"/>
		</contour>
	</outline>
	<anchor name="bottom" x="376" y="-30"/>
	<anchor name="top" x="382" y="730"/>
</glyph>
<glyph name="Thorn" format="2">
	<unicode hex="00DE"/>
	<advance width="602"/>
	<outline>
		<contour>
			<point x="62" y="0" type="line"/>
			<point x="357" y="0" type="line"/>
			<point x="357" y="48" type="line"/>
			<point x="287" y="56" type="line" smooth="yes"/>
			<point x="258" y="59"/>
			<point x="250" y="71"/>
			<point x="250" y="106" type="curve" smooth="yes"/>
			<point x="250" y="151" type="line"/>
			<point x="276" y="151"/>
			<point x="303" y="151"/>
			<point x="329" y="151" type="curve" smooth="yes"/>
			<point x="477" y="151"/>
			<point x="577" y="238"/>
			<point x="577" y="368" type="curve" smooth="yes"/>
			<point x="577" y="496"/>
			<point x="488" y="559"/>
			<point x="308" y="559" type="curve" smooth="yes"/>
			<point x="250" y="559" type="line"/>
			<point x="250" y="594" type="line"/>
			<point x="250" y="629"/>
			<point x="257" y="641"/>
			<point x="287" y="644" type="curve" smooth="yes"/>
			<point x="357" y="652" type="line"/>
			<point x="357" y="700" type="line"/>
			<point x="62" y="700" type="line"/>
			<point x="62" y="652" type="line"/>
			<point x="120" y="643" type="line" smooth="yes"/>
			<point x="145" y="639"/>
			<point x="151" y="629"/>
			<point x="151" y="592" type="curve"/>
			<point x="151" y="108" type="line" smooth="yes"/>
			<point x="151" y="71"/>
			<point x="145" y="61"/>
			<point x="120" y="57" type="curve" smooth="yes"/>
			<point x="62" y="48" type="line"/>
		</contour>
		<contour>
			<point x="250" y="205" type="curve"/>
			<point x="250" y="505" type="line"/>
			<point x="301" y="505" type="line" smooth="yes"/>
			<point x="418" y="505"/>
			<point x="470" y="462"/>
			<point x="470" y="365" type="curve" smooth="yes"/>
			<point x="470" y="260"/>
			<point x="415" y="205"/>
			<point x="308" y="205" type="curve" smooth="yes"/>
			<point x="289" y="205"/>
			<point x="269" y="205"/>
		</contour>
	</outline>
</glyph>
<glyph name="germandbls" format="2">
	<unicode hex="00DF"/>
	<advance width="677"/>
	<outline>
		<contour>
			<point x="305" y="-14" type="line"/>
			<point x="347" y="-14" type="line"/>
			<point x="358" y="23" type="line"/>
			<point x="381" y="7"/>
			<point x="421" y="-14"/>
			<point x="476" y="-14" type="curve" smooth="yes"/>
			<point x="595" y="-14"/>
			<point x="652" y="67"/>
			<point x="652" y="152" type="curve" smooth="yes"/>
			<point x="652" y="327"/>
			<point x="433" y="298"/>
			<point x="433" y="412" type="curve" smooth="yes"/>
			<point x="433" y="500"/>
			<point x="542" y="553"/>
			<point x="542" y="651" type="curve" smooth="yes"/>
			<point x="542" y="750"/>
			<point x="453" y="782"/>
			<point x="360" y="782" type="curve" smooth="yes"/>
			<point x="216" y="782"/>
			<point x="129" y="690"/>
			<point x="129" y="545" type="curve" smooth="yes"/>
			<point x="129" y="504" type="line"/>
			<point x="49" y="494" type="line"/>
			<point x="49" y="444" type="line"/>
			<point x="129" y="444" type="line"/>
			<point x="129" y="108" type="line" smooth="yes"/>
			<point x="129" y="78"/>
			<point x="127" y="62"/>
			<point x="98" y="57" type="curve" smooth="yes"/>
			<point x="41" y="48" type="line"/>
			<point x="41" y="0" type="line"/>
			<point x="222" y="0" type="line"/>
			<point x="222" y="599" type="line" smooth="yes"/>
			<point x="222" y="693"/>
			<point x="280" y="728"/>
			<point x="352" y="728" type="curve" smooth="yes"/>
			<point x="404" y="728"/>
			<point x="459" y="714"/>
			<point x="459" y="640" type="curve" smooth="yes"/>
			<point x="459" y="528"/>
			<point x="341" y="489"/>
			<point x="341" y="383" type="curve" smooth="yes"/>
			<point x="341" y="216"/>
			<point x="569" y="257"/>
			<point x="569" y="130" type="curve" smooth="yes"/>
			<point x="569" y="75"/>
			<point x="532" y="46"/>
			<point x="478" y="46" type="curve" smooth="yes"/>
			<point x="427" y="46"/>
			<point x="378" y="69"/>
			<point x="345" y="162" type="curve"/>
			<point x="289" y="158" type="line"/>
		</contour>
	</outline>
</glyph>
<glyph name="ae" format="2">
	<unicode hex="00E6"/>
	<advance width="804"/>
	<outline>
		<contour>
			<point x="192" y="-14" type="curve" smooth="yes"/>
			<point x="258" y="-14"/>
			<point x="327" y="3"/>
			<point x="373" y="88" type="curve"/>
			<point x="412" y="26"/>
			<point x="478" y="-14"/>
			<point x="570" y="-14" type="curve" smooth="yes"/>
			<point x="659" y="-14"/>
			<point x="729" y="35"/>
			<point x="766" y="85" type="curve"/>
			<point x="731" y="120" type="line"/>
			<point x="706" y="94"/>
			<point x="660" y="60"/>
			<point x="593" y="60" type="curve" smooth="yes"/>
			<point x="492" y="60"/>
			<point x="436" y="133"/>
			<point x="432" y="246" type="curve"/>
			<point x="745" y="246" type="line"/>
			<point x="754" y="278"/>
			<point x="759" y="312"/>
			<point x="759" y="344" type="curve" smooth="yes"/>
			<point x="759" y="456"/>
			<point x="678" y="521"/>
			<point x="575" y="521" type="curve" smooth="yes"/>
			<point x="506" y="521"/>
			<point x="447" y="497"/>
			<point x="404" y="454" type="curve"/>
			<point x="371" y="505"/>
			<point x="312" y="521"/>
			<point x="245" y="521" type="curve" smooth="yes"/>
			<point x="146" y="521"/>
			<point x="54" y="463"/>
			<point x="54" y="391" type="curve" smooth="yes"/>
			<point x="54" y="364"/>
			<point x="68" y="339"/>
			<point x="111" y="339" type="curve" smooth="yes"/>
			<point x="144" y="339"/>
			<point x="165" y="361"/>
			<point x="165" y="384" type="curve" smooth="yes"/>
			<point x="165" y="392"/>
			<point x="158" y="407"/>
			<point x="139" y="440" type="curve"/>
			<point x="152" y="454"/>
			<point x="188" y="470"/>
			<point x="231" y="470" type="curve" smooth="yes"/>
			<point x="298" y="470"/>
			<point x="339" y="442"/>
			<point x="339" y="352" type="curve" smooth="yes"/>
			<point x="339" y="284" type="line"/>
			<point x="299" y="282"/>
			<point x="247" y="278"/>
			<point x="207" y="272" type="curve" smooth="yes"/>
			<point x="111" y="258"/>
			<point x="52" y="208"/>
			<point x="52" y="121" type="curve" smooth="yes"/>
			<point x="52" y="21"/>
			<point x="128" y="-14"/>
		</contour>
		<contour>
			<point x="230" y="55" type="curve" smooth="yes"/>
			<point x="188" y="55"/>
			<point x="149" y="76"/>
			<point x="149" y="132" type="curve" smooth="yes"/>
			<point x="149" y="170"/>
			<point x="170" y="211"/>
			<point x="242" y="223" type="curve" smooth="yes"/>
			<point x="266" y="227"/>
			<point x="301" y="232"/>
			<point x="339" y="232" type="curve"/>
			<point x="339" y="164" type="line" smooth="yes"/>
			<point x="339" y="82"/>
			<point x="270" y="55"/>
		</contour>
		<contour>
			<point x="432" y="302" type="line"/>
			<point x="439" y="381"/>
			<point x="468" y="468"/>
			<point x="564" y="468" type="curve" smooth="yes"/>
			<point x="628" y="468"/>
			<point x="665" y="428"/>
			<point x="665" y="348" type="curve" smooth="yes"/>
			<point x="665" y="330"/>
			<point x="664" y="315"/>
			<point x="662" y="302" type="curve"/>
		</contour>
	</outline>
	<anchor name="bottom" x="388" y="-30"/>
	<anchor name="top" x="421" y="550"/>
</glyph>
<glyph name="eth" format="2">
	<unicode hex="00F0"/>
	<advance width="577"/>
	<outline>
		<contour>
			<point x="276" y="-14" type="curve" smooth="yes"/>
			<point x="444" y="-14"/>
			<point x="531" y="121"/>
			<point x="531" y="348" type="curve" smooth="yes"/>
			<point x="531" y="521"/>
			<point x="476" y="623"/>
			<point x="406" y="684" type="curve"/>
			<point x="484" y="744" type="line"/>
			<point x="459" y="789" type="line"/>
			<point x="362" y="714" type="line"/>
			<point x="297" y="754"/>
			<point x="220" y="767"/>
			<point x="149" y="771" type="curve"/>
			<point x="140" y="726" type="line"/>
			<point x="209" y="719"/>
			<point x="264" y="697"/>
			<point x="304" y="667" type="curve"/>
			<point x="224" y="609" type="line"/>
			<point x="249" y="564" type="line"/>
			<point x="345" y="637" type="line"/>
			<point x="391" y="585"/>
			<point x="426" y="490"/>
			<point x="435" y="413" type="curve"/>
			<point x="432" y="412" type="line"/>
			<point x="399" y="464"/>
			<point x="337" y="496"/>
			<point x="271" y="496" type="curve" smooth="yes"/>
			<point x="164" y="496"/>
			<point x="46" y="421"/>
			<point x="46" y="241" type="curve" smooth="yes"/>
			<point x="46" y="81"/>
			<point x="136" y="-14"/>
		</contour>
		<contour>
			<point x="292" y="47" type="curve" smooth="yes"/>
			<point x="200" y="47"/>
			<point x="149" y="114"/>
			<point x="149" y="244" type="curve" smooth="yes"/>
			<point x="149" y="375"/>
			<point x="211" y="434"/>
			<point x="287" y="434" type="curve" smooth="yes"/>
			<point x="343" y="434"/>
			<point x="390" y="406"/>
			<point x="409" y="367" type="curve" smooth="yes"/>
			<point x="426" y="332"/>
			<point x="427" y="288"/>
			<point x="427" y="247" type="curve" smooth="yes"/>
			<point x="427" y="124"/>
			<point x="379" y="47"/>
		</contour>
	</outline>
</glyph>
<glyph name="divide" format="2">
	<unicode hex="00F7"/>
	<advance width="582"/>
	<outline>
		<contour>
			<point x="77" y="275" type="line"/>
			<point x="505" y="275" type="line"/>
			<point x="505" y="338" type="line"/>
			<point x="77" y="338" type="line"/>
		</contour>
		<contour>
			<point x="290" y="88" type="curve" smooth="yes"/>
			<point x="326" y="88"/>
			<point x="356" y="115"/>
			<point x="356" y="150" type="curve" smooth="yes"/>
			<point x="356" y="185"/>
			<point x="326" y="211"/>
			<point x="290" y="211" type="curve" smooth="yes"/>
			<point x="255" y="211"/>
			<point x="225" y="184"/>
			<point x="225" y="149" type="curve" smooth="yes"/>
			<point x="225" y="114"/>
			<point x="255" y="88"/>
		</contour>
		<contour>
			<point x="290" y="398" type="curve" smooth="yes"/>
			<point x="326" y="398"/>
			<point x="356" y="425"/>
			<point x="356" y="460" type="curve" smooth="yes"/>
			<point x="356" y="495"/>
			<point x="326" y="521"/>
			<point x="290" y="521" type="curve" smooth="yes"/>
			<point x="255" y="521"/>
			<point x="225" y="494"/>
			<point x="225" y="459" type="curve" smooth="yes"/>
			<point x="225" y="424"/>
			<point x="255" y="398"/>
		</contour>
	</outline>
</glyph>
<glyph name="Hbar" format="2">
	<unicode hex="0126"/>
	<advance width="787"/>
	<outline>
		<contour>
			<point x="36" y="0" type="line"/>
			<point x="312" y="0" type="line"/>
			<point x="312" y="48" type="line"/>
			<point x="256" y="57" type="line" smooth="yes"/>
			<point x="230" y="62"/>
			<point x="224" y="70"/>
			<point x="224" y="104" type="curve" smooth="yes"/>
			<point x="224" y="328" type="line"/>
			<point x="564" y="328" type="line"/>
			<point x="564" y="108" type="line" smooth="yes"/>
			<point x="564" y="71"/>
			<point x="558" y="61"/>
			<point x="533" y="57" type="curve" smooth="yes"/>
			<point x="476" y="48" type="line"/>
			<point x="476" y="0" type="line"/>
			<point x="751" y="0" type="line"/>
			<point x="751" y="48" type="line"/>
			<point x="696" y="57" type="line" smooth="yes"/>
			<point x="669" y="62"/>
			<point x="663" y="70"/>
			<point x="663" y="104" type="curve" smooth="yes"/>
			<point x="663" y="489" type="line"/>
			<point x="765" y="489" type="line"/>
			<point x="765" y="546" type="line"/>
			<point x="663" y="546" type="line"/>
			<point x="663" y="592" type="line" smooth="yes"/>
			<point x="663" y="629"/>
			<point x="669" y="639"/>
			<point x="694" y="643" type="curve" smooth="yes"/>
			<point x="751" y="652" type="line"/>
			<point x="751" y="700" type="line"/>
			<point x="476" y="700" type="line"/>
			<point x="476" y="652" type="line"/>
			<point x="531" y="643" type="line" smooth="yes"/>
			<point x="558" y="638"/>
			<point x="564" y="630"/>
			<point x="564" y="596" type="curve" smooth="yes"/>
			<point x="564" y="546" type="line"/>
			<point x="224" y="546" type="line"/>
			<point x="224" y="592" type="line" smooth="yes"/>
			<point x="224" y="628"/>
			<point x="230" y="639"/>
			<point x="254" y="643" type="curve" smooth="yes"/>
			<point x="312" y="652" type="line"/>
			<point x="312" y="700" type="line"/>
			<point x="36" y="700" type="line"/>
			<point x="36" y="652" type="line"/>
			<point x="92" y="643" type="line" smooth="yes"/>
			<point x="119" y="638"/>
			<point x="125" y="630"/>
			<point x="125" y="596" type="curve" smooth="yes"/>
			<point x="125" y="546" type="line"/>
			<point x="33" y="546" type="line"/>
			<point x="25" y="489" type="line"/>
			<point x="125" y="489" type="line"/>
			<point x="125" y="108" type="line" smooth="yes"/>
			<point x="125" y="71"/>
			<point x="119" y="61"/>
			<point x="94" y="57" type="curve" smooth="yes"/>
			<point x="36" y="48" type="line"/>
		</contour>
		<contour>
			<point x="224" y="391" type="line"/>
			<point x="224" y="489" type="line"/>
			<point x="564" y="489" type="line"/>
			<point x="564" y="391" type="line"/>
		</contour>
	</outline>
	<anchor name="bottom" x="393" y="-30"/>
	<anchor name="top" x="394" y="730"/>
</glyph>
<glyph name="idotless" format="2">
	<unicode hex="0131"/>
	<advance width="333"/>
	<outline>
		<contour>
			<point x="40" y="0" type="line"/>
			<point x="309" y="0" type="line"/>
			<point x="309" y="48" type="line"/>
			<point x="253" y="58" type="line" smooth="yes"/>
			<point x="228" y="62"/>
			<point x="221" y="72"/>
			<point x="221" y="105" type="curve" smooth="yes"/>
			<point x="221" y="505" type="line"/>
			<point x="209" y="510" type="line"/>
			<point x="51" y="502" type="line"/>
			<point x="44" y="452" type="line"/>
			<point x="92" y="445" type="line" smooth="yes"/>
			<point x="122" y="441"/>
			<point x="128" y="431"/>
			<point x="128" y="382" type="curve" smooth="yes"/>
			<point x="128" y="109" type="line" smooth="yes"/>
			<point x="128" y="71"/>
			<point x="123" y="62"/>
			<point x="97" y="58" type="curve" smooth="yes"/>
			<point x="40" y="49" type="line"/>
		</contour>
	</outline>
	<anchor name="bottom" x="174" y="-30"/>
	<anchor name="top" x="138" y="550"/>
</glyph>
<glyph name="eng" format="2">
	<unicode hex="014B"/>
	<advance width="641"/>
	<outline>
		<contour>
			<point x="389" y="521" type="curve" smooth="yes"/>
			<point x="318" y="521"/>
			<point x="250" y="481"/>
			<point x="214" y="418" type="curve"/>
			<point x="211" y="418" type="line"/>
			<point x="204" y="507" type="line"/>
			<point x="192" y="514" type="line"/>
			<point x="53" y="503" type="line"/>
			<point x="46" y="455" type="line"/>
			<point x="95" y="448" type="line" smooth="yes"/>
			<point x="124" y="444"/>
			<point x="129" y="434"/>
			<point x="129" y="386" type="curve" smooth="yes"/>
			<point x="129" y="104" type="line" smooth="yes"/>
			<point x="129" y="69"/>
			<point x="124" y="60"/>
			<point x="103" y="56" type="curve" smooth="yes"/>
			<point x="55" y="47" type="line"/>
			<point x="55" y="0" type="line"/>
			<point x="300" y="0" type="line"/>
			<point x="300" y="46" type="line"/>
			<point x="247" y="57" type="line" smooth="yes"/>
			<point x="227" y="61"/>
			<point x="222" y="70"/>
			<point x="222" y="100" type="curve" smooth="yes"/>
			<point x="222" y="310" type="line" smooth="yes"/>
			<point x="222" y="394"/>
			<point x="276" y="449"/>
			<point x="360" y="449" type="curve" smooth="yes"/>
			<point x="434" y="449"/>
			<point x="460" y="415"/>
			<point x="460" y="321" type="curve" smooth="yes"/>
			<point x="460" y="28" type="line" smooth="yes"/>
			<point x="460" y="-69"/>
			<point x="440" y="-135"/>
			<point x="373" y="-188" type="curve"/>
			<point x="401" y="-229" type="line"/>
			<point x="515" y="-167"/>
			<point x="553" y="-87"/>
			<point x="553" y="95" type="curve" smooth="yes"/>
			<point x="553" y="350" type="line" smooth="yes"/>
			<point x="553" y="461"/>
			<point x="495" y="521"/>
		</contour>
	</outline>
	<anchor name="bottom" x="178" y="-30"/>
	<anchor name="top" x="342" y="550"/>
</glyph>
<glyph name="OE" format="2">
	<unicode hex="0152"/>
	<advance width="1081"/>
	<outline>
		<contour>
			<point x="378" y="-14" type="curve" smooth="yes"/>
			<point x="470" y="-14"/>
			<point x="544" y="20"/>
			<point x="601" y="89" type="curve"/>
			<point x="601" y="0" type="line"/>
			<point x="1004" y="0" type="line"/>
			<point x="1028" y="184" type="line"/>
			<point x="973" y="184" type="line"/>
			<point x="945" y="76"/>
			<point x="919" y="54"/>
			<point x="823" y="54" type="curve" smooth="yes"/>
			<point x="694" y="54" type="line"/>
			<point x="694" y="325" type="line"/>
			<point x="781" y="325" type="line" smooth="yes"/>
			<point x="853" y="325"/>
			<point x="862" y="317"/>
			<point x="874" y="240" type="curve"/>
			<point x="920" y="248" type="line"/>
			<point x="920" y="475" type="line"/>
			<point x="874" y="469" type="line"/>
			<point x="856" y="391"/>
			<point x="852" y="387"/>
			<point x="781" y="387" type="curve" smooth="yes"/>
			<point x="694" y="387" type="line"/>
			<point x="694" y="646" type="line"/>
			<point x="791" y="646" type="line" smooth="yes"/>
			<point x="888" y="646"/>
			<point x="914" y="626"/>
			<point x="954" y="520" type="curve"/>
			<point x="1006" y="537" type="line"/>
			<point x="969" y="700" type="line"/>
			<point x="601" y="700" type="line"/>
			<point x="601" y="619" type="line"/>
			<point x="546" y="682"/>
			<point x="472" y="714"/>
			<point x="381" y="714" type="curve" smooth="yes"/>
			<point x="180" y="714"/>
			<point x="50" y="566"/>
			<point x="50" y="336" type="curve" smooth="yes"/>
			<point x="50" y="126"/>
			<point x="181" y="-14"/>
		</contour>
		<contour>
			<point x="390" y="53" type="curve" smooth="yes"/>
			<point x="246" y="53"/>
			<point x="156" y="170"/>
			<point x="156" y="357" type="curve" smooth="yes"/>
			<point x="156" y="544"/>
			<point x="235" y="650"/>
			<point x="374" y="650" type="curve" smooth="yes"/>
			<point x="517" y="650"/>
			<point x="601" y="538"/>
			<point x="601" y="349" type="curve" smooth="yes"/>
			<point x="601" y="156"/>
			<point x="528" y="53"/>
		</contour>
	</outline>
</glyph>
<glyph name="oe" format="2">
	<unicode hex="0153"/>
	<advance width="907"/>
	<outline>
		<contour>
			<point x="289" y="-14" type="curve" smooth="yes"/>
			<point x="369" y="-14"/>
			<point x="437" y="20"/>
			<point x="485" y="84" type="curve"/>
			<point x="526" y="19"/>
			<point x="586" y="-14"/>
			<point x="673" y="-14" type="curve" smooth="yes"/>
			<point x="762" y="-14"/>
			<point x="832" y="35"/>
			<point x="869" y="85" type="curve"/>
			<point x="834" y="120" type="line"/>
			<point x="809" y="94"/>
			<point x="763" y="60"/>
			<point x="696" y="60" type="curve" smooth="yes"/>
			<point x="595" y="60"/>
			<point x="539" y="133"/>
			<point x="535" y="246" type="curve"/>
			<point x="848" y="246" type="line"/>
			<point x="857" y="278"/>
			<point x="862" y="312"/>
			<point x="862" y="344" type="curve" smooth="yes"/>
			<point x="862" y="456"/>
			<point x="781" y="521"/>
			<point x="678" y="521" type="curve" smooth="yes"/>
			<point x="601" y="521"/>
			<point x="535" y="492"/>
			<point x="490" y="429" type="curve"/>
			<point x="444" y="492"/>
			<point x="380" y="521"/>
			<point x="303" y="521" type="curve" smooth="yes"/>
			<point x="171" y="521"/>
			<point x="46" y="443"/>
			<point x="46" y="242" type="curve" smooth="yes"/>
			<point x="46" y="95"/>
			<point x="131" y="-14"/>
		</contour>
		<contour>
			<point x="303" y="48" type="curve" smooth="yes"/>
			<point x="203" y="48"/>
			<point x="147" y="136"/>
			<point x="147" y="272" type="curve" smooth="yes"/>
			<point x="147" y="406"/>
			<point x="205" y="462"/>
			<point x="287" y="462" type="curve" smooth="yes"/>
			<point x="378" y="462"/>
			<point x="438" y="382"/>
			<point x="438" y="243" type="curve" smooth="yes"/>
			<point x="438" y="115"/>
			<point x="388" y="48"/>
		</contour>
		<contour>
			<point x="540" y="302" type="line"/>
			<point x="547" y="381"/>
			<point x="576" y="468"/>
			<point x="672" y="468" type="curve" smooth="yes"/>
			<point x="736" y="468"/>
			<point x="773" y="428"/>
			<point x="773" y="348" type="curve" smooth="yes"/>
			<point x="773" y="330"/>
			<point x="772" y="315"/>
			<point x="770" y="302" type="curve"/>
		</contour>
	</outline>
</glyph>
<glyph name="Scedilla" format="2">
	<unicode hex="015E"/>
	<advance width="598"/>
	<outline>
		<contour>
			<point x="291" y="-229" type="curve" smooth="yes"/>
			<point x="369" y="-229"/>
			<point x="406" y="-189"/>
			<point x="406" y="-133" type="curve" smooth="yes"/>
			<point x="406" y="-76"/>
			<point x="364" y="-49"/>
			<point x="300" y="-57" type="curve"/>
			<point x="317" y="-14" type="line"/>
			<point x="446" y="-14"/>
			<point x="540" y="75"/>
			<point x="540" y="200" type="curve" smooth="yes"/>
			<point x="540" y="303"/>
			<point x="486" y="357"/>
			<point x="333" y="409" type="curve" smooth="yes"/>
			<point x="217" y="448"/>
			<point x="178" y="483"/>
			<point x="178" y="549" type="curve" smooth="yes"/>
			<point x="178" y="615"/>
			<point x="226" y="659"/>
			<point x="298" y="659" type="curve" smooth="yes"/>
			<point x="383" y="659"/>
			<point x="438" y="609"/>
			<point x="469" y="504" type="curve"/>
			<point x="525" y="512" type="line"/>
			<point x="503" y="714" type="line"/>
			<point x="456" y="714" type="line"/>
			<point x="443" y="662" type="line"/>
			<point x="406" y="694"/>
			<point x="349" y="714"/>
			<point x="295" y="714" type="curve" smooth="yes"/>
			<point x="167" y="714"/>
			<point x="81" y="636"/>
			<point x="81" y="521" type="curve" smooth="yes"/>
			<point x="81" y="416"/>
			<point x="135" y="362"/>
			<point x="286" y="314" type="curve" smooth="yes"/>
			<point x="402" y="277"/>
			<point x="443" y="238"/>
			<point x="443" y="165" type="curve" smooth="yes"/>
			<point x="443" y="92"/>
			<point x="396" y="50"/>
			<point x="313" y="50" type="curve" smooth="yes"/>
			<point x="221" y="50"/>
			<point x="153" y="106"/>
			<point x="113" y="215" type="curve"/>
			<point x="56" y="210" type="line"/>
			<point x="76" y="-6" type="line"/>
			<point x="120" y="-6" type="line"/>
			<point x="136" y="53" type="line"/>
			<point x="169" y="21"/>
			<point x="219" y="-2"/>
			<point x="272" y="-10" type="curve"/>
			<point x="246" y="-75" type="line"/>
			<point x="254" y="-96" type="line"/>
			<point x="263" y="-94"/>
			<point x="271" y="-93"/>
			<point x="284" y="-93" type="curve" smooth="yes"/>
			<point x="316" y="-93"/>
			<point x="334" y="-103"/>
			<point x="334" y="-131" type="curve" smooth="yes"/>
			<point x="334" y="-161"/>
			<point x="310" y="-174"/>
			<point x="284" y="-174" type="curve" smooth="yes"/>
			<point x="262" y="-174"/>
			<point x="237" y="-165"/>
			<point x="220" y="-152" type="curve"/>
			<point x="196" y="-189" type="line"/>
			<point x="207" y="-201"/>
			<point x="244" y="-229"/>
		</contour>
	</outline>
	<anchor name="bottom" x="302" y="-30"/>
	<anchor name="top" x="298" y="730"/>
</glyph>
<glyph name="scedilla" format="2">
	<unicode hex="015F"/>
	<advance width="452"/>
	<outline>
		<contour>
			<point x="223" y="-229" type="curve" smooth="yes"/>
			<point x="301" y="-229"/>
			<point x="338" y="-189"/>
			<point x="338" y="-133" type="curve" smooth="yes"/>
			<point x="338" y="-76"/>
			<point x="296" y="-49"/>
			<point x="232" y="-57" type="curve"/>
			<point x="249" y="-14" type="line"/>
			<point x="351" y="-12"/>
			<point x="422" y="56"/>
			<point x="422" y="152" type="curve" smooth="yes"/>
			<point x="422" y="232"/>
			<point x="380" y="272"/>
			<point x="260" y="306" type="curve" smooth="yes"/>
			<point x="171" y="332"/>
			<point x="145" y="352"/>
			<point x="145" y="394" type="curve" smooth="yes"/>
			<point x="145" y="441"/>
			<point x="177" y="467"/>
			<point x="235" y="467" type="curve" smooth="yes"/>
			<point x="291" y="467"/>
			<point x="338" y="425"/>
			<point x="351" y="363" type="curve"/>
			<point x="408" y="358" type="line"/>
			<point x="395" y="521" type="line"/>
			<point x="351" y="521" type="line"/>
			<point x="343" y="487" type="line"/>
			<point x="319" y="507"/>
			<point x="274" y="521"/>
			<point x="233" y="521" type="curve" smooth="yes"/>
			<point x="128" y="521"/>
			<point x="61" y="462"/>
			<point x="61" y="371" type="curve" smooth="yes"/>
			<point x="61" y="292"/>
			<point x="104" y="252"/>
			<point x="222" y="219" type="curve" smooth="yes"/>
			<point x="312" y="194"/>
			<point x="339" y="173"/>
			<point x="339" y="130" type="curve" smooth="yes"/>
			<point x="339" y="78"/>
			<point x="303" y="46"/>
			<point x="245" y="46" type="curve" smooth="yes"/>
			<point x="180" y="46"/>
			<point x="132" y="86"/>
			<point x="105" y="162" type="curve"/>
			<point x="49" y="158" type="line"/>
			<point x="65" y="-14" type="line"/>
			<point x="107" y="-14" type="line"/>
			<point x="118" y="20" type="line"/>
			<point x="139" y="4"/>
			<point x="168" y="-7"/>
			<point x="203" y="-12" type="curve"/>
			<point x="178" y="-75" type="line"/>
			<point x="186" y="-96" type="line"/>
			<point x="195" y="-94"/>
			<point x="203" y="-93"/>
			<point x="216" y="-93" type="curve" smooth="yes"/>
			<point x="248" y="-93"/>
			<point x="266" y="-103"/>
			<point x="266" y="-131" type="curve" smooth="yes"/>
			<point x="266" y="-161"/>
			<point x="242" y="-174"/>
			<point x="216" y="-174" type="curve" smooth="yes"/>
			<point x="194" y="-174"/>
			<point x="169" y="-165"/>
			<point x="152" y="-152" type="curve"/>
			<point x="128" y="-189" type="line"/>
			<point x="139" y="-201"/>
			<point x="176" y="-229"/>
		</contour>
	</outline>
	<anchor name="bottom" x="234" y="-30"/>
	<anchor name="top" x="235" y="550"/>
</glyph>
<glyph name="tcedilla" format="2">
	<unicode hex="0163"/>
	<advance width="404"/>
	<outline>
		<contour>
			<point x="243" y="-229" type="curve" smooth="yes"/>
			<point x="321" y="-229"/>
			<point x="358" y="-189"/>
			<point x="358" y="-133" type="curve" smooth="yes"/>
			<point x="358" y="-76"/>
			<point x="316" y="-49"/>
			<point x="252" y="-57" type="curve"/>
			<point x="269" y="-13" type="line"/>
			<point x="315" y="-7"/>
			<point x="361" y="17"/>
			<point x="399" y="55" type="curve"/>
			<point x="376" y="91" type="line"/>
			<point x="344" y="69"/>
			<point x="314" y="59"/>
			<point x="280" y="59" type="curve" smooth="yes"/>
			<point x="232" y="59"/>
			<point x="209" y="86"/>
			<point x="209" y="142" type="curve" smooth="yes"/>
			<point x="209" y="444" type="line"/>
			<point x="365" y="444" type="line"/>
			<point x="365" y="507" type="line"/>
			<point x="209" y="507" type="line"/>
			<point x="209" y="674" type="line"/>
			<point x="196" y="680" type="line"/>
			<point x="148" y="674" type="line"/>
			<point x="139" y="552"/>
			<point x="107" y="501"/>
			<point x="37" y="496" type="curve"/>
			<point x="37" y="444" type="line"/>
			<point x="116" y="444" type="line"/>
			<point x="116" y="135" type="line" smooth="yes"/>
			<point x="116" y="43"/>
			<point x="150" y="-4"/>
			<point x="223" y="-13" type="curve"/>
			<point x="198" y="-75" type="line"/>
			<point x="206" y="-96" type="line"/>
			<point x="215" y="-94"/>
			<point x="223" y="-93"/>
			<point x="236" y="-93" type="curve" smooth="yes"/>
			<point x="268" y="-93"/>
			<point x="286" y="-103"/>
			<point x="286" y="-131" type="curve" smooth="yes"/>
			<point x="286" y="-161"/>
			<point x="262" y="-174"/>
			<point x="236" y="-174" type="curve" smooth="yes"/>
			<point x="214" y="-174"/>
			<point x="189" y="-165"/>
			<point x="172" y="-152" type="curve"/>
			<point x="148" y="-189" type="line"/>
			<point x="159" y="-201"/>
			<point x="196" y="-229"/>
		</contour>
	</outline>
	<anchor name="bottom" x="254" y="-30"/>
</glyph>
<glyph name="tbar" format="2">
	<unicode hex="0167"/>
	<advance width="404"/>
	<outline>
		<contour>
			<point x="249" y="-14" type="curve" smooth="yes"/>
			<point x="302" y="-14"/>
			<point x="356" y="11"/>
			<point x="399" y="55" type="curve"/>
			<point x="376" y="91" type="line"/>
			<point x="344" y="69"/>
			<point x="314" y="59"/>
			<point x="280" y="59" type="curve" smooth="yes"/>
			<point x="232" y="59"/>
			<point x="209" y="86"/>
			<point x="209" y="142" type="curve" smooth="yes"/>
			<point x="209" y="262" type="line"/>
			<point x="362" y="262" type="line"/>
			<point x="362" y="321" type="line"/>
			<point x="209" y="321" type="line"/>
			<point x="209" y="444" type="line"/>
			<point x="365" y="444" type="line"/>
			<point x="365" y="507" type="line"/>
			<point x="209" y="507" type="line"/>
			<point x="209" y="674" type="line"/>
			<point x="196" y="680" type="line"/>
			<point x="148" y="674" type="line"/>
			<point x="139" y="552"/>
			<point x="107" y="501"/>
			<point x="37" y="496" type="curve"/>
			<point x="37" y="444" type="line"/>
			<point x="116" y="444" type="line"/>
			<point x="116" y="321" type="line"/>
			<point x="34" y="321" type="line"/>
			<point x="26" y="262" type="line"/>
			<point x="116" y="262" type="line"/>
			<point x="116" y="135" type="line" smooth="yes"/>
			<point x="116" y="33"/>
			<point x="158" y="-14"/>
		</contour>
	</outline>
	<anchor name="bottom" x="254" y="-30"/>
</glyph>
<glyph name="Uogonek" format="2">
	<unicode hex="0172"/>
	<advance width="810"/>
	<outline>
		<contour>
			<point x="416" y="-229" type="curve" smooth="yes"/>
			<point x="453" y="-229"/>
			<point x="488" y="-209"/>
			<point x="511" y="-190" type="curve"/>
			<point x="500" y="-155" type="line"/>
			<point x="487" y="-159"/>
			<point x="470" y="-164"/>
			<point x="451" y="-164" type="curve" smooth="yes"/>
			<point x="423" y="-164"/>
			<point x="410" y="-150"/>
			<point x="410" y="-123" type="curve" smooth="yes"/>
			<point x="410" y="-80"/>
			<point x="447" y="-35"/>
			<point x="487" y="-6" type="curve"/>
			<point x="614" y="23"/>
			<point x="677" y="122"/>
			<point x="677" y="291" type="curve" smooth="yes"/>
			<point x="677" y="592" type="line" smooth="yes"/>
			<point x="677" y="629"/>
			<point x="683" y="639"/>
			<point x="708" y="643" type="curve" smooth="yes"/>
			<point x="765" y="652" type="line"/>
			<point x="765" y="700" type="line"/>
			<point x="519" y="700" type="line"/>
			<point x="519" y="652" type="line"/>
			<point x="574" y="643" type="line" smooth="yes"/>
			<point x="601" y="639"/>
			<point x="607" y="629"/>
			<point x="607" y="596" type="curve" smooth="yes"/>
			<point x="607" y="279" type="line" smooth="yes"/>
			<point x="607" y="127"/>
			<point x="547" y="56"/>
			<point x="418" y="56" type="curve" smooth="yes"/>
			<point x="289" y="56"/>
			<point x="237" y="119"/>
			<point x="237" y="272" type="curve" smooth="yes"/>
			<point x="237" y="592" type="line" smooth="yes"/>
			<point x="237" y="628"/>
			<point x="243" y="639"/>
			<point x="267" y="643" type="curve" smooth="yes"/>
			<point x="325" y="652" type="line"/>
			<point x="325" y="700" type="line"/>
			<point x="49" y="700" type="line"/>
			<point x="49" y="652" type="line"/>
			<point x="105" y="643" type="line" smooth="yes"/>
			<point x="132" y="639"/>
			<point x="138" y="629"/>
			<point x="138" y="596" type="curve" smooth="yes"/>
			<point x="138" y="265" type="line" smooth="yes"/>
			<point x="138" y="76"/>
			<point x="224" y="-14"/>
			<point x="404" y="-14" type="curve" smooth="yes"/>
			<point x="407" y="-14"/>
			<point x="410" y="-14"/>
			<point x="413" y="-14" type="curve"/>
			<point x="369" y="-45"/>
			<point x="324" y="-87"/>
			<point x="324" y="-148" type="curve" smooth="yes"/>
			<point x="324" y="-193"/>
			<point x="358" y="-229"/>
		</contour>
	</outline>
	<anchor name="bottom" x="399" y="-30"/>
	<anchor name="top" x="416" y="730"/>
</glyph>
<glyph name="florin" format="2">
	<unicode hex="0192"/>
	<advance width="529"/>
	<outline>
		<contour>
			<point x="39" y="-193" type="curve" smooth="yes"/>
			<point x="148" y="-193"/>
			<point x="227" y="-100"/>
			<point x="245" y="45" type="curve" smooth="yes"/>
			<point x="286" y="381" type="line"/>
			<point x="432" y="381" type="line"/>
			<point x="440" y="437" type="line"/>
			<point x="294" y="437" type="line"/>
			<point x="306" y="532" type="line" smooth="yes"/>
			<point x="319" y="626"/>
			<point x="353" y="662"/>
			<point x="408" y="662" type="curve" smooth="yes"/>
			<point x="427" y="662"/>
			<point x="446" y="657"/>
			<point x="460" y="650" type="curve"/>
			<point x="446" y="630"/>
			<point x="433" y="604"/>
			<point x="433" y="590" type="curve" smooth="yes"/>
			<point x="433" y="564"/>
			<point x="446" y="550"/>
			<point x="483" y="550" type="curve" smooth="yes"/>
			<point x="522" y="550"/>
			<point x="549" y="581"/>
			<point x="549" y="618" type="curve" smooth="yes"/>
			<point x="549" y="680"/>
			<point x="490" y="714"/>
			<point x="415" y="714" type="curve" smooth="yes"/>
			<point x="302" y="714"/>
			<point x="225" y="623"/>
			<point x="206" y="478" type="curve"/>
			<point x="200" y="435" type="line"/>
			<point x="120" y="435" type="line"/>
			<point x="113" y="381" type="line"/>
			<point x="193" y="381" type="line"/>
			<point x="145" y="-10" type="line"/>
			<point x="132" y="-104"/>
			<point x="97" y="-141"/>
			<point x="46" y="-141" type="curve" smooth="yes"/>
			<point x="27" y="-141"/>
			<point x="11" y="-138"/>
			<point x="-3" y="-131" type="curve"/>
			<point x="11" y="-111"/>
			<point x="24" y="-85"/>
			<point x="24" y="-71" type="curve" smooth="yes"/>
			<point x="24" y="-45"/>
			<point x="11" y="-31"/>
			<point x="-26" y="-31" type="curve" smooth="yes"/>
			<point x="-65" y="-31"/>
			<point x="-92" y="-62"/>
			<point x="-92" y="-99" type="curve" smooth="yes"/>
			<point x="-92" y="-161"/>
			<point x="-35" y="-193"/>
		</contour>
	</outline>
</glyph>
<glyph name="ohorn" format="2">
	<unicode hex="01A1"/>
	<advance width="615"/>
	<outline>
		<contour>
			<point x="289" y="-14" type="curve" smooth="yes"/>
			<point x="432" y="-14"/>
			<point x="540" y="85"/>
			<point x="540" y="267" type="curve" smooth="yes"/>
			<point x="540" y="317"/>
			<point x="531" y="361"/>
			<point x="514" y="396" type="curve"/>
			<point x="581" y="443"/>
			<point x="615" y="523"/>
			<point x="615" y="576" type="curve" smooth="yes"/>
			<point x="615" y="622"/>
			<point x="598" y="664"/>
			<point x="544" y="664" type="curve" smooth="yes"/>
			<point x="508" y="664"/>
			<point x="480" y="637"/>
			<point x="480" y="597" type="curve" smooth="yes"/>
			<point x="480" y="563"/>
			<point x="499" y="547"/>
			<point x="542" y="547" type="curve" smooth="yes"/>
			<point x="551" y="547" type="line"/>
			<point x="548" y="509"/>
			<point x="529" y="470"/>
			<point x="487" y="440" type="curve"/>
			<point x="443" y="494"/>
			<point x="377" y="521"/>
			<point x="303" y="521" type="curve" smooth="yes"/>
			<point x="171" y="521"/>
			<point x="46" y="443"/>
			<point x="46" y="242" type="curve" smooth="yes"/>
			<point x="46" y="95"/>
			<point x="131" y="-14"/>
		</contour>
		<contour>
			<point x="303" y="48" type="curve" smooth="yes"/>
			<point x="203" y="48"/>
			<point x="147" y="136"/>
			<point x="147" y="272" type="curve" smooth="yes"/>
			<point x="147" y="406"/>
			<point x="205" y="462"/>
			<point x="287" y="462" type="curve" smooth="yes"/>
			<point x="378" y="462"/>
			<point x="438" y="382"/>
			<point x="438" y="243" type="curve" smooth="yes"/>
			<point x="438" y="115"/>
			<point x="388" y="48"/>
		</contour>
	</outline>
	<anchor name="bottom" x="295" y="-30"/>
	<anchor name="top" x="292" y="550"/>
</glyph>
<glyph name="uhorn" format="2">
	<unicode hex="01B0"/>
	<advance width="686"/>
	<outline>
		<contour>
			<point x="265" y="-14" type="curve" smooth="yes"/>
			<point x="330" y="-14"/>
			<point x="380" y="13"/>
			<point x="432" y="76" type="curve"/>
			<point x="435" y="76" type="line"/>
			<point x="449" y="-6" type="line"/>
			<point x="604" y="0" type="line"/>
			<point x="604" y="47" type="line"/>
			<point x="554" y="56" type="line" smooth="yes"/>
			<point x="527" y="61"/>
			<point x="522" y="70"/>
			<point x="522" y="101" type="curve" smooth="yes"/>
			<point x="522" y="366" type="line"/>
			<point x="631" y="396"/>
			<point x="686" y="508"/>
			<point x="686" y="576" type="curve" smooth="yes"/>
			<point x="686" y="622"/>
			<point x="669" y="664"/>
			<point x="615" y="664" type="curve" smooth="yes"/>
			<point x="579" y="664"/>
			<point x="551" y="637"/>
			<point x="551" y="597" type="curve" smooth="yes"/>
			<point x="551" y="563"/>
			<point x="570" y="547"/>
			<point x="613" y="547" type="curve" smooth="yes"/>
			<point x="622" y="547" type="line"/>
			<point x="618" y="500"/>
			<point x="590" y="450"/>
			<point x="522" y="421" type="curve"/>
			<point x="522" y="507" type="line"/>
			<point x="510" y="514" type="line"/>
			<point x="358" y="503" type="line"/>
			<point x="350" y="455" type="line"/>
			<point x="395" y="448" type="line" smooth="yes"/>
			<point x="426" y="443"/>
			<point x="429" y="431"/>
			<point x="429" y="386" type="curve" smooth="yes"/>
			<point x="429" y="198" type="line" smooth="yes"/>
			<point x="429" y="99"/>
			<point x="363" y="58"/>
			<point x="294" y="58" type="curve" smooth="yes"/>
			<point x="202" y="58"/>
			<point x="198" y="115"/>
			<point x="198" y="186" type="curve" smooth="yes"/>
			<point x="198" y="507" type="line"/>
			<point x="186" y="514" type="line"/>
			<point x="35" y="503" type="line"/>
			<point x="27" y="455" type="line"/>
			<point x="71" y="448" type="line" smooth="yes"/>
			<point x="102" y="443"/>
			<point x="105" y="431"/>
			<point x="105" y="386" type="curve" smooth="yes"/>
			<point x="105" y="157" type="line" smooth="yes"/>
			<point x="105" y="65"/>
			<point x="142" y="-14"/>
		</contour>
	</outline>
	<anchor name="bottom" x="305" y="-30"/>
	<anchor name="top" x="300" y="550"/>
</glyph>
<glyph name="Oogonek" format="2">
	<unicode hex="01EA"/>
	<advance width="760"/>
	<outline>
		<contour>
			<point x="389" y="-229" type="curve" smooth="yes"/>
			<point x="426" y="-229"/>
			<point x="461" y="-209"/>
			<point x="484" y="-190" type="curve"/>
			<point x="473" y="-155" type="line"/>
			<point x="460" y="-159"/>
			<point x="443" y="-164"/>
			<point x="424" y="-164" type="curve" smooth="yes"/>
			<point x="396" y="-164"/>
			<point x="383" y="-150"/>
			<point x="383" y="-123" type="curve" smooth="yes"/>
			<point x="383" y="-77"/>
			<point x="421" y="-37"/>
			<point x="458" y="-5" type="curve"/>
			<point x="611" y="31"/>
			<point x="710" y="172"/>
			<point x="710" y="368" type="curve" smooth="yes"/>
			<point x="710" y="576"/>
			<point x="581" y="714"/>
			<point x="387" y="714" type="curve" smooth="yes"/>
			<point x="181" y="714"/>
			<point x="50" y="567"/>
			<point x="50" y="336" type="curve" smooth="yes"/>
			<point x="50" y="126"/>
			<point x="181" y="-14"/>
			<point x="378" y="-14" type="curve" smooth="yes"/>
			<point x="381" y="-14"/>
			<point x="383" y="-14"/>
			<point x="386" y="-14" type="curve"/>
			<point x="342" y="-45"/>
			<point x="297" y="-87"/>
			<point x="297" y="-148" type="curve" smooth="yes"/>
			<point x="297" y="-193"/>
			<point x="331" y="-229"/>
		</contour>
		<contour>
			<point x="390" y="53" type="curve" smooth="yes"/>
			<point x="246" y="53"/>
			<point x="156" y="170"/>
			<point x="156" y="357" type="curve" smooth="yes"/>
			<point x="156" y="544"/>
			<point x="235" y="650"/>
			<point x="374" y="650" type="curve" smooth="yes"/>
			<point x="517" y="650"/>
			<point x="601" y="538"/>
			<point x="601" y="349" type="curve" smooth="yes"/>
			<point x="601" y="156"/>
			<point x="528" y="53"/>
		</contour>
	</outline>
	<anchor name="bottom" x="376" y="-30"/>
	<anchor name="top" x="382" y="730"/>
</glyph>
<glyph name="oogonek" format="2">
	<unicode hex="01EB"/>
	<advance width="586"/>
	<outline>
		<contour>
			<point x="293" y="-229" type="curve" smooth="yes"/>
			<point x="330" y="-229"/>
			<point x="365" y="-209"/>
			<point x="388" y="-190" type="curve"/>
			<point x="377" y="-155" type="line"/>
			<point x="364" y="-159"/>
			<point x="347" y="-164"/>
			<point x="328" y="-164" type="curve" smooth="yes"/>
			<point x="300" y="-164"/>
			<point x="287" y="-150"/>
			<point x="287" y="-123" type="curve" smooth="yes"/>
			<point x="287" y="-77"/>
			<point x="326" y="-36"/>
			<point x="363" y="-5" type="curve"/>
			<point x="473" y="26"/>
			<point x="540" y="125"/>
			<point x="540" y="267" type="curve" smooth="yes"/>
			<point x="540" y="422"/>
			<point x="448" y="521"/>
			<point x="303" y="521" type="curve" smooth="yes"/>
			<point x="144" y="521"/>
			<point x="46" y="414"/>
			<point x="46" y="242" type="curve" smooth="yes"/>
			<point x="46" y="89"/>
			<point x="136" y="-9"/>
			<point x="279" y="-14" type="curve" smooth="yes"/>
			<point x="282" y="-14"/>
			<point x="285" y="-14"/>
			<point x="290" y="-14" type="curve"/>
			<point x="246" y="-45"/>
			<point x="201" y="-87"/>
			<point x="201" y="-148" type="curve" smooth="yes"/>
			<point x="201" y="-193"/>
			<point x="235" y="-229"/>
		</contour>
		<contour>
			<point x="303" y="48" type="curve" smooth="yes"/>
			<point x="206" y="48"/>
			<point x="147" y="132"/>
			<point x="147" y="272" type="curve" smooth="yes"/>
			<point x="147" y="395"/>
			<point x="197" y="462"/>
			<point x="287" y="462" type="curve" smooth="yes"/>
			<point x="380" y="462"/>
			<point x="438" y="378"/>
			<point x="438" y="243" type="curve" smooth="yes"/>
			<point x="438" y="118"/>
			<point x="390" y="48"/>
		</contour>
	</outline>
	<anchor name="bottom" x="294" y="-30"/>
	<anchor name="top" x="294" y="550"/>
</glyph>
<glyph name="Aringacute" format="2">
	<unicode hex="01FA"/>
	<advance width="735"/>
	<outline>
		<contour>
			<point x="15" y="0" type="line"/>
			<point x="257" y="0" type="line"/>
			<point x="257" y="47" type="line"/>
			<point x="200" y="56" type="line" smooth="yes"/>
			<point x="165" y="61"/>
			<point x="168" y="82"/>
			<point x="177" y="109" type="curve" smooth="yes"/>
			<point x="219" y="231" type="line"/>
			<point x="487" y="231" type="line"/>
			<point x="531" y="105" type="line" smooth="yes"/>
			<point x="543" y="71"/>
			<point x="537" y="59"/>
			<point x="511" y="55" type="curve" smooth="yes"/>
			<point x="453" y="48" type="line"/>
			<point x="453" y="0" type="line"/>
			<point x="720" y="0" type="line"/>
			<point x="720" y="50" type="line"/>
			<point x="679" y="59" type="line" smooth="yes"/>
			<point x="651" y="65"/>
			<point x="648" y="75"/>
			<point x="635" y="109" type="curve" smooth="yes"/>
			<point x="436" y="671" type="line"/>
			<point x="464" y="688"/>
			<point x="479" y="719"/>
			<point x="479" y="757" type="curve" smooth="yes"/>
			<point x="479" y="815"/>
			<point x="444" y="854"/>
			<point x="376" y="854" type="curve" smooth="yes"/>
			<point x="304" y="854"/>
			<point x="269" y="809"/>
			<point x="269" y="755" type="curve" smooth="yes"/>
			<point x="269" y="717"/>
			<point x="282" y="687"/>
			<point x="309" y="670" type="curve"/>
			<point x="109" y="110" type="line" smooth="yes"/>
			<point x="94" y="68"/>
			<point x="87" y="61"/>
			<point x="63" y="56" type="curve" smooth="yes"/>
			<point x="15" y="48" type="line"/>
		</contour>
		<contour>
			<point x="239" y="288" type="line"/>
			<point x="353" y="617" type="line"/>
			<point x="357" y="617" type="line"/>
			<point x="468" y="288" type="line"/>
		</contour>
		<contour>
			<point x="375" y="701" type="curve" smooth="yes"/>
			<point x="338" y="701"/>
			<point x="325" y="728"/>
			<point x="325" y="755" type="curve" smooth="yes"/>
			<point x="325" y="782"/>
			<point x="338" y="809"/>
			<point x="373" y="809" type="curve" smooth="yes"/>
			<point x="407" y="809"/>
			<point x="422" y="783"/>
			<point x="422" y="755" type="curve" smooth="yes"/>
			<point x="422" y="726"/>
			<point x="411" y="701"/>
		</contour>
		<contour>
			<point x="299" y="885" type="line"/>
			<point x="450" y="951" type="line" smooth="yes"/>
			<point x="476" y="962"/>
			<point x="492" y="979"/>
			<point x="492" y="1007" type="curve" smooth="yes"/>
			<point x="492" y="1029"/>
			<point x="474" y="1055"/>
			<point x="449" y="1055" type="curve" smooth="yes"/>
			<point x="437" y="1055"/>
			<point x="427" y="1047"/>
			<point x="410" y="1032" type="curve" smooth="yes"/>
			<point x="279" y="913" type="line"/>
		</contour>
	</outline>
	<anchor name="bottom" x="357" y="-30"/>
	<anchor name="top" x="373" y="730"/>
</glyph>
<glyph name="jdotless" format="2">
	<unicode hex="0237"/>
	<advance width="302"/>
	<outline>
		<contour>
			<point x="62" y="-229" type="line"/>
			<point x="176" y="-167"/>
			<point x="214" y="-87"/>
			<point x="214" y="95" type="curve" smooth="yes"/>
			<point x="214" y="505" type="line"/>
			<point x="202" y="510" type="line"/>
			<point x="45" y="502" type="line"/>
			<point x="37" y="452" type="line"/>
			<point x="85" y="445" type="line" smooth="yes"/>
			<point x="118" y="441"/>
			<point x="121" y="427"/>
			<point x="121" y="382" type="curve" smooth="yes"/>
			<point x="121" y="28" type="line" smooth="yes"/>
			<point x="121" y="-69"/>
			<point x="101" y="-135"/>
			<point x="34" y="-188" type="curve"/>
		</contour>
	</outline>
	<anchor name="top" x="140" y="550"/>
</glyph>
<glyph name="ringhalfleft" format="2">
	<unicode hex="02BF"/>
	<advance width="500"/>
	<outline>
		<contour>
			<point x="281" y="582" type="curve" smooth="yes"/>
			<point x="284" y="582" type="line"/>
			<point x="284" y="628" type="line"/>
			<point x="282" y="628" type="line" smooth="yes"/>
			<point x="245" y="628"/>
			<point x="232" y="655"/>
			<point x="232" y="682" type="curve" smooth="yes"/>
			<point x="232" y="709"/>
			<point x="245" y="736"/>
			<point x="280" y="736" type="curve" smooth="yes"/>
			<point x="284" y="736" type="line"/>
			<point x="284" y="781" type="line"/>
			<point x="283" y="781" type="line"/>
			<point x="211" y="781"/>
			<point x="176" y="736"/>
			<point x="176" y="682" type="curve" smooth="yes"/>
			<point x="176" y="622"/>
			<point x="208" y="582"/>
		</contour>
	</outline>
	<anchor name="_top" x="250" y="550"/>
</glyph>
<glyph name="circumflex" format="2">
	<unicode hex="02C6"/>
	<advance width="500"/>
	<outline>
		<contour>
			<point x="125" y="580" type="line"/>
			<point x="252" y="680" type="line"/>
			<point x="375" y="580" type="line"/>
			<point x="402" y="606" type="line"/>
			<point x="293" y="751" type="line" smooth="yes"/>
			<point x="276" y="774"/>
			<point x="266" y="779"/>
			<point x="252" y="779" type="curve" smooth="yes"/>
			<point x="238" y="779"/>
			<point x="225" y="772"/>
			<point x="213" y="757" type="curve" smooth="yes"/>
			<point x="99" y="605" type="line"/>
		</contour>
	</outline>
	<anchor name="_top" x="250" y="550"/>
</glyph>
<glyph name="breve" format="2">
	<unicode hex="02D8"/>
	<advance width="500"/>
	<outline>
		<contour>
			<point x="247" y="587" type="curve" smooth="yes"/>
			<point x="344" y="587"/>
			<point x="393" y="678"/>
			<point x="400" y="757" type="curve"/>
			<point x="362" y="767" type="line"/>
			<point x="347" y="710"/>
			<point x="312" y="667"/>
			<point x="252" y="667" type="curve" smooth="yes"/>
			<point x="193" y="667"/>
			<point x="160" y="702"/>
			<point x="141" y="768" type="curve"/>
			<point x="101" y="756" type="line"/>
			<point x="110" y="670"/>
			<point x="152" y="587"/>
		</contour>
	</outline>
	<anchor name="_top" x="250" y="550"/>
</glyph>
<glyph name="tilde" format="2">
	<unicode hex="02DC"/>
	<advance width="500"/>
	<outline>
		<contour>
			<point x="324" y="620" type="curve" smooth="yes"/>
			<point x="360" y="620"/>
			<point x="380" y="640"/>
			<point x="414" y="712" type="curve"/>
			<point x="383" y="731" type="line"/>
			<point x="364" y="701"/>
			<point x="356" y="694"/>
			<point x="339" y="694" type="curve" smooth="yes"/>
			<point x="329" y="694"/>
			<point x="312" y="700"/>
			<point x="265" y="718" type="curve" smooth="yes"/>
			<point x="221" y="737"/>
			<point x="202" y="742"/>
			<point x="179" y="742" type="curve" smooth="yes"/>
			<point x="139" y="742"/>
			<point x="119" y="722"/>
			<point x="86" y="651" type="curve"/>
			<point x="117" y="632" type="line"/>
			<point x="137" y="662"/>
			<point x="146" y="669"/>
			<point x="164" y="669" type="curve" smooth="yes"/>
			<point x="173" y="669"/>
			<point x="180" y="667"/>
			<point x="234" y="644" type="curve" smooth="yes"/>
			<point x="276" y="626"/>
			<point x="299" y="620"/>
		</contour>
	</outline>
	<anchor name="_top" x="250" y="550"/>
</glyph>
<glyph name="circumflexcomb" format="2">
	<unicode hex="0302"/>
	<outline>
		<contour>
			<point x="-125" y="580" type="line"/>
			<point x="2" y="680" type="line"/>
			<point x="125" y="580" type="line"/>
			<point x="152" y="606" type="line"/>
			<point x="43" y="751" type="line" smooth="yes"/>
			<point x="26" y="774"/>
			<point x="16" y="779"/>
			<point x="2" y="779" type="curve" smooth="yes"/>
			<point x="-12" y="779"/>
			<point x="-25" y="772"/>
			<point x="-37" y="757" type="curve" smooth="yes"/>
			<point x="-151" y="605" type="line"/>
		</contour>
	</outline>
	<anchor name="_top" x="0" y="550"/>
</glyph>
<glyph name="dotaccentcomb" format="2">
	<unicode hex="0307"/>
	<outline>
		<contour>
			<point x="-1" y="622" type="curve" smooth="yes"/>
			<point x="39" y="622"/>
			<point x="67" y="650"/>
			<point x="67" y="689" type="curve" smooth="yes"/>
			<point x="67" y="728"/>
			<point x="39" y="755"/>
			<point x="-1" y="755" type="curve" smooth="yes"/>
			<point x="-40" y="755"/>
			<point x="-68" y="727"/>
			<point x="-68" y="688" type="curve" smooth="yes"/>
			<point x="-68" y="649"/>
			<point x="-40" y="622"/>
		</contour>
	</outline>
	<anchor name="_top" x="0" y="550"/>
</glyph>
<glyph name="hookabovecomb" format="2">
	<unicode hex="0309"/>
	<outline>
		<contour>
			<point x="-35" y="575" type="line"/>
			<point x="28" y="575" type="line"/>
			<point x="28" y="597" type="line" smooth="yes"/>
			<point x="28" y="630"/>
			<point x="115" y="658"/>
			<point x="115" y="726" type="curve" smooth="yes"/>
			<point x="115" y="787"/>
			<point x="61" y="808"/>
			<point x="-3" y="808" type="curve" smooth="yes"/>
			<point x="-67" y="808"/>
			<point x="-120" y="777"/>
			<point x="-120" y="728" type="curve" smooth="yes"/>
			<point x="-120" y="705"/>
			<point x="-106" y="689"/>
			<point x="-82" y="689" type="curve" smooth="yes"/>
			<point x="-59" y="689"/>
			<point x="-39" y="702"/>
			<point x="-39" y="720" type="curve" smooth="yes"/>
			<point x="-39" y="726"/>
			<point x="-47" y="740"/>
			<point x="-57" y="751" type="curve"/>
			<point x="-47" y="760"/>
			<point x="-31" y="765"/>
			<point x="-5" y="765" type="curve" smooth="yes"/>
			<point x="25" y="765"/>
			<point x="39" y="751"/>
			<point x="39" y="728" type="curve" smooth="yes"/>
			<point x="39" y="683"/>
			<point x="-35" y="671"/>
			<point x="-35" y="622" type="curve" smooth="yes"/>
		</contour>
	</outline>
	<anchor name="_top" x="0" y="550"/>
</glyph>
<glyph name="ringcomb" format="2">
	<unicode hex="030A"/>
	<outline>
		<contour>
			<point x="0" y="582" type="curve" smooth="yes"/>
			<point x="68" y="582"/>
			<point x="105" y="624"/>
			<point x="105" y="684" type="curve" smooth="yes"/>
			<point x="105" y="742"/>
			<point x="70" y="781"/>
			<point x="2" y="781" type="curve" smooth="yes"/>
			<point x="-70" y="781"/>
			<point x="-105" y="736"/>
			<point x="-105" y="682" type="curve" smooth="yes"/>
			<point x="-105" y="622"/>
			<point x="-73" y="582"/>
		</contour>
		<contour>
			<point x="1" y="628" type="curve" smooth="yes"/>
			<point x="-36" y="628"/>
			<point x="-49" y="655"/>
			<point x="-49" y="682" type="curve" smooth="yes"/>
			<point x="-49" y="709"/>
			<point x="-36" y="736"/>
			<point x="-1" y="736" type="curve" smooth="yes"/>
			<point x="33" y="736"/>
			<point x="48" y="710"/>
			<point x="48" y="682" type="curve" smooth="yes"/>
			<point x="48" y="653"/>
			<point x="37" y="628"/>
		</contour>
	</outline>
	<anchor name="_top" x="0" y="550"/>
</glyph>
<glyph name="hungarumlautcomb" format="2">
	<unicode hex="030B"/>
	<outline>
		<contour>
			<point x="54" y="580" type="line"/>
			<point x="172" y="668" type="line" smooth="yes"/>
			<point x="193" y="683"/>
			<point x="206" y="705"/>
			<point x="206" y="725" type="curve" smooth="yes"/>
			<point x="206" y="748"/>
			<point x="192" y="767"/>
			<point x="163" y="767" type="curve" smooth="yes"/>
			<point x="149" y="767"/>
			<point x="138" y="759"/>
			<point x="123" y="738" type="curve" smooth="yes"/>
			<point x="30" y="605" type="line"/>
		</contour>
		<contour>
			<point x="-87" y="580" type="line"/>
			<point x="23" y="672" type="line" smooth="yes"/>
			<point x="44" y="689"/>
			<point x="54" y="707"/>
			<point x="54" y="726" type="curve" smooth="yes"/>
			<point x="54" y="751"/>
			<point x="40" y="770"/>
			<point x="11" y="770" type="curve" smooth="yes"/>
			<point x="-3" y="770"/>
			<point x="-13" y="763"/>
			<point x="-27" y="741" type="curve" smooth="yes"/>
			<point x="-111" y="605" type="line"/>
		</contour>
	</outline>
	<anchor name="_top" x="0" y="550"/>
</glyph>
<glyph name="horncomb" format="2">
	<unicode hex="031B"/>
	<outline>
		<contour>
			<point x="-98" y="365" type="line"/>
			<point x="15" y="393"/>
			<point x="71" y="507"/>
			<point x="71" y="576" type="curve" smooth="yes"/>
			<point x="71" y="622"/>
			<point x="54" y="664"/>
			<point x="0" y="664" type="curve" smooth="yes"/>
			<point x="-36" y="664"/>
			<point x="-64" y="637"/>
			<point x="-64" y="597" type="curve" smooth="yes"/>
			<point x="-64" y="563"/>
			<point x="-45" y="547"/>
			<point x="-2" y="547" type="curve" smooth="yes"/>
			<point x="7" y="547" type="line"/>
			<point x="3" y="499"/>
			<point x="-26" y="448"/>
			<point x="-98" y="419" type="curve"/>
		</contour>
	</outline>
</glyph>
<glyph name="cedillacomb" format="2">
	<unicode hex="0327"/>
	<outline>
		<contour>
			<point x="-9" y="-229" type="curve" smooth="yes"/>
			<point x="69" y="-229"/>
			<point x="106" y="-189"/>
			<point x="106" y="-133" type="curve" smooth="yes"/>
			<point x="106" y="-76"/>
			<point x="64" y="-49"/>
			<point x="0" y="-57" type="curve"/>
			<point x="27" y="13" type="line"/>
			<point x="-19" y="13" type="line"/>
			<point x="-54" y="-75" type="line"/>
			<point x="-46" y="-96" type="line"/>
			<point x="-37" y="-94"/>
			<point x="-29" y="-93"/>
			<point x="-16" y="-93" type="curve" smooth="yes"/>
			<point x="16" y="-93"/>
			<point x="34" y="-103"/>
			<point x="34" y="-131" type="curve" smooth="yes"/>
			<point x="34" y="-161"/>
			<point x="10" y="-174"/>
			<point x="-16" y="-174" type="curve" smooth="yes"/>
			<point x="-38" y="-174"/>
			<point x="-63" y="-165"/>
			<point x="-80" y="-152" type="curve"/>
			<point x="-104" y="-189" type="line"/>
			<point x="-93" y="-201"/>
			<point x="-56" y="-229"/>
		</contour>
	</outline>
	<anchor name="_bottom" x="1" y="-30"/>
</glyph>
<glyph name="ogonekcomb" format="2">
	<unicode hex="0328"/>
	<outline>
		<contour>
			<point x="-1" y="-229" type="curve" smooth="yes"/>
			<point x="36" y="-229"/>
			<point x="71" y="-209"/>
			<point x="94" y="-190" type="curve"/>
			<point x="83" y="-155" type="line"/>
			<point x="70" y="-159"/>
			<point x="53" y="-164"/>
			<point x="34" y="-164" type="curve" smooth="yes"/>
			<point x="6" y="-164"/>
			<point x="-7" y="-150"/>
			<point x="-7" y="-123" type="curve" smooth="yes"/>
			<point x="-7" y="-72"/>
			<point x="40" y="-28"/>
			<point x="80" y="5" type="curve"/>
			<point x="31" y="9" type="line"/>
			<point x="-20" y="-23"/>
			<point x="-93" y="-70"/>
			<point x="-93" y="-148" type="curve" smooth="yes"/>
			<point x="-93" y="-193"/>
			<point x="-59" y="-229"/>
		</contour>
	</outline>
	<anchor name="_bottom" x="0" y="-30"/>
</glyph>
<glyph name="macronbelowcomb" format="2">
	<unicode hex="0331"/>
	<outline>
		<contour>
			<point x="-140" y="-162" type="line"/>
			<point x="140" y="-162" type="line"/>
			<point x="140" y="-89" type="line"/>
			<point x="-140" y="-89" type="line"/>
		</contour>
	</outline>
	<anchor name="_bottom" x="0" y="-30"/>
</glyph>
<glyph name="numeral-greek" format="2">
	<unicode hex="0374"/>
	<advance width="345"/>
	<outline>
		<contour>
			<point x="88" y="523" type="line"/>
			<point x="228" y="699" type="line"/>
			<point x="229" y="713" type="line"/>
			<point x="213" y="748"/>
			<point x="195" y="762"/>
			<point x="166" y="762" type="curve" smooth="yes"/>
			<point x="143" y="762"/>
			<point x="129" y="750"/>
			<point x="117" y="717" type="curve" smooth="yes"/>
			<point x="53" y="541" type="line"/>
		</contour>
	</outline>
</glyph>
<glyph name="tonos" format="2">
	<unicode hex="0384"/>
	<advance width="488"/>
	<outline>
		<contour>
			<point x="208" y="576" type="line"/>
			<point x="352" y="735" type="line"/>
			<point x="352" y="749" type="line"/>
			<point x="336" y="785"/>
			<point x="317" y="800"/>
			<point x="289" y="800" type="curve" smooth="yes"/>
			<point x="265" y="800"/>
			<point x="253" y="789"/>
			<point x="240" y="757" type="curve" smooth="yes"/>
			<point x="173" y="594" type="line"/>
		</contour>
	</outline>
	<anchor name="_top" x="191" y="550"/>
</glyph>
<glyph name="Gamma" format="2">
	<unicode hex="0393"/>
	<advance width="605"/>
	<outline>
		<contour>
			<point x="62" y="0" type="line"/>
			<point x="357" y="0" type="line"/>
			<point x="357" y="48" type="line"/>
			<point x="287" y="56" type="line" smooth="yes"/>
			<point x="258" y="60"/>
			<point x="250" y="70"/>
			<point x="250" y="106" type="curve" smooth="yes"/>
			<point x="250" y="646" type="line"/>
			<point x="344" y="646" type="line" smooth="yes"/>
			<point x="440" y="646"/>
			<point x="465" y="624"/>
			<point x="510" y="503" type="curve"/>
			<point x="562" y="521" type="line"/>
			<point x="526" y="700" type="line"/>
			<point x="62" y="700" type="line"/>
			<point x="62" y="652" type="line"/>
			<point x="118" y="643" type="line" smooth="yes"/>
			<point x="145" y="638"/>
			<point x="151" y="630"/>
			<point x="151" y="596" type="curve" smooth="yes"/>
			<point x="151" y="108" type="line" smooth="yes"/>
			<point x="151" y="71"/>
			<point x="145" y="61"/>
			<point x="120" y="57" type="curve" smooth="yes"/>
			<point x="62" y="48" type="line"/>
		</contour>
	</outline>
</glyph>
<glyph name="Theta" format="2">
	<unicode hex="0398"/>
	<advance width="772"/>
	<outline>
		<contour>
			<point x="390" y="-14" type="curve" smooth="yes"/>
			<point x="588" y="-14"/>
			<point x="722" y="140"/>
			<point x="722" y="368" type="curve" smooth="yes"/>
			<point x="722" y="576"/>
			<point x="593" y="714"/>
			<point x="399" y="714" type="curve" smooth="yes"/>
			<point x="193" y="714"/>
			<point x="62" y="567"/>
			<point x="62" y="336" type="curve" smooth="yes"/>
			<point x="62" y="126"/>
			<point x="193" y="-14"/>
		</contour>
		<contour>
			<point x="402" y="53" type="curve" smooth="yes"/>
			<point x="258" y="53"/>
			<point x="168" y="170"/>
			<point x="168" y="357" type="curve" smooth="yes"/>
			<point x="168" y="544"/>
			<point x="247" y="650"/>
			<point x="386" y="650" type="curve" smooth="yes"/>
			<point x="529" y="650"/>
			<point x="613" y="538"/>
			<point x="613" y="349" type="curve" smooth="yes"/>
			<point x="613" y="156"/>
			<point x="540" y="53"/>
		</contour>
		<contour>
			<point x="240" y="240" type="line"/>
			<point x="281" y="245" type="line"/>
			<point x="296" y="313"/>
			<point x="300" y="318"/>
			<point x="344" y="318" type="curve" smooth="yes"/>
			<point x="436" y="318" type="line" smooth="yes"/>
			<point x="482" y="318"/>
			<point x="489" y="310"/>
			<point x="499" y="243" type="curve"/>
			<point x="540" y="250" type="line"/>
			<point x="540" y="452" type="line"/>
			<point x="499" y="447" type="line"/>
			<point x="485" y="379"/>
			<point x="481" y="374"/>
			<point x="436" y="374" type="curve" smooth="yes"/>
			<point x="344" y="374" type="line" smooth="yes"/>
			<point x="298" y="374"/>
			<point x="290" y="384"/>
			<point x="281" y="449" type="curve"/>
			<point x="240" y="442" type="line"/>
		</contour>
	</outline>
</glyph>
<glyph name="Xi" format="2">
	<unicode hex="039E"/>
	<advance width="671"/>
	<outline>
		<contour>
			<point x="76" y="0" type="line"/>
			<point x="594" y="0" type="line"/>
			<point x="618" y="193" type="line"/>
			<point x="563" y="193" type="line"/>
			<point x="539" y="99"/>
			<point x="516" y="77"/>
			<point x="443" y="77" type="curve"/>
			<point x="227" y="77" type="line" smooth="yes"/>
			<point x="155" y="77"/>
			<point x="133" y="99"/>
			<point x="108" y="193" type="curve"/>
			<point x="53" y="193" type="line"/>
		</contour>
		<contour>
			<point x="147" y="245" type="line"/>
			<point x="188" y="250" type="line"/>
			<point x="201" y="304"/>
			<point x="207" y="310"/>
			<point x="251" y="310" type="curve" smooth="yes"/>
			<point x="412" y="310" type="line" smooth="yes"/>
			<point x="458" y="310"/>
			<point x="467" y="301"/>
			<point x="475" y="248" type="curve"/>
			<point x="516" y="255" type="line"/>
			<point x="516" y="457" type="line"/>
			<point x="475" y="452" type="line"/>
			<point x="462" y="393"/>
			<point x="456" y="387"/>
			<point x="412" y="387" type="curve" smooth="yes"/>
			<point x="251" y="387" type="line" smooth="yes"/>
			<point x="206" y="387"/>
			<point x="197" y="396"/>
			<point x="188" y="454" type="curve"/>
			<point x="147" y="447" type="line"/>
		</contour>
		<contour>
			<point x="114" y="515" type="line"/>
			<point x="143" y="603"/>
			<point x="165" y="623"/>
			<point x="237" y="623" type="curve" smooth="yes"/>
			<point x="423" y="623" type="line" smooth="yes"/>
			<point x="507" y="623"/>
			<point x="526" y="608"/>
			<point x="557" y="515" type="curve"/>
			<point x="609" y="532" type="line"/>
			<point x="572" y="700" type="line"/>
			<point x="99" y="700" type="line"/>
			<point x="62" y="532" type="line"/>
		</contour>
	</outline>
</glyph>
<glyph name="Pi" format="2">
	<unicode hex="03A0"/>
	<advance width="829"/>
	<outline>
		<contour>
			<point x="62" y="0" type="line"/>
			<point x="338" y="0" type="line"/>
			<point x="338" y="48" type="line"/>
			<point x="282" y="57" type="line" smooth="yes"/>
			<point x="256" y="62"/>
			<point x="250" y="70"/>
			<point x="250" y="104" type="curve" smooth="yes"/>
			<point x="250" y="637" type="line"/>
			<point x="580" y="637" type="line"/>
			<point x="580" y="108" type="line" smooth="yes"/>
			<point x="580" y="71"/>
			<point x="574" y="60"/>
			<point x="550" y="57" type="curve" smooth="yes"/>
			<point x="492" y="48" type="line"/>
			<point x="492" y="0" type="line"/>
			<point x="767" y="0" type="line"/>
			<point x="767" y="48" type="line"/>
			<point x="712" y="57" type="line" smooth="yes"/>
			<point x="685" y="62"/>
			<point x="679" y="70"/>
			<point x="679" y="104" type="curve" smooth="yes"/>
			<point x="679" y="592" type="line" smooth="yes"/>
			<point x="679" y="627"/>
			<point x="686" y="639"/>
			<point x="710" y="643" type="curve" smooth="yes"/>
			<point x="767" y="652" type="line"/>
			<point x="767" y="700" type="line"/>
			<point x="62" y="700" type="line"/>
			<point x="62" y="652" type="line"/>
			<point x="118" y="643" type="line" smooth="yes"/>
			<point x="145" y="638"/>
			<point x="151" y="630"/>
			<point x="151" y="596" type="curve" smooth="yes"/>
			<point x="151" y="108" type="line" smooth="yes"/>
			<point x="151" y="70"/>
			<point x="145" y="60"/>
			<point x="120" y="57" type="curve" smooth="yes"/>
			<point x="62" y="48" type="line"/>
		</contour>
	</outline>
</glyph>
<glyph name="Sigma" format="2">
	<unicode hex="03A3"/>
	<advance width="656"/>
	<outline>
		<contour>
			<point x="58" y="0" type="line"/>
			<point x="570" y="0" type="line"/>
			<point x="596" y="224" type="line"/>
			<point x="541" y="224" type="line"/>
			<point x="505" y="105"/>
			<point x="477" y="75"/>
			<point x="399" y="75" type="curve" smooth="yes"/>
			<point x="130" y="75" type="line"/>
			<point x="148" y="50" type="line"/>
			<point x="391" y="360" type="line"/>
			<point x="391" y="369" type="line"/>
			<point x="189" y="647" type="line"/>
			<point x="367" y="647" type="line" smooth="yes"/>
			<point x="453" y="647"/>
			<point x="480" y="623"/>
			<point x="525" y="503" type="curve"/>
			<point x="577" y="521" type="line"/>
			<point x="541" y="700" type="line"/>
			<point x="61" y="700" type="line"/>
			<point x="61" y="650" type="line"/>
			<point x="287" y="340" type="line"/>
			<point x="58" y="42" type="line"/>
		</contour>
	</outline>
</glyph>
<glyph name="Omega" format="2">
	<unicode hex="03A9"/>
	<advance width="835"/>
	<outline>
		<contour>
			<point x="85" y="0" type="line"/>
			<point x="376" y="0" type="line"/>
			<point x="376" y="162" type="line"/>
			<point x="252" y="204"/>
			<point x="195" y="284"/>
			<point x="195" y="417" type="curve" smooth="yes"/>
			<point x="195" y="565"/>
			<point x="276" y="650"/>
			<point x="418" y="650" type="curve" smooth="yes"/>
			<point x="547" y="650"/>
			<point x="640" y="556"/>
			<point x="640" y="424" type="curve" smooth="yes"/>
			<point x="640" y="283"/>
			<point x="586" y="205"/>
			<point x="458" y="161" type="curve"/>
			<point x="458" y="0" type="line"/>
			<point x="750" y="0" type="line"/>
			<point x="775" y="214" type="line"/>
			<point x="720" y="214" type="line"/>
			<point x="685" y="104"/>
			<point x="674" y="64"/>
			<point x="578" y="64" type="curve" smooth="yes"/>
			<point x="517" y="64" type="line"/>
			<point x="517" y="121" type="line"/>
			<point x="651" y="164"/>
			<point x="745" y="288"/>
			<point x="745" y="421" type="curve" smooth="yes"/>
			<point x="745" y="597"/>
			<point x="617" y="714"/>
			<point x="424" y="714" type="curve" smooth="yes"/>
			<point x="229" y="714"/>
			<point x="89" y="587"/>
			<point x="89" y="410" type="curve" smooth="yes"/>
			<point x="89" y="277"/>
			<point x="182" y="159"/>
			<point x="317" y="122" type="curve"/>
			<point x="317" y="64" type="line"/>
			<point x="249" y="64" type="line" smooth="yes"/>
			<point x="153" y="64"/>
			<point x="144" y="123"/>
			<point x="115" y="214" type="curve"/>
			<point x="60" y="214" type="line"/>
		</contour>
	</outline>
	<anchor name="bottom" x="417" y="-45"/>
	<anchor name="side" x="835" y="217"/>
	<anchor name="topleft" x="69" y="700"/>
	<guideline x="89" y="418" angle="90"/>
</glyph>
<glyph name="alpha" format="2">
	<unicode hex="03B1"/>
	<advance width="618"/>
	<outline>
		<contour>
			<point x="242" y="-14" type="curve" smooth="yes"/>
			<point x="322" y="-14"/>
			<point x="376" y="21"/>
			<point x="408" y="93" type="curve"/>
			<point x="411" y="93" type="line"/>
			<point x="425" y="15"/>
			<point x="450" y="-14"/>
			<point x="503" y="-14" type="curve" smooth="yes"/>
			<point x="536" y="-14"/>
			<point x="574" y="2"/>
			<point x="598" y="26" type="curve"/>
			<point x="588" y="67" type="line"/>
			<point x="568" y="62"/>
			<point x="554" y="59"/>
			<point x="546" y="59" type="curve" smooth="yes"/>
			<point x="501" y="59"/>
			<point x="486" y="93"/>
			<point x="486" y="194" type="curve" smooth="yes"/>
			<point x="486" y="277"/>
			<point x="502" y="393"/>
			<point x="529" y="507" type="curve"/>
			<point x="517" y="514" type="line"/>
			<point x="425" y="507" type="line"/>
			<point x="419" y="428" type="line"/>
			<point x="417" y="428" type="line"/>
			<point x="389" y="490"/>
			<point x="338" y="521"/>
			<point x="268" y="521" type="curve" smooth="yes"/>
			<point x="135" y="521"/>
			<point x="52" y="416"/>
			<point x="52" y="247" type="curve" smooth="yes"/>
			<point x="52" y="84"/>
			<point x="123" y="-14"/>
		</contour>
		<contour>
			<point x="272" y="48" type="curve" smooth="yes"/>
			<point x="192" y="48"/>
			<point x="153" y="115"/>
			<point x="153" y="255" type="curve" smooth="yes"/>
			<point x="153" y="389"/>
			<point x="198" y="462"/>
			<point x="280" y="462" type="curve" smooth="yes"/>
			<point x="341" y="462"/>
			<point x="391" y="416"/>
			<point x="407" y="347" type="curve"/>
			<point x="405" y="297"/>
			<point x="403" y="199"/>
			<point x="403" y="165" type="curve"/>
			<point x="368" y="86"/>
			<point x="325" y="48"/>
		</contour>
	</outline>
	<anchor name="bottom" x="268" y="-45"/>
	<anchor name="top" x="268" y="550"/>
</glyph>
<glyph name="beta" format="2">
	<unicode hex="03B2"/>
	<advance width="604"/>
	<outline>
		<contour>
			<point x="97" y="-223" type="line"/>
			<point x="183" y="-216" type="line"/>
			<point x="171" y="-154"/>
			<point x="162" y="-52"/>
			<point x="162" y="26" type="curve"/>
			<point x="164" y="26" type="line"/>
			<point x="198" y="3"/>
			<point x="260" y="-14"/>
			<point x="308" y="-14" type="curve" smooth="yes"/>
			<point x="454" y="-14"/>
			<point x="558" y="88"/>
			<point x="558" y="229" type="curve" smooth="yes"/>
			<point x="558" y="331"/>
			<point x="504" y="412"/>
			<point x="422" y="431" type="curve"/>
			<point x="422" y="433" type="line"/>
			<point x="475" y="468"/>
			<point x="504" y="524"/>
			<point x="504" y="592" type="curve" smooth="yes"/>
			<point x="504" y="706"/>
			<point x="422" y="782"/>
			<point x="300" y="782" type="curve" smooth="yes"/>
			<point x="152" y="782"/>
			<point x="74" y="697"/>
			<point x="74" y="538" type="curve" smooth="yes"/>
			<point x="74" y="7" type="line" smooth="yes"/>
			<point x="74" y="-82"/>
			<point x="77" y="-143"/>
			<point x="85" y="-216" type="curve"/>
		</contour>
		<contour>
			<point x="303" y="48" type="curve" smooth="yes"/>
			<point x="248" y="48"/>
			<point x="185" y="68"/>
			<point x="161" y="93" type="curve"/>
			<point x="161" y="533" type="line" smooth="yes"/>
			<point x="161" y="661"/>
			<point x="205" y="723"/>
			<point x="298" y="723" type="curve" smooth="yes"/>
			<point x="372" y="723"/>
			<point x="420" y="670"/>
			<point x="420" y="589" type="curve" smooth="yes"/>
			<point x="420" y="529"/>
			<point x="402" y="489"/>
			<point x="355" y="447" type="curve"/>
			<point x="334" y="465"/>
			<point x="305" y="476"/>
			<point x="279" y="476" type="curve" smooth="yes"/>
			<point x="239" y="476"/>
			<point x="214" y="453"/>
			<point x="214" y="415" type="curve" smooth="yes"/>
			<point x="214" y="382"/>
			<point x="240" y="359"/>
			<point x="279" y="359" type="curve" smooth="yes"/>
			<point x="301" y="359"/>
			<point x="323" y="368"/>
			<point x="362" y="395" type="curve"/>
			<point x="424" y="365"/>
			<point x="457" y="304"/>
			<point x="457" y="218" type="curve" smooth="yes"/>
			<point x="457" y="115"/>
			<point x="396" y="48"/>
		</contour>
	</outline>
</glyph>
<glyph name="delta" format="2">
	<unicode hex="03B4"/>
	<advance width="548"/>
	<outline>
		<contour>
			<point x="272" y="-14" type="curve" smooth="yes"/>
			<point x="408" y="-14"/>
			<point x="507" y="87"/>
			<point x="507" y="226" type="curve" smooth="yes"/>
			<point x="507" y="333"/>
			<point x="455" y="409"/>
			<point x="317" y="505" type="curve" smooth="yes"/>
			<point x="199" y="587"/>
			<point x="183" y="603"/>
			<point x="183" y="644" type="curve" smooth="yes"/>
			<point x="183" y="691"/>
			<point x="224" y="721"/>
			<point x="289" y="721" type="curve" smooth="yes"/>
			<point x="339" y="721"/>
			<point x="375" y="712"/>
			<point x="401" y="693" type="curve"/>
			<point x="381" y="662"/>
			<point x="373" y="642"/>
			<point x="373" y="624" type="curve" smooth="yes"/>
			<point x="373" y="596"/>
			<point x="395" y="579"/>
			<point x="432" y="579" type="curve" smooth="yes"/>
			<point x="475" y="579"/>
			<point x="498" y="603"/>
			<point x="498" y="647" type="curve" smooth="yes"/>
			<point x="498" y="725"/>
			<point x="412" y="782"/>
			<point x="295" y="782" type="curve" smooth="yes"/>
			<point x="177" y="782"/>
			<point x="100" y="721"/>
			<point x="100" y="628" type="curve" smooth="yes"/>
			<point x="100" y="572"/>
			<point x="130" y="531"/>
			<point x="219" y="464" type="curve"/>
			<point x="104" y="429"/>
			<point x="36" y="337"/>
			<point x="36" y="218" type="curve" smooth="yes"/>
			<point x="36" y="72"/>
			<point x="123" y="-14"/>
		</contour>
		<contour>
			<point x="271" y="48" type="curve" smooth="yes"/>
			<point x="185" y="48"/>
			<point x="136" y="108"/>
			<point x="136" y="214" type="curve" smooth="yes"/>
			<point x="136" y="324"/>
			<point x="185" y="404"/>
			<point x="270" y="433" type="curve"/>
			<point x="367" y="379"/>
			<point x="409" y="314"/>
			<point x="409" y="219" type="curve" smooth="yes"/>
			<point x="409" y="118"/>
			<point x="352" y="48"/>
		</contour>
	</outline>
</glyph>
<glyph name="zeta" format="2">
	<unicode hex="03B6"/>
	<advance width="442"/>
	<outline>
		<contour>
			<point x="345" y="-230" type="line"/>
			<point x="402" y="-182"/>
			<point x="440" y="-117"/>
			<point x="440" y="-67" type="curve" smooth="yes"/>
			<point x="440" y="13"/>
			<point x="397" y="50"/>
			<point x="271" y="79" type="curve" smooth="yes"/>
			<point x="161" y="104"/>
			<point x="121" y="140"/>
			<point x="121" y="212" type="curve" smooth="yes"/>
			<point x="121" y="343"/>
			<point x="247" y="529"/>
			<point x="453" y="703" type="curve"/>
			<point x="453" y="717" type="line"/>
			<point x="391" y="770" type="line"/>
			<point x="367" y="749"/>
			<point x="347" y="730"/>
			<point x="324" y="704" type="curve"/>
			<point x="305" y="702"/>
			<point x="282" y="701"/>
			<point x="259" y="701" type="curve" smooth="yes"/>
			<point x="213" y="701"/>
			<point x="172" y="705"/>
			<point x="153" y="712" type="curve"/>
			<point x="164" y="733"/>
			<point x="168" y="744"/>
			<point x="168" y="753" type="curve" smooth="yes"/>
			<point x="168" y="782"/>
			<point x="145" y="802"/>
			<point x="111" y="802" type="curve" smooth="yes"/>
			<point x="74" y="802"/>
			<point x="47" y="776"/>
			<point x="47" y="738" type="curve" smooth="yes"/>
			<point x="47" y="675"/>
			<point x="92" y="647"/>
			<point x="192" y="647" type="curve" smooth="yes"/>
			<point x="222" y="647"/>
			<point x="242" y="648"/>
			<point x="273" y="652" type="curve"/>
			<point x="136" y="506"/>
			<point x="36" y="313"/>
			<point x="36" y="194" type="curve" smooth="yes"/>
			<point x="36" y="86"/>
			<point x="86" y="37"/>
			<point x="244" y="-8" type="curve" smooth="yes"/>
			<point x="329" y="-32"/>
			<point x="354" y="-52"/>
			<point x="354" y="-96" type="curve" smooth="yes"/>
			<point x="354" y="-124"/>
			<point x="341" y="-153"/>
			<point x="305" y="-199" type="curve"/>
		</contour>
	</outline>
</glyph>
<glyph name="eta" format="2">
	<unicode hex="03B7"/>
	<advance width="597"/>
	<outline>
		<contour>
			<point x="510" y="-223" type="line"/>
			<point x="522" y="-216" type="line"/>
			<point x="530" y="-118"/>
			<point x="533" y="-37"/>
			<point x="533" y="70" type="curve" smooth="yes"/>
			<point x="533" y="350" type="line" smooth="yes"/>
			<point x="533" y="462"/>
			<point x="476" y="521"/>
			<point x="370" y="521" type="curve" smooth="yes"/>
			<point x="298" y="521"/>
			<point x="237" y="484"/>
			<point x="199" y="418" type="curve"/>
			<point x="196" y="418" type="line"/>
			<point x="191" y="488"/>
			<point x="169" y="516"/>
			<point x="121" y="516" type="curve" smooth="yes"/>
			<point x="89" y="516"/>
			<point x="52" y="500"/>
			<point x="27" y="476" type="curve"/>
			<point x="37" y="438" type="line"/>
			<point x="54" y="444"/>
			<point x="66" y="446"/>
			<point x="79" y="446" type="curve" smooth="yes"/>
			<point x="105" y="446"/>
			<point x="114" y="434"/>
			<point x="114" y="397" type="curve" smooth="yes"/>
			<point x="114" y="0" type="line"/>
			<point x="207" y="0" type="line"/>
			<point x="207" y="310" type="line" smooth="yes"/>
			<point x="207" y="391"/>
			<point x="262" y="449"/>
			<point x="338" y="449" type="curve" smooth="yes"/>
			<point x="412" y="449"/>
			<point x="440" y="414"/>
			<point x="440" y="321" type="curve" smooth="yes"/>
			<point x="440" y="70" type="line" smooth="yes"/>
			<point x="440" y="-44"/>
			<point x="434" y="-155"/>
			<point x="425" y="-216" type="curve"/>
		</contour>
	</outline>
	<anchor name="bottom" x="162" y="-30"/>
	<anchor name="top" x="248" y="550"/>
</glyph>
<glyph name="lambda" format="2">
	<unicode hex="03BB"/>
	<advance width="585"/>
	<outline>
		<contour>
			<point x="573" y="67" type="line"/>
			<point x="557" y="62"/>
			<point x="542" y="59"/>
			<point x="528" y="59" type="curve" smooth="yes"/>
			<point x="495" y="59"/>
			<point x="478" y="77"/>
			<point x="462" y="129" type="curve" smooth="yes"/>
			<point x="307" y="627" type="line" smooth="yes"/>
			<point x="271" y="740"/>
			<point x="224" y="782"/>
			<point x="133" y="782" type="curve" smooth="yes"/>
			<point x="59" y="782"/>
			<point x="10" y="742"/>
			<point x="10" y="682" type="curve" smooth="yes"/>
			<point x="10" y="639"/>
			<point x="32" y="614"/>
			<point x="69" y="614" type="curve" smooth="yes"/>
			<point x="101" y="614"/>
			<point x="122" y="630"/>
			<point x="122" y="655" type="curve" smooth="yes"/>
			<point x="122" y="672"/>
			<point x="115" y="689"/>
			<point x="98" y="712" type="curve"/>
			<point x="112" y="717"/>
			<point x="122" y="719"/>
			<point x="137" y="719" type="curve" smooth="yes"/>
			<point x="182" y="719"/>
			<point x="212" y="684"/>
			<point x="235" y="605" type="curve" smooth="yes"/>
			<point x="258" y="524" type="line"/>
			<point x="20" y="7" type="line"/>
			<point x="32" y="0" type="line"/>
			<point x="123" y="0" type="line"/>
			<point x="287" y="403" type="line"/>
			<point x="293" y="403" type="line"/>
			<point x="376" y="112" type="line" smooth="yes"/>
			<point x="405" y="12"/>
			<point x="429" y="-14"/>
			<point x="491" y="-14" type="curve" smooth="yes"/>
			<point x="521" y="-14"/>
			<point x="560" y="3"/>
			<point x="583" y="26" type="curve"/>
		</contour>
	</outline>
</glyph>
<glyph name="nu" format="2">
	<unicode hex="03BD"/>
	<advance width="573"/>
	<outline>
		<contour>
			<point x="280" y="-18" type="line"/>
			<point x="426" y="100"/>
			<point x="517" y="279"/>
			<point x="517" y="449" type="curve" smooth="yes"/>
			<point x="517" y="482"/>
			<point x="517" y="490"/>
			<point x="515" y="501" type="curve"/>
			<point x="501" y="507" type="line"/>
			<point x="409" y="507" type="line"/>
			<point x="413" y="486"/>
			<point x="415" y="463"/>
			<point x="415" y="439" type="curve" smooth="yes"/>
			<point x="415" y="305"/>
			<point x="366" y="166"/>
			<point x="284" y="68" type="curve"/>
			<point x="279" y="68" type="line"/>
			<point x="265" y="413"/>
			<point x="227" y="516"/>
			<point x="116" y="516" type="curve" smooth="yes"/>
			<point x="81" y="516"/>
			<point x="34" y="498"/>
			<point x="12" y="476" type="curve"/>
			<point x="22" y="438" type="line"/>
			<point x="35" y="443"/>
			<point x="50" y="446"/>
			<point x="62" y="446" type="curve" smooth="yes"/>
			<point x="151" y="446"/>
			<point x="189" y="328"/>
			<point x="208" y="-7" type="curve"/>
		</contour>
	</outline>
</glyph>
<glyph name="xi" format="2">
	<unicode hex="03BE"/>
	<advance width="472"/>
	<outline>
		<contour>
			<point x="357" y="-230" type="line"/>
			<point x="414" y="-183"/>
			<point x="453" y="-118"/>
			<point x="453" y="-69" type="curve" smooth="yes"/>
			<point x="453" y="11"/>
			<point x="411" y="50"/>
			<point x="296" y="76" type="curve" smooth="yes"/>
			<point x="170" y="104"/>
			<point x="133" y="131"/>
			<point x="133" y="193" type="curve" smooth="yes"/>
			<point x="133" y="255"/>
			<point x="175" y="305"/>
			<point x="258" y="340" type="curve"/>
			<point x="299" y="316"/>
			<point x="316" y="311"/>
			<point x="352" y="311" type="curve" smooth="yes"/>
			<point x="392" y="311"/>
			<point x="422" y="339"/>
			<point x="422" y="376" type="curve" smooth="yes"/>
			<point x="422" y="415"/>
			<point x="392" y="441"/>
			<point x="349" y="441" type="curve" smooth="yes"/>
			<point x="322" y="441"/>
			<point x="297" y="432"/>
			<point x="258" y="407" type="curve"/>
			<point x="199" y="419"/>
			<point x="167" y="451"/>
			<point x="167" y="498" type="curve" smooth="yes"/>
			<point x="167" y="583"/>
			<point x="246" y="638"/>
			<point x="446" y="693" type="curve"/>
			<point x="446" y="707" type="line"/>
			<point x="407" y="763" type="line"/>
			<point x="355" y="752"/>
			<point x="288" y="727"/>
			<point x="240" y="700" type="curve"/>
			<point x="165" y="700"/>
			<point x="135" y="703"/>
			<point x="122" y="712" type="curve"/>
			<point x="136" y="743"/>
			<point x="137" y="745"/>
			<point x="137" y="753" type="curve" smooth="yes"/>
			<point x="137" y="781"/>
			<point x="114" y="801"/>
			<point x="80" y="801" type="curve" smooth="yes"/>
			<point x="43" y="801"/>
			<point x="16" y="775"/>
			<point x="16" y="738" type="curve" smooth="yes"/>
			<point x="16" y="673"/>
			<point x="78" y="643"/>
			<point x="176" y="660" type="curve"/>
			<point x="116" y="613"/>
			<point x="83" y="558"/>
			<point x="83" y="503" type="curve" smooth="yes"/>
			<point x="83" y="437"/>
			<point x="121" y="395"/>
			<point x="204" y="369" type="curve"/>
			<point x="204" y="367" type="line"/>
			<point x="107" y="337"/>
			<point x="48" y="266"/>
			<point x="48" y="180" type="curve" smooth="yes"/>
			<point x="48" y="82"/>
			<point x="102" y="34"/>
			<point x="260" y="-8" type="curve" smooth="yes"/>
			<point x="336" y="-28"/>
			<point x="367" y="-54"/>
			<point x="367" y="-96" type="curve" smooth="yes"/>
			<point x="367" y="-124"/>
			<point x="354" y="-151"/>
			<point x="317" y="-199" type="curve"/>
		</contour>
	</outline>
</glyph>
<glyph name="omicron" format="2">
	<unicode hex="03BF"/>
	<advance width="576"/>
	<outline>
		<contour>
			<point x="285" y="-14" type="curve" smooth="yes"/>
			<point x="433" y="-14"/>
			<point x="530" y="97"/>
			<point x="530" y="266" type="curve" smooth="yes"/>
			<point x="530" y="419"/>
			<point x="438" y="521"/>
			<point x="299" y="521" type="curve" smooth="yes"/>
			<point x="142" y="521"/>
			<point x="46" y="415"/>
			<point x="46" y="241" type="curve" smooth="yes"/>
			<point x="46" y="85"/>
			<point x="139" y="-14"/>
		</contour>
		<contour>
			<point x="299" y="48" type="curve" smooth="yes"/>
			<point x="205" y="48"/>
			<point x="147" y="133"/>
			<point x="147" y="271" type="curve" smooth="yes"/>
			<point x="147" y="391"/>
			<point x="197" y="462"/>
			<point x="283" y="462" type="curve" smooth="yes"/>
			<point x="369" y="462"/>
			<point x="428" y="373"/>
			<point x="428" y="242" type="curve" smooth="yes"/>
			<point x="428" y="120"/>
			<point x="380" y="48"/>
		</contour>
	</outline>
	<anchor name="top" x="278" y="550"/>
</glyph>
<glyph name="sigmafinal" format="2">
	<unicode hex="03C2"/>
	<advance width="498"/>
	<outline>
		<contour>
			<point x="357" y="-230" type="line"/>
			<point x="414" y="-183"/>
			<point x="453" y="-118"/>
			<point x="453" y="-69" type="curve" smooth="yes"/>
			<point x="453" y="11"/>
			<point x="411" y="50"/>
			<point x="296" y="76" type="curve" smooth="yes"/>
			<point x="188" y="100"/>
			<point x="147" y="152"/>
			<point x="147" y="264" type="curve" smooth="yes"/>
			<point x="147" y="384"/>
			<point x="201" y="465"/>
			<point x="282" y="465" type="curve" smooth="yes"/>
			<point x="321" y="465"/>
			<point x="345" y="459"/>
			<point x="372" y="441" type="curve"/>
			<point x="351" y="406"/>
			<point x="344" y="389"/>
			<point x="344" y="373" type="curve" smooth="yes"/>
			<point x="344" y="343"/>
			<point x="366" y="325"/>
			<point x="403" y="325" type="curve" smooth="yes"/>
			<point x="443" y="325"/>
			<point x="469" y="350"/>
			<point x="469" y="390" type="curve" smooth="yes"/>
			<point x="469" y="465"/>
			<point x="392" y="521"/>
			<point x="290" y="521" type="curve" smooth="yes"/>
			<point x="144" y="521"/>
			<point x="46" y="411"/>
			<point x="46" y="247" type="curve" smooth="yes"/>
			<point x="47" y="110"/>
			<point x="114" y="30"/>
			<point x="260" y="-8" type="curve" smooth="yes"/>
			<point x="336" y="-28"/>
			<point x="367" y="-54"/>
			<point x="367" y="-96" type="curve" smooth="yes"/>
			<point x="367" y="-124"/>
			<point x="354" y="-151"/>
			<point x="317" y="-199" type="curve"/>
		</contour>
	</outline>
</glyph>
<glyph name="upsilon" format="2">
	<unicode hex="03C5"/>
	<advance width="582"/>
	<outline>
		<contour>
			<point x="309" y="-14" type="curve" smooth="yes"/>
			<point x="452" y="-14"/>
			<point x="536" y="87"/>
			<point x="536" y="260" type="curve" smooth="yes"/>
			<point x="536" y="341"/>
			<point x="516" y="430"/>
			<point x="480" y="507" type="curve"/>
			<point x="468" y="514" type="line"/>
			<point x="381" y="497" type="line"/>
			<point x="418" y="413"/>
			<point x="440" y="325"/>
			<point x="440" y="260" type="curve" smooth="yes"/>
			<point x="440" y="116"/>
			<point x="400" y="48"/>
			<point x="315" y="48" type="curve" smooth="yes"/>
			<point x="240" y="48"/>
			<point x="198" y="109"/>
			<point x="198" y="220" type="curve" smooth="yes"/>
			<point x="198" y="315"/>
			<point x="208" y="344"/>
			<point x="208" y="426" type="curve" smooth="yes"/>
			<point x="208" y="486"/>
			<point x="179" y="516"/>
			<point x="121" y="516" type="curve" smooth="yes"/>
			<point x="89" y="516"/>
			<point x="54" y="501"/>
			<point x="27" y="476" type="curve"/>
			<point x="37" y="438" type="line"/>
			<point x="52" y="444"/>
			<point x="64" y="446"/>
			<point x="79" y="446" type="curve" smooth="yes"/>
			<point x="106" y="446"/>
			<point x="119" y="431"/>
			<point x="119" y="400" type="curve" smooth="yes"/>
			<point x="119" y="322"/>
			<point x="111" y="290"/>
			<point x="111" y="189" type="curve" smooth="yes"/>
			<point x="111" y="56"/>
			<point x="180" y="-14"/>
		</contour>
	</outline>
	<anchor name="top" x="293" y="550"/>
</glyph>
<glyph name="phi" format="2">
	<unicode hex="03C6"/>
	<advance width="761"/>
	<outline>
		<contour>
			<point x="340" y="-219" type="line"/>
			<point x="411" y="-219" type="line"/>
			<point x="416" y="-15" type="line"/>
			<point x="603" y="-7"/>
			<point x="715" y="96"/>
			<point x="715" y="262" type="curve" smooth="yes"/>
			<point x="715" y="415"/>
			<point x="606" y="513"/>
			<point x="427" y="521" type="curve"/>
			<point x="432" y="705" type="line"/>
			<point x="420" y="712" type="line"/>
			<point x="328" y="705" type="line"/>
			<point x="333" y="521" type="line"/>
			<point x="150" y="508"/>
			<point x="46" y="410"/>
			<point x="46" y="250" type="curve" smooth="yes"/>
			<point x="46" y="92"/>
			<point x="153" y="-5"/>
			<point x="338" y="-14" type="curve"/>
		</contour>
		<contour>
			<point x="338" y="49" type="line"/>
			<point x="209" y="61"/>
			<point x="146" y="134"/>
			<point x="146" y="271" type="curve" smooth="yes"/>
			<point x="146" y="392"/>
			<point x="212" y="460"/>
			<point x="333" y="464" type="curve"/>
		</contour>
		<contour>
			<point x="417" y="43" type="curve"/>
			<point x="426" y="458" type="line"/>
			<point x="552" y="445"/>
			<point x="615" y="373"/>
			<point x="615" y="243" type="curve" smooth="yes"/>
			<point x="615" y="115"/>
			<point x="545" y="44"/>
		</contour>
	</outline>
</glyph>
<glyph name="psi" format="2">
	<unicode hex="03C8"/>
	<advance width="755"/>
	<outline>
		<contour>
			<point x="361" y="-219" type="line"/>
			<point x="433" y="-219" type="line"/>
			<point x="437" y="-14" type="line"/>
			<point x="601" y="-14"/>
			<point x="709" y="96"/>
			<point x="709" y="263" type="curve" smooth="yes"/>
			<point x="709" y="344"/>
			<point x="689" y="433"/>
			<point x="653" y="507" type="curve"/>
			<point x="640" y="514" type="line"/>
			<point x="554" y="497" type="line"/>
			<point x="592" y="411"/>
			<point x="613" y="327"/>
			<point x="613" y="262" type="curve" smooth="yes"/>
			<point x="613" y="129"/>
			<point x="547" y="48"/>
			<point x="439" y="48" type="curve"/>
			<point x="456" y="705" type="line"/>
			<point x="444" y="712" type="line"/>
			<point x="352" y="705" type="line"/>
			<point x="359" y="48" type="line"/>
			<point x="244" y="48"/>
			<point x="198" y="96"/>
			<point x="198" y="216" type="curve" smooth="yes"/>
			<point x="198" y="297"/>
			<point x="208" y="370"/>
			<point x="208" y="428" type="curve"/>
			<point x="208" y="486"/>
			<point x="179" y="516"/>
			<point x="122" y="516" type="curve" smooth="yes"/>
			<point x="89" y="516"/>
			<point x="53" y="501"/>
			<point x="27" y="476" type="curve"/>
			<point x="37" y="438" type="line"/>
			<point x="51" y="443"/>
			<point x="66" y="446"/>
			<point x="79" y="446" type="curve" smooth="yes"/>
			<point x="106" y="446"/>
			<point x="119" y="432"/>
			<point x="119" y="401" type="curve"/>
			<point x="119" y="337"/>
			<point x="111" y="268"/>
			<point x="111" y="189" type="curve" smooth="yes"/>
			<point x="111" y="53"/>
			<point x="192" y="-14"/>
			<point x="359" y="-14" type="curve"/>
		</contour>
	</outline>
</glyph>
<glyph name="KoppaArchaic" format="2">
	<unicode hex="03D8"/>
	<advance width="760"/>
	<outline>
		<contour>
			<point x="343" y="-219" type="line"/>
			<point x="433" y="-211" type="line"/>
			<point x="429" y="-146"/>
			<point x="423" y="-57"/>
			<point x="421" y="-10" type="curve"/>
			<point x="596" y="14"/>
			<point x="710" y="164"/>
			<point x="710" y="368" type="curve" smooth="yes"/>
			<point x="710" y="576"/>
			<point x="581" y="714"/>
			<point x="387" y="714" type="curve" smooth="yes"/>
			<point x="181" y="714"/>
			<point x="50" y="567"/>
			<point x="50" y="336" type="curve" smooth="yes"/>
			<point x="50" y="138"/>
			<point x="160" y="3"/>
			<point x="335" y="-12" type="curve"/>
			<point x="334" y="-53"/>
			<point x="333" y="-127"/>
			<point x="331" y="-214" type="curve"/>
		</contour>
		<contour>
			<point x="421" y="56" type="curve"/>
			<point x="421" y="82"/>
			<point x="423" y="112"/>
			<point x="430" y="220" type="curve"/>
			<point x="417" y="226" type="line"/>
			<point x="330" y="215" type="line"/>
			<point x="331" y="163"/>
			<point x="333" y="110"/>
			<point x="334" y="58" type="curve"/>
			<point x="221" y="81"/>
			<point x="156" y="190"/>
			<point x="156" y="357" type="curve" smooth="yes"/>
			<point x="156" y="544"/>
			<point x="235" y="650"/>
			<point x="374" y="650" type="curve" smooth="yes"/>
			<point x="517" y="650"/>
			<point x="601" y="538"/>
			<point x="601" y="349" type="curve" smooth="yes"/>
			<point x="601" y="178"/>
			<point x="537" y="74"/>
		</contour>
	</outline>
</glyph>
<glyph name="stigma" format="2">
	<unicode hex="03DB"/>
	<advance width="518"/>
	<outline>
		<contour>
			<point x="357" y="-230" type="line"/>
			<point x="414" y="-183"/>
			<point x="453" y="-118"/>
			<point x="453" y="-69" type="curve" smooth="yes"/>
			<point x="453" y="11"/>
			<point x="411" y="50"/>
			<point x="296" y="76" type="curve" smooth="yes"/>
			<point x="175" y="103"/>
			<point x="117" y="164"/>
			<point x="117" y="264" type="curve" smooth="yes"/>
			<point x="117" y="392"/>
			<point x="179" y="442"/>
			<point x="336" y="442" type="curve" smooth="yes"/>
			<point x="454" y="442"/>
			<point x="489" y="461"/>
			<point x="489" y="526" type="curve" smooth="yes"/>
			<point x="489" y="559"/>
			<point x="475" y="593"/>
			<point x="449" y="625" type="curve"/>
			<point x="411" y="615" type="line"/>
			<point x="417" y="598"/>
			<point x="419" y="586"/>
			<point x="419" y="565" type="curve" smooth="yes"/>
			<point x="419" y="526"/>
			<point x="406" y="521"/>
			<point x="299" y="521" type="curve" smooth="yes"/>
			<point x="143" y="521"/>
			<point x="46" y="415"/>
			<point x="46" y="247" type="curve" smooth="yes"/>
			<point x="46" y="106"/>
			<point x="109" y="31"/>
			<point x="260" y="-8" type="curve" smooth="yes"/>
			<point x="338" y="-28"/>
			<point x="367" y="-52"/>
			<point x="367" y="-96" type="curve" smooth="yes"/>
			<point x="367" y="-124"/>
			<point x="354" y="-151"/>
			<point x="317" y="-199" type="curve"/>
		</contour>
	</outline>
</glyph>
<glyph name="Koppa" format="2">
	<unicode hex="03DE"/>
	<advance width="532"/>
	<outline>
		<contour>
			<point x="322" y="-89" type="curve" smooth="yes"/>
			<point x="356" y="-89"/>
			<point x="390" y="-74"/>
			<point x="412" y="-49" type="curve"/>
			<point x="404" y="-13" type="line"/>
			<point x="387" y="-19"/>
			<point x="375" y="-21"/>
			<point x="362" y="-21" type="curve" smooth="yes"/>
			<point x="339" y="-21"/>
			<point x="325" y="-8"/>
			<point x="325" y="14" type="curve" smooth="yes"/>
			<point x="325" y="47"/>
			<point x="346" y="96"/>
			<point x="395" y="172" type="curve" smooth="yes"/>
			<point x="502" y="339" type="line"/>
			<point x="464" y="399" type="line"/>
			<point x="164" y="242" type="line"/>
			<point x="304" y="445"/>
			<point x="316" y="468"/>
			<point x="316" y="517" type="curve" smooth="yes"/>
			<point x="316" y="568"/>
			<point x="282" y="600"/>
			<point x="228" y="600" type="curve" smooth="yes"/>
			<point x="195" y="600"/>
			<point x="161" y="585"/>
			<point x="139" y="560" type="curve"/>
			<point x="147" y="524" type="line"/>
			<point x="164" y="530"/>
			<point x="176" y="532"/>
			<point x="189" y="532" type="curve" smooth="yes"/>
			<point x="213" y="532"/>
			<point x="226" y="520"/>
			<point x="226" y="497" type="curve" smooth="yes"/>
			<point x="226" y="462"/>
			<point x="203" y="413"/>
			<point x="142" y="317" type="curve" smooth="yes"/>
			<point x="49" y="172" type="line"/>
			<point x="87" y="112" type="line"/>
			<point x="387" y="269" type="line"/>
			<point x="250" y="70"/>
			<point x="235" y="43"/>
			<point x="235" y="-5" type="curve" smooth="yes"/>
			<point x="235" y="-57"/>
			<point x="268" y="-89"/>
		</contour>
	</outline>
</glyph>
<glyph name="sampi" format="2">
	<unicode hex="03E1"/>
	<advance width="573"/>
	<outline>
		<contour>
			<point x="158" y="525" type="curve"/>
			<point x="138" y="465" type="line"/>
			<point x="238" y="443"/>
			<point x="317" y="387"/>
			<point x="368" y="305" type="curve"/>
			<point x="112" y="200" type="line" smooth="yes"/>
			<point x="92" y="192"/>
			<point x="87" y="193"/>
			<point x="81" y="205" type="curve" smooth="yes"/>
			<point x="66" y="231" type="line"/>
			<point x="34" y="218" type="line"/>
			<point x="92" y="67" type="line"/>
			<point x="124" y="78" type="line"/>
			<point x="117" y="111" type="line" smooth="yes"/>
			<point x="114" y="123"/>
			<point x="119" y="130"/>
			<point x="136" y="137" type="curve" smooth="yes"/>
			<point x="400" y="243" type="line"/>
			<point x="414" y="209"/>
			<point x="424" y="173"/>
			<point x="431" y="133" type="curve"/>
			<point x="175" y="29" type="line" smooth="yes"/>
			<point x="155" y="21"/>
			<point x="150" y="22"/>
			<point x="144" y="34" type="curve" smooth="yes"/>
			<point x="129" y="60" type="line"/>
			<point x="97" y="47" type="line"/>
			<point x="155" y="-104" type="line"/>
			<point x="187" y="-93" type="line"/>
			<point x="180" y="-60" type="line" smooth="yes"/>
			<point x="177" y="-48"/>
			<point x="182" y="-41"/>
			<point x="199" y="-34" type="curve" smooth="yes"/>
			<point x="438" y="62" type="line"/>
			<point x="446" y="-16"/>
			<point x="425" y="-139"/>
			<point x="392" y="-227" type="curve"/>
			<point x="465" y="-247" type="line"/>
			<point x="505" y="-137"/>
			<point x="525" y="-35"/>
			<point x="525" y="57" type="curve" smooth="yes"/>
			<point x="525" y="297"/>
			<point x="397" y="461"/>
		</contour>
	</outline>
</glyph>
<glyph name="Dje-cy" format="2">
	<unicode hex="0402"/>
	<advance width="832"/>
	<outline>
		<contour>
			<point x="583" y="-109" type="line"/>
			<point x="721" y="-34"/>
			<point x="788" y="67"/>
			<point x="788" y="200" type="curve" smooth="yes"/>
			<point x="788" y="335"/>
			<point x="704" y="417"/>
			<point x="567" y="417" type="curve" smooth="yes"/>
			<point x="495" y="417"/>
			<point x="423" y="391"/>
			<point x="358" y="343" type="curve"/>
			<point x="358" y="645" type="line"/>
			<point x="464" y="645" type="line" smooth="yes"/>
			<point x="561" y="645"/>
			<point x="587" y="620"/>
			<point x="630" y="487" type="curve"/>
			<point x="685" y="500" type="line"/>
			<point x="648" y="700" type="line"/>
			<point x="49" y="700" type="line"/>
			<point x="10" y="500" type="line"/>
			<point x="64" y="487" type="line"/>
			<point x="108" y="620"/>
			<point x="135" y="645"/>
			<point x="233" y="645" type="curve" smooth="yes"/>
			<point x="259" y="645" type="line"/>
			<point x="259" y="109" type="line" smooth="yes"/>
			<point x="259" y="73"/>
			<point x="251" y="61"/>
			<point x="226" y="57" type="curve" smooth="yes"/>
			<point x="170" y="48" type="line"/>
			<point x="170" y="0" type="line"/>
			<point x="446" y="0" type="line"/>
			<point x="446" y="48" type="line"/>
			<point x="387" y="58" type="line" smooth="yes"/>
			<point x="363" y="62"/>
			<point x="358" y="70"/>
			<point x="358" y="106" type="curve" smooth="yes"/>
			<point x="358" y="275" type="line"/>
			<point x="402" y="318"/>
			<point x="479" y="349"/>
			<point x="540" y="349" type="curve" smooth="yes"/>
			<point x="636" y="349"/>
			<point x="685" y="294"/>
			<point x="685" y="186" type="curve" smooth="yes"/>
			<point x="685" y="82"/>
			<point x="645" y="3"/>
			<point x="555" y="-68" type="curve"/>
		</contour>
	</outline>
</glyph>
<glyph name="E-cy" format="2">
	<unicode hex="0404"/>
	<advance width="669"/>
	<outline>
		<contour>
			<point x="372" y="-11" type="curve" smooth="yes"/>
			<point x="505" y="-11"/>
			<point x="591" y="67"/>
			<point x="632" y="136" type="curve"/>
			<point x="585" y="170" type="line"/>
			<point x="535" y="98"/>
			<point x="476" y="58"/>
			<point x="382" y="58" type="curve" smooth="yes"/>
			<point x="247" y="58"/>
			<point x="173" y="181"/>
			<point x="167" y="330" type="curve"/>
			<point x="504" y="330" type="line"/>
			<point x="504" y="390" type="line"/>
			<point x="167" y="390" type="line"/>
			<point x="176" y="552"/>
			<point x="247" y="650"/>
			<point x="371" y="650" type="curve" smooth="yes"/>
			<point x="459" y="650"/>
			<point x="525" y="611"/>
			<point x="565" y="487" type="curve"/>
			<point x="619" y="499" type="line"/>
			<point x="590" y="712" type="line"/>
			<point x="541" y="712" type="line"/>
			<point x="531" y="649" type="line"/>
			<point x="503" y="677"/>
			<point x="457" y="710"/>
			<point x="368" y="710" type="curve" smooth="yes"/>
			<point x="191" y="710"/>
			<point x="60" y="577"/>
			<point x="60" y="343" type="curve" smooth="yes"/>
			<point x="60" y="163"/>
			<point x="152" y="-11"/>
		</contour>
	</outline>
	<anchor name="top" x="369" y="730"/>
</glyph>
<glyph name="Nje-cy" format="2">
	<unicode hex="040A"/>
	<advance width="1071"/>
	<outline>
		<contour>
			<point x="62" y="0" type="line"/>
			<point x="338" y="0" type="line"/>
			<point x="338" y="48" type="line"/>
			<point x="282" y="57" type="line" smooth="yes"/>
			<point x="253" y="62"/>
			<point x="250" y="73"/>
			<point x="250" y="104" type="curve" smooth="yes"/>
			<point x="250" y="328" type="line"/>
			<point x="580" y="328" type="line"/>
			<point x="580" y="108" type="line" smooth="yes"/>
			<point x="580" y="78"/>
			<point x="578" y="62"/>
			<point x="549" y="57" type="curve" smooth="yes"/>
			<point x="492" y="48" type="line"/>
			<point x="492" y="0" type="line"/>
			<point x="742" y="0" type="line" smooth="yes"/>
			<point x="894" y="0"/>
			<point x="1026" y="45"/>
			<point x="1026" y="214" type="curve" smooth="yes"/>
			<point x="1026" y="367"/>
			<point x="872" y="406"/>
			<point x="763" y="406" type="curve" smooth="yes"/>
			<point x="725" y="406"/>
			<point x="688" y="403"/>
			<point x="679" y="401" type="curve"/>
			<point x="679" y="592" type="line" smooth="yes"/>
			<point x="679" y="622"/>
			<point x="681" y="638"/>
			<point x="710" y="643" type="curve" smooth="yes"/>
			<point x="767" y="652" type="line"/>
			<point x="767" y="700" type="line"/>
			<point x="492" y="700" type="line"/>
			<point x="492" y="652" type="line"/>
			<point x="547" y="643" type="line" smooth="yes"/>
			<point x="577" y="638"/>
			<point x="580" y="627"/>
			<point x="580" y="596" type="curve" smooth="yes"/>
			<point x="580" y="391" type="line"/>
			<point x="250" y="391" type="line"/>
			<point x="250" y="592" type="line" smooth="yes"/>
			<point x="250" y="622"/>
			<point x="252" y="638"/>
			<point x="280" y="643" type="curve" smooth="yes"/>
			<point x="338" y="652" type="line"/>
			<point x="338" y="700" type="line"/>
			<point x="62" y="700" type="line"/>
			<point x="62" y="652" type="line"/>
			<point x="118" y="643" type="line" smooth="yes"/>
			<point x="148" y="638"/>
			<point x="151" y="627"/>
			<point x="151" y="596" type="curve" smooth="yes"/>
			<point x="151" y="108" type="line" smooth="yes"/>
			<point x="151" y="78"/>
			<point x="149" y="62"/>
			<point x="120" y="57" type="curve" smooth="yes"/>
			<point x="62" y="48" type="line"/>
		</contour>
		<contour>
			<point x="679" y="54" type="curve"/>
			<point x="679" y="345" type="line"/>
			<point x="689" y="348"/>
			<point x="719" y="350"/>
			<point x="742" y="350" type="curve" smooth="yes"/>
			<point x="856" y="350"/>
			<point x="919" y="304"/>
			<point x="919" y="201" type="curve" smooth="yes"/>
			<point x="919" y="84"/>
			<point x="834" y="54"/>
			<point x="735" y="54" type="curve" smooth="yes"/>
			<point x="716" y="54"/>
			<point x="698" y="54"/>
		</contour>
	</outline>
</glyph>
<glyph name="Tshe-cy" format="2">
	<unicode hex="040B"/>
	<advance width="936"/>
	<outline>
		<contour>
			<point x="190" y="0" type="line"/>
			<point x="466" y="0" type="line"/>
			<point x="466" y="48" type="line"/>
			<point x="407" y="58" type="line" smooth="yes"/>
			<point x="381" y="62"/>
			<point x="378" y="73"/>
			<point x="378" y="97" type="curve" smooth="yes"/>
			<point x="378" y="314" type="line"/>
			<point x="427" y="344"/>
			<point x="492" y="378"/>
			<point x="571" y="378" type="curve" smooth="yes"/>
			<point x="680" y="378"/>
			<point x="708" y="303"/>
			<point x="708" y="228" type="curve" smooth="yes"/>
			<point x="708" y="108" type="line" smooth="yes"/>
			<point x="708" y="78"/>
			<point x="706" y="62"/>
			<point x="678" y="57" type="curve" smooth="yes"/>
			<point x="620" y="48" type="line"/>
			<point x="620" y="0" type="line"/>
			<point x="896" y="0" type="line"/>
			<point x="896" y="48" type="line"/>
			<point x="840" y="57" type="line" smooth="yes"/>
			<point x="810" y="62"/>
			<point x="807" y="73"/>
			<point x="807" y="104" type="curve" smooth="yes"/>
			<point x="807" y="239" type="line" smooth="yes"/>
			<point x="807" y="401"/>
			<point x="703" y="441"/>
			<point x="594" y="441" type="curve" smooth="yes"/>
			<point x="501" y="441"/>
			<point x="425" y="406"/>
			<point x="378" y="377" type="curve"/>
			<point x="378" y="645" type="line"/>
			<point x="484" y="645" type="line" smooth="yes"/>
			<point x="584" y="645"/>
			<point x="607" y="637"/>
			<point x="649" y="507" type="curve"/>
			<point x="704" y="520" type="line"/>
			<point x="668" y="700" type="line"/>
			<point x="69" y="700" type="line"/>
			<point x="30" y="500" type="line"/>
			<point x="84" y="487" type="line"/>
			<point x="127" y="617"/>
			<point x="153" y="645"/>
			<point x="253" y="645" type="curve" smooth="yes"/>
			<point x="279" y="645" type="line"/>
			<point x="279" y="108" type="line" smooth="yes"/>
			<point x="279" y="78"/>
			<point x="274" y="61"/>
			<point x="246" y="57" type="curve" smooth="yes"/>
			<point x="190" y="48" type="line"/>
		</contour>
	</outline>
</glyph>
<glyph name="Dzhe-cy" format="2">
	<unicode hex="040F"/>
	<advance width="844"/>
	<outline>
		<contour>
			<point x="399" y="-155" type="line"/>
			<point x="450" y="-155" type="line"/>
			<point x="473" y="0" type="line"/>
			<point x="782" y="0" type="line"/>
			<point x="782" y="48" type="line"/>
			<point x="721" y="57" type="line" smooth="yes"/>
			<point x="692" y="62"/>
			<point x="689" y="73"/>
			<point x="689" y="104" type="curve" smooth="yes"/>
			<point x="689" y="596" type="line" smooth="yes"/>
			<point x="689" y="627"/>
			<point x="692" y="638"/>
			<point x="722" y="643" type="curve" smooth="yes"/>
			<point x="777" y="652" type="line"/>
			<point x="777" y="700" type="line"/>
			<point x="502" y="700" type="line"/>
			<point x="502" y="652" type="line"/>
			<point x="559" y="643" type="line" smooth="yes"/>
			<point x="588" y="638"/>
			<point x="590" y="622"/>
			<point x="590" y="592" type="curve" smooth="yes"/>
			<point x="590" y="63" type="line"/>
			<point x="250" y="63" type="line"/>
			<point x="250" y="596" type="line" smooth="yes"/>
			<point x="250" y="627"/>
			<point x="253" y="638"/>
			<point x="282" y="643" type="curve" smooth="yes"/>
			<point x="338" y="652" type="line"/>
			<point x="338" y="700" type="line"/>
			<point x="62" y="700" type="line"/>
			<point x="62" y="652" type="line"/>
			<point x="120" y="643" type="line" smooth="yes"/>
			<point x="149" y="638"/>
			<point x="151" y="622"/>
			<point x="151" y="592" type="curve" smooth="yes"/>
			<point x="151" y="104" type="line" smooth="yes"/>
			<point x="151" y="73"/>
			<point x="148" y="62"/>
			<point x="118" y="57" type="curve" smooth="yes"/>
			<point x="62" y="48" type="line"/>
			<point x="62" y="0" type="line"/>
			<point x="371" y="0" type="line"/>
		</contour>
	</outline>
</glyph>
<glyph name="Be-cy" format="2">
	<unicode hex="0411"/>
	<advance width="666"/>
	<outline>
		<contour>
			<point x="62" y="0" type="line"/>
			<point x="323" y="0" type="line" smooth="yes"/>
			<point x="518" y="0"/>
			<point x="616" y="77"/>
			<point x="616" y="208" type="curve" smooth="yes"/>
			<point x="616" y="353"/>
			<point x="495" y="400"/>
			<point x="366" y="404" type="curve" smooth="yes"/>
			<point x="317" y="405"/>
			<point x="283" y="402"/>
			<point x="250" y="399" type="curve"/>
			<point x="250" y="646" type="line"/>
			<point x="364" y="646" type="line" smooth="yes"/>
			<point x="463" y="646"/>
			<point x="487" y="619"/>
			<point x="530" y="503" type="curve"/>
			<point x="582" y="521" type="line"/>
			<point x="546" y="700" type="line"/>
			<point x="62" y="700" type="line"/>
			<point x="62" y="652" type="line"/>
			<point x="118" y="643" type="line" smooth="yes"/>
			<point x="147" y="638"/>
			<point x="151" y="620"/>
			<point x="151" y="596" type="curve" smooth="yes"/>
			<point x="151" y="108" type="line" smooth="yes"/>
			<point x="151" y="78"/>
			<point x="149" y="62"/>
			<point x="120" y="57" type="curve" smooth="yes"/>
			<point x="62" y="48" type="line"/>
		</contour>
		<contour>
			<point x="321" y="55" type="curve" smooth="yes"/>
			<point x="300" y="55"/>
			<point x="268" y="56"/>
			<point x="250" y="60" type="curve"/>
			<point x="250" y="343" type="line"/>
			<point x="273" y="346"/>
			<point x="295" y="347"/>
			<point x="325" y="347" type="curve" smooth="yes"/>
			<point x="434" y="347"/>
			<point x="509" y="310"/>
			<point x="509" y="202" type="curve" smooth="yes"/>
			<point x="509" y="102"/>
			<point x="441" y="55"/>
		</contour>
	</outline>
</glyph>
<glyph name="De-cy" format="2">
	<unicode hex="0414"/>
	<advance width="725"/>
	<outline>
		<contour>
			<point x="5" y="-166" type="line"/>
			<point x="59" y="-166" type="line"/>
			<point x="67" y="-107" type="line" smooth="yes"/>
			<point x="78" y="-20"/>
			<point x="91" y="0"/>
			<point x="139" y="0" type="curve" smooth="yes"/>
			<point x="546" y="0" type="line" smooth="yes"/>
			<point x="594" y="0"/>
			<point x="596" y="-34"/>
			<point x="606" y="-86" type="curve" smooth="yes"/>
			<point x="620" y="-161" type="line"/>
			<point x="675" y="-161" type="line"/>
			<point x="675" y="64" type="line"/>
			<point x="571" y="64" type="line"/>
			<point x="571" y="596" type="line" smooth="yes"/>
			<point x="571" y="627"/>
			<point x="574" y="638"/>
			<point x="604" y="643" type="curve" smooth="yes"/>
			<point x="659" y="652" type="line"/>
			<point x="659" y="700" type="line"/>
			<point x="91" y="700" type="line"/>
			<point x="91" y="652" type="line"/>
			<point x="151" y="643" type="line" smooth="yes"/>
			<point x="178" y="639"/>
			<point x="184" y="628"/>
			<point x="184" y="596" type="curve" smooth="yes"/>
			<point x="184" y="320"/>
			<point x="162" y="203"/>
			<point x="106" y="65" type="curve"/>
			<point x="5" y="65" type="line"/>
		</contour>
		<contour>
			<point x="179" y="65" type="line"/>
			<point x="199" y="116"/>
			<point x="216" y="176"/>
			<point x="230" y="248" type="curve" smooth="yes"/>
			<point x="248" y="337"/>
			<point x="259" y="464"/>
			<point x="258" y="637" type="curve"/>
			<point x="472" y="637" type="line"/>
			<point x="472" y="65" type="line"/>
		</contour>
	</outline>
</glyph>
<glyph name="Ze-cy" format="2">
	<unicode hex="0417"/>
	<advance width="578"/>
	<outline>
		<contour>
			<point x="271" y="-14" type="curve" smooth="yes"/>
			<point x="427" y="-14"/>
			<point x="532" y="81"/>
			<point x="532" y="204" type="curve" smooth="yes"/>
			<point x="532" y="310"/>
			<point x="464" y="363"/>
			<point x="339" y="370" type="curve"/>
			<point x="339" y="375" type="line"/>
			<point x="428" y="392"/>
			<point x="509" y="444"/>
			<point x="509" y="547" type="curve" smooth="yes"/>
			<point x="509" y="670"/>
			<point x="409" y="715"/>
			<point x="300" y="715" type="curve" smooth="yes"/>
			<point x="220" y="715"/>
			<point x="169" y="682"/>
			<point x="141" y="658" type="curve"/>
			<point x="129" y="710" type="line"/>
			<point x="68" y="710" type="line"/>
			<point x="86" y="493" type="line"/>
			<point x="136" y="494" type="line"/>
			<point x="140" y="599"/>
			<point x="191" y="656"/>
			<point x="283" y="656" type="curve" smooth="yes"/>
			<point x="346" y="656"/>
			<point x="402" y="625"/>
			<point x="402" y="533" type="curve" smooth="yes"/>
			<point x="402" y="440"/>
			<point x="328" y="390"/>
			<point x="228" y="390" type="curve" smooth="yes"/>
			<point x="151" y="390" type="line"/>
			<point x="151" y="329" type="line"/>
			<point x="248" y="329" type="line" smooth="yes"/>
			<point x="348" y="329"/>
			<point x="425" y="304"/>
			<point x="425" y="200" type="curve" smooth="yes"/>
			<point x="425" y="115"/>
			<point x="370" y="56"/>
			<point x="266" y="56" type="curve" smooth="yes"/>
			<point x="206" y="56"/>
			<point x="118" y="74"/>
			<point x="91" y="190" type="curve"/>
			<point x="30" y="171" type="line"/>
			<point x="57" y="13"/>
			<point x="183" y="-14"/>
		</contour>
	</outline>
</glyph>
<glyph name="Ka-cy" format="2">
	<unicode hex="041A"/>
	<advance width="725"/>
	<outline>
		<contour>
			<point x="609" y="-14" type="curve" smooth="yes"/>
			<point x="654" y="-14"/>
			<point x="680" y="-6"/>
			<point x="715" y="29" type="curve"/>
			<point x="704" y="64" type="line"/>
			<point x="690" y="57"/>
			<point x="673" y="53"/>
			<point x="660" y="53" type="curve" smooth="yes"/>
			<point x="612" y="53"/>
			<point x="592" y="119"/>
			<point x="554" y="212" type="curve" smooth="yes"/>
			<point x="522" y="290"/>
			<point x="469" y="353"/>
			<point x="385" y="356" type="curve"/>
			<point x="385" y="359" type="line"/>
			<point x="453" y="385"/>
			<point x="485" y="440"/>
			<point x="505" y="501" type="curve" smooth="yes"/>
			<point x="534" y="592"/>
			<point x="540" y="601"/>
			<point x="558" y="624" type="curve"/>
			<point x="574" y="592"/>
			<point x="590" y="567"/>
			<point x="622" y="567" type="curve" smooth="yes"/>
			<point x="655" y="567"/>
			<point x="685" y="602"/>
			<point x="685" y="639" type="curve" smooth="yes"/>
			<point x="685" y="678"/>
			<point x="651" y="709"/>
			<point x="602" y="709" type="curve" smooth="yes"/>
			<point x="534" y="709"/>
			<point x="496" y="666"/>
			<point x="459" y="549" type="curve" smooth="yes"/>
			<point x="428" y="450"/>
			<point x="403" y="420"/>
			<point x="350" y="390" type="curve" smooth="yes"/>
			<point x="332" y="380"/>
			<point x="307" y="378"/>
			<point x="254" y="377" type="curve"/>
			<point x="254" y="592" type="line" smooth="yes"/>
			<point x="254" y="622"/>
			<point x="256" y="639"/>
			<point x="284" y="643" type="curve" smooth="yes"/>
			<point x="347" y="652" type="line"/>
			<point x="347" y="700" type="line"/>
			<point x="62" y="700" type="line"/>
			<point x="62" y="652" type="line"/>
			<point x="122" y="643" type="line" smooth="yes"/>
			<point x="152" y="638"/>
			<point x="155" y="627"/>
			<point x="155" y="596" type="curve" smooth="yes"/>
			<point x="155" y="108" type="line" smooth="yes"/>
			<point x="155" y="78"/>
			<point x="153" y="62"/>
			<point x="124" y="57" type="curve" smooth="yes"/>
			<point x="62" y="48" type="line"/>
			<point x="62" y="0" type="line"/>
			<point x="347" y="0" type="line"/>
			<point x="347" y="48" type="line"/>
			<point x="286" y="57" type="line" smooth="yes"/>
			<point x="257" y="62"/>
			<point x="254" y="73"/>
			<point x="254" y="104" type="curve" smooth="yes"/>
			<point x="254" y="326" type="line"/>
			<point x="309" y="326" type="line" smooth="yes"/>
			<point x="393" y="326"/>
			<point x="426" y="256"/>
			<point x="468" y="143" type="curve" smooth="yes"/>
			<point x="513" y="22"/>
			<point x="552" y="-14"/>
		</contour>
	</outline>
	<anchor name="top" x="420" y="730"/>
</glyph>
<glyph name="El-cy" format="2">
	<unicode hex="041B"/>
	<advance width="758"/>
	<outline>
		<contour>
			<point x="90" y="-13" type="curve" smooth="yes"/>
			<point x="194" y="-13"/>
			<point x="257" y="100"/>
			<point x="274" y="351" type="curve" smooth="yes"/>
			<point x="279" y="420"/>
			<point x="286" y="571"/>
			<point x="286" y="637" type="curve"/>
			<point x="509" y="637" type="line"/>
			<point x="509" y="108" type="line" smooth="yes"/>
			<point x="509" y="78"/>
			<point x="507" y="62"/>
			<point x="478" y="57" type="curve" smooth="yes"/>
			<point x="421" y="48" type="line"/>
			<point x="421" y="0" type="line"/>
			<point x="696" y="0" type="line"/>
			<point x="696" y="48" type="line"/>
			<point x="641" y="57" type="line" smooth="yes"/>
			<point x="611" y="62"/>
			<point x="608" y="73"/>
			<point x="608" y="104" type="curve" smooth="yes"/>
			<point x="608" y="592" type="line" smooth="yes"/>
			<point x="608" y="622"/>
			<point x="610" y="638"/>
			<point x="639" y="643" type="curve" smooth="yes"/>
			<point x="696" y="652" type="line"/>
			<point x="696" y="700" type="line"/>
			<point x="131" y="700" type="line"/>
			<point x="131" y="652" type="line"/>
			<point x="177" y="642" type="line" smooth="yes"/>
			<point x="207" y="635"/>
			<point x="220" y="627"/>
			<point x="220" y="596" type="curve" smooth="yes"/>
			<point x="220" y="395"/>
			<point x="211" y="137"/>
			<point x="141" y="79" type="curve"/>
			<point x="113" y="117"/>
			<point x="95" y="130"/>
			<point x="72" y="130" type="curve" smooth="yes"/>
			<point x="36" y="130"/>
			<point x="15" y="101"/>
			<point x="15" y="59" type="curve" smooth="yes"/>
			<point x="15" y="10"/>
			<point x="54" y="-13"/>
		</contour>
	</outline>
</glyph>
<glyph name="Ef-cy" format="2">
	<unicode hex="0424"/>
	<advance width="823"/>
	<outline>
		<contour>
			<point x="269" y="-17" type="line"/>
			<point x="554" y="-17" type="line"/>
			<point x="554" y="31" type="line"/>
			<point x="493" y="40" type="line" smooth="yes"/>
			<point x="464" y="45"/>
			<point x="461" y="56"/>
			<point x="461" y="87" type="curve" smooth="yes"/>
			<point x="461" y="124" type="line"/>
			<point x="470" y="122"/>
			<point x="498" y="119"/>
			<point x="519" y="119" type="curve" smooth="yes"/>
			<point x="655" y="119"/>
			<point x="783" y="203"/>
			<point x="783" y="372" type="curve" smooth="yes"/>
			<point x="783" y="525"/>
			<point x="677" y="613"/>
			<point x="525" y="613" type="curve" smooth="yes"/>
			<point x="505" y="613"/>
			<point x="482" y="612"/>
			<point x="461" y="609" type="curve"/>
			<point x="461" y="629" type="line" smooth="yes"/>
			<point x="461" y="659"/>
			<point x="463" y="672"/>
			<point x="491" y="677" type="curve"/>
			<point x="554" y="686" type="line"/>
			<point x="554" y="734" type="line"/>
			<point x="269" y="734" type="line"/>
			<point x="269" y="686" type="line"/>
			<point x="329" y="677" type="line" smooth="yes"/>
			<point x="359" y="672"/>
			<point x="362" y="661"/>
			<point x="362" y="630" type="curve" smooth="yes"/>
			<point x="362" y="609" type="line"/>
			<point x="343" y="611"/>
			<point x="320" y="613"/>
			<point x="298" y="613" type="curve" smooth="yes"/>
			<point x="146" y="613"/>
			<point x="40" y="521"/>
			<point x="40" y="368" type="curve" smooth="yes"/>
			<point x="40" y="199"/>
			<point x="154" y="119"/>
			<point x="293" y="119" type="curve" smooth="yes"/>
			<point x="331" y="119"/>
			<point x="353" y="122"/>
			<point x="362" y="124" type="curve"/>
			<point x="362" y="91" type="line" smooth="yes"/>
			<point x="362" y="61"/>
			<point x="360" y="45"/>
			<point x="331" y="40" type="curve" smooth="yes"/>
			<point x="269" y="31" type="line"/>
		</contour>
		<contour>
			<point x="308" y="173" type="curve" smooth="yes"/>
			<point x="194" y="173"/>
			<point x="142" y="262"/>
			<point x="142" y="365" type="curve" smooth="yes"/>
			<point x="142" y="482"/>
			<point x="203" y="561"/>
			<point x="305" y="561" type="curve" smooth="yes"/>
			<point x="320" y="561"/>
			<point x="337" y="560"/>
			<point x="361" y="557" type="curve"/>
			<point x="361" y="178" type="line"/>
			<point x="351" y="175"/>
			<point x="330" y="173"/>
		</contour>
		<contour>
			<point x="516" y="173" type="curve" smooth="yes"/>
			<point x="493" y="173"/>
			<point x="471" y="175"/>
			<point x="461" y="178" type="curve"/>
			<point x="461" y="557" type="line"/>
			<point x="488" y="560"/>
			<point x="505" y="561"/>
			<point x="518" y="561" type="curve" smooth="yes"/>
			<point x="625" y="561"/>
			<point x="681" y="486"/>
			<point x="681" y="369" type="curve" smooth="yes"/>
			<point x="681" y="266"/>
			<point x="630" y="173"/>
		</contour>
	</outline>
</glyph>
<glyph name="Tse-cy" format="2">
	<unicode hex="0426"/>
	<advance width="855"/>
	<outline>
		<contour>
			<point x="750" y="-157" type="line"/>
			<point x="805" y="-147" type="line"/>
			<point x="805" y="64" type="line"/>
			<point x="689" y="64" type="line"/>
			<point x="689" y="596" type="line" smooth="yes"/>
			<point x="689" y="627"/>
			<point x="692" y="638"/>
			<point x="722" y="643" type="curve" smooth="yes"/>
			<point x="777" y="652" type="line"/>
			<point x="777" y="700" type="line"/>
			<point x="502" y="700" type="line"/>
			<point x="502" y="652" type="line"/>
			<point x="559" y="643" type="line" smooth="yes"/>
			<point x="588" y="638"/>
			<point x="590" y="622"/>
			<point x="590" y="592" type="curve" smooth="yes"/>
			<point x="590" y="63" type="line"/>
			<point x="250" y="63" type="line"/>
			<point x="250" y="596" type="line" smooth="yes"/>
			<point x="250" y="627"/>
			<point x="253" y="638"/>
			<point x="282" y="643" type="curve" smooth="yes"/>
			<point x="338" y="652" type="line"/>
			<point x="338" y="700" type="line"/>
			<point x="62" y="700" type="line"/>
			<point x="62" y="652" type="line"/>
			<point x="120" y="643" type="line" smooth="yes"/>
			<point x="149" y="638"/>
			<point x="151" y="622"/>
			<point x="151" y="592" type="curve" smooth="yes"/>
			<point x="151" y="104" type="line" smooth="yes"/>
			<point x="151" y="73"/>
			<point x="148" y="62"/>
			<point x="118" y="57" type="curve" smooth="yes"/>
			<point x="62" y="48" type="line"/>
			<point x="62" y="0" type="line"/>
			<point x="668" y="0" type="line" smooth="yes"/>
			<point x="714" y="0"/>
			<point x="726" y="-29"/>
			<point x="736" y="-79" type="curve"/>
		</contour>
	</outline>
</glyph>
<glyph name="Sha-cy" format="2">
	<unicode hex="0428"/>
	<advance width="1158"/>
	<outline>
		<contour>
			<point x="62" y="0" type="line"/>
			<point x="1096" y="0" type="line"/>
			<point x="1096" y="48" type="line"/>
			<point x="1041" y="57" type="line" smooth="yes"/>
			<point x="1011" y="62"/>
			<point x="1008" y="73"/>
			<point x="1008" y="104" type="curve" smooth="yes"/>
			<point x="1008" y="596" type="line" smooth="yes"/>
			<point x="1008" y="627"/>
			<point x="1011" y="638"/>
			<point x="1041" y="643" type="curve" smooth="yes"/>
			<point x="1096" y="652" type="line"/>
			<point x="1096" y="700" type="line"/>
			<point x="821" y="700" type="line"/>
			<point x="821" y="652" type="line"/>
			<point x="878" y="643" type="line" smooth="yes"/>
			<point x="907" y="638"/>
			<point x="909" y="622"/>
			<point x="909" y="592" type="curve" smooth="yes"/>
			<point x="909" y="63" type="line"/>
			<point x="629" y="63" type="line"/>
			<point x="629" y="596" type="line" smooth="yes"/>
			<point x="629" y="627"/>
			<point x="632" y="638"/>
			<point x="661" y="643" type="curve" smooth="yes"/>
			<point x="717" y="652" type="line"/>
			<point x="717" y="700" type="line"/>
			<point x="441" y="700" type="line"/>
			<point x="441" y="652" type="line"/>
			<point x="499" y="643" type="line" smooth="yes"/>
			<point x="528" y="638"/>
			<point x="530" y="622"/>
			<point x="530" y="592" type="curve" smooth="yes"/>
			<point x="530" y="63" type="line"/>
			<point x="250" y="63" type="line"/>
			<point x="250" y="596" type="line" smooth="yes"/>
			<point x="250" y="627"/>
			<point x="253" y="638"/>
			<point x="282" y="643" type="curve" smooth="yes"/>
			<point x="338" y="652" type="line"/>
			<point x="338" y="700" type="line"/>
			<point x="62" y="700" type="line"/>
			<point x="62" y="652" type="line"/>
			<point x="120" y="643" type="line" smooth="yes"/>
			<point x="149" y="638"/>
			<point x="151" y="622"/>
			<point x="151" y="592" type="curve" smooth="yes"/>
			<point x="151" y="104" type="line" smooth="yes"/>
			<point x="151" y="73"/>
			<point x="148" y="62"/>
			<point x="118" y="57" type="curve" smooth="yes"/>
			<point x="62" y="48" type="line"/>
		</contour>
	</outline>
</glyph>
<glyph name="Ia-cy" format="2">
	<unicode hex="042F"/>
	<advance width="704"/>
	<outline>
		<contour>
			<point x="99" y="-10" type="curve" smooth="yes"/>
			<point x="177" y="-10"/>
			<point x="212" y="54"/>
			<point x="235" y="143" type="curve" smooth="yes"/>
			<point x="258" y="231"/>
			<point x="278" y="285"/>
			<point x="353" y="297" type="curve" smooth="yes"/>
			<point x="364" y="298"/>
			<point x="404" y="299"/>
			<point x="454" y="299" type="curve"/>
			<point x="454" y="106" type="line" smooth="yes"/>
			<point x="454" y="73"/>
			<point x="449" y="60"/>
			<point x="417" y="56" type="curve" smooth="yes"/>
			<point x="347" y="48" type="line"/>
			<point x="347" y="0" type="line"/>
			<point x="642" y="0" type="line"/>
			<point x="642" y="48" type="line"/>
			<point x="584" y="57" type="line" smooth="yes"/>
			<point x="555" y="62"/>
			<point x="553" y="78"/>
			<point x="553" y="108" type="curve" smooth="yes"/>
			<point x="553" y="596" type="line" smooth="yes"/>
			<point x="553" y="627"/>
			<point x="556" y="638"/>
			<point x="586" y="643" type="curve" smooth="yes"/>
			<point x="642" y="652" type="line"/>
			<point x="642" y="700" type="line"/>
			<point x="396" y="700" type="line" smooth="yes"/>
			<point x="230" y="700"/>
			<point x="113" y="650"/>
			<point x="113" y="494" type="curve" smooth="yes"/>
			<point x="113" y="381"/>
			<point x="202" y="328"/>
			<point x="304" y="322" type="curve"/>
			<point x="304" y="319" type="line"/>
			<point x="247" y="309"/>
			<point x="178" y="265"/>
			<point x="149" y="185" type="curve" smooth="yes"/>
			<point x="117" y="96"/>
			<point x="103" y="60"/>
			<point x="61" y="60" type="curve" smooth="yes"/>
			<point x="49" y="60"/>
			<point x="34" y="63"/>
			<point x="22" y="70" type="curve"/>
			<point x="5" y="33" type="line"/>
			<point x="37" y="-1"/>
			<point x="68" y="-10"/>
		</contour>
		<contour>
			<point x="382" y="358" type="curve" smooth="yes"/>
			<point x="278" y="358"/>
			<point x="216" y="404"/>
			<point x="216" y="509" type="curve" smooth="yes"/>
			<point x="216" y="621"/>
			<point x="290" y="646"/>
			<point x="389" y="646" type="curve" smooth="yes"/>
			<point x="454" y="646" type="line"/>
			<point x="454" y="363" type="line"/>
			<point x="444" y="360"/>
			<point x="405" y="358"/>
		</contour>
	</outline>
	<anchor name="top" x="406" y="730"/>
</glyph>
